<svg xmlns="http://www.w3.org/2000/svg" width="32" height="32" viewBox="0 0 32 32" fill="none"><path d="M22.062 17.334c1 0 1.88-.547 2.333-1.374l4.774-8.653c.493-.88-.147-1.973-1.16-1.973H8.275L7.022 2.667h-4.36v2.667H5.33l4.8 10.12-1.8 3.253c-.974 1.787.306 3.96 2.333 3.96h16V20h-16l1.467-2.666h9.933zM9.542 8h16.2l-3.68 6.667h-9.36L9.542 8zm1.12 16a2.663 2.663 0 0 0-2.653 2.667 2.663 2.663 0 0 0 2.653 2.667c1.467 0 2.667-1.2 2.667-2.667 0-1.467-1.2-2.667-2.667-2.667zm13.333 0a2.663 2.663 0 0 0-2.653 2.667 2.663 2.663 0 0 0 2.653 2.667c1.467 0 2.667-1.2 2.667-2.667 0-1.467-1.2-2.667-2.667-2.667z" fill="currentColor"/></svg>