<svg xmlns="http://www.w3.org/2000/svg" width="24" height="24" viewBox="0 0 24 24" fill="none"><g clip-path="url(#clip0_19681_20608)" fill="currentColor"><path d="M21.904 9.01a.996.996 0 0 0-.997-.998L5.513 8.005l3.953-3.953a1.003 1.003 0 0 0 0-1.414 1.003 1.003 0 0 0-1.414 0L2.395 8.295a1.003 1.003 0 0 0 0 1.414.99.99 0 0 0 .7.29h17.818c.538 0 .99-.452.99-.99zM2.096 14.99c0 .552.446.998.997.998l15.394.007-3.953 3.953a1.003 1.003 0 0 0 0 1.414 1.003 1.003 0 0 0 1.414 0l5.657-5.657a1.003 1.003 0 0 0 0-1.414.99.99 0 0 0-.7-.29H3.087c-.538 0-.99.453-.99.99z"/></g><defs><clipPath id="clip0_19681_20608"><path fill="currentColor" d="M0 0h24v24H0z"/></clipPath></defs></svg>