<svg xmlns="http://www.w3.org/2000/svg" width="16" height="16" viewBox="0 0 16 16" fill="none"><path d="M12.333 1.836h-6C5.6 1.836 5 2.436 5 3.169v8c0 .734.6 1.334 1.333 1.334h6c.733 0 1.333-.6 1.333-1.334v-8c0-.733-.6-1.333-1.333-1.333zm0 9.333h-6v-8h6v8zm-10-.666V9.169h1.333v1.334H2.333zm0-3.667h1.333v1.333H2.333V6.836zm4.667 7h1.333v1.333H7v-1.333zm-4.667-1v-1.333h1.333v1.333H2.333zm1.333 2.333c-.733 0-1.333-.6-1.333-1.333h1.333v1.333zm2.334 0H4.666v-1.333H6v1.333zm3.333 0v-1.333h1.333c0 .733-.6 1.333-1.333 1.333zM3.666 4.503v1.333H2.333c0-.733.6-1.333 1.333-1.333z" fill="currentColor"/></svg>