<svg width="16" height="16" viewBox="0 0 16 16" fill="none" xmlns="http://www.w3.org/2000/svg"><circle cx="8" cy="8" r="8" fill="#537FF6"/><path d="M10.889 3.556h-4c-.49 0-.89.4-.89.889v5.333c.001.489.4.889.89.889h4c.489 0 .889-.4.889-.89V4.446c0-.49-.4-.89-.89-.89zm0 6.222h-4V4.445h4v5.333zm-6.667-.445v-.888h.89v.888h-.89zm0-2.444h.89v.889h-.89v-.889zm3.111 4.667h.89v.889h-.89v-.89zm-3.11-.667V10h.888v.889h-.889zm.888 1.556a.892.892 0 0 1-.889-.89h.89v.89zm1.556 0h-.89v-.89h.89v.89zm2.222 0v-.89h.889c0 .49-.4.89-.89.89zM5.11 5.333v.89h-.889c0-.49.4-.89.89-.89z" fill="#234296"/></svg>