<svg width="33" height="33" viewBox="0 0 33 33" fill="none" xmlns="http://www.w3.org/2000/svg"><rect x=".455" y=".367" width="32" height="32" rx="16" fill="url(#paint0_linear_23838_33694)"/><g filter="url(#filter0_d_23838_33694)" shape-rendering="crispEdges"><path d="M6.027 20.402a.336.336 0 0 1-.324-.439l2.106-6.48a.335.335 0 0 1 .315-.232l1.37-.018a.336.336 0 0 1 .315.21l1.44 3.55a.22.22 0 1 1-.206-.136h.023a.227.227 0 0 0 .213-.158l1.065-3.275a.336.336 0 0 1 .314-.232l1.502-.02c.23-.003.394.221.323.44l-2.105 6.48a.336.336 0 0 1-.315.232l-1.348.017a.336.336 0 0 1-.316-.21l-1.442-3.61a.22.22 0 1 1 .208.138H9.14a.228.228 0 0 0-.214.158L7.843 20.15a.336.336 0 0 1-.315.232l-1.501.02z" fill="url(#paint1_linear_23838_33694)"/><path d="M13.814 20.3a.336.336 0 0 1-.323-.439l2.105-6.48a.336.336 0 0 1 .315-.232l4.577-.06c.23-.003.394.221.323.44l-.322.992a.336.336 0 0 1-.315.231l-2.594.034a.336.336 0 0 0-.315.232l-.229.704a.336.336 0 0 0 .324.44l1.847-.025c.23-.003.394.221.323.44l-.293.902a.336.336 0 0 1-.315.232l-2.302.03a.336.336 0 0 0-.315.232l-.675 2.076a.336.336 0 0 1-.314.232l-1.502.02z" fill="url(#paint2_linear_23838_33694)"/><path d="M21.576 20.199a.336.336 0 0 1-.324-.44l1.494-4.597a.336.336 0 0 0-.323-.44l-1.045.015a.336.336 0 0 1-.323-.44l.322-.991a.336.336 0 0 1 .315-.232l5.463-.072c.23-.003.394.22.323.44l-.322.991a.336.336 0 0 1-.315.232l-1.5.02a.336.336 0 0 0-.314.231l-1.635 5.032a.335.335 0 0 1-.315.231l-1.501.02z" fill="url(#paint3_linear_23838_33694)"/></g><g filter="url(#filter1_b_23838_33694)"><path d="M5.562 19.742a.336.336 0 0 1-.324-.439l2.106-6.48a.336.336 0 0 1 .315-.232l1.37-.018a.335.335 0 0 1 .315.21l1.44 3.55a.22.22 0 0 1-.324.267.22.22 0 0 1 .118-.404h.024a.227.227 0 0 0 .213-.157l1.064-3.275a.336.336 0 0 1 .315-.232l1.501-.02c.23-.003.395.22.324.44l-2.106 6.48a.336.336 0 0 1-.315.231l-1.348.018a.336.336 0 0 1-.316-.211l-1.442-3.61A.22.22 0 1 1 8.7 16h-.025a.228.228 0 0 0-.213.158L7.378 19.49a.336.336 0 0 1-.315.232l-1.501.02z" fill="url(#paint4_linear_23838_33694)"/><path d="M13.35 19.64a.335.335 0 0 1-.324-.439l2.106-6.48a.335.335 0 0 1 .314-.232l4.577-.06c.23-.003.395.221.324.44l-.323.991a.336.336 0 0 1-.314.232l-2.595.034a.335.335 0 0 0-.315.232l-.229.704a.335.335 0 0 0 .324.44l1.847-.025c.23-.003.395.22.324.44l-.294.902a.336.336 0 0 1-.314.232l-2.303.03a.336.336 0 0 0-.315.232l-.674 2.076a.336.336 0 0 1-.315.232l-1.502.02z" fill="url(#paint5_linear_23838_33694)"/><path d="M21.11 19.539a.336.336 0 0 1-.323-.44l1.494-4.597a.336.336 0 0 0-.323-.44l-1.045.014a.336.336 0 0 1-.323-.439l.322-.992a.335.335 0 0 1 .315-.231l5.463-.072c.23-.003.394.22.323.44l-.322.991a.336.336 0 0 1-.315.232l-1.5.02a.336.336 0 0 0-.314.231l-1.635 5.031a.336.336 0 0 1-.315.232l-1.501.02z" fill="url(#paint6_linear_23838_33694)"/><path d="M8.517 16.174a.17.17 0 0 1 .021-.043l1.342 3.36c.06.152.208.25.37.248l1.35-.018a.394.394 0 0 0 .368-.272l2.106-6.48a.394.394 0 0 0-.38-.515l-1.501.02a.394.394 0 0 0-.37.272L10.76 16.02a.168.168 0 0 1-.021.044l-1.34-3.304a.394.394 0 0 0-.37-.246l-1.37.018a.393.393 0 0 0-.37.272l-2.105 6.48a.394.394 0 0 0 .38.515l1.501-.02a.393.393 0 0 0 .37-.271l1.083-3.335zm4.454 3.01a.393.393 0 0 0 .38.514l1.5-.02a.394.394 0 0 0 .37-.271l.674-2.076a.278.278 0 0 1 .26-.192l2.303-.03a.394.394 0 0 0 .37-.272l.293-.903a.394.394 0 0 0-.38-.515l-1.847.024a.277.277 0 0 1-.267-.363l.229-.704a.277.277 0 0 1 .26-.192l2.594-.034a.394.394 0 0 0 .37-.272l.322-.992a.394.394 0 0 0-.38-.515l-4.577.06a.394.394 0 0 0-.369.272l-2.105 6.48zm7.761-.102a.394.394 0 0 0 .38.515l1.501-.02a.394.394 0 0 0 .37-.272l1.634-5.03a.278.278 0 0 1 .26-.192l1.5-.02a.394.394 0 0 0 .37-.272l.322-.992a.394.394 0 0 0-.38-.515l-5.463.072a.393.393 0 0 0-.369.271l-.322.992a.394.394 0 0 0 .38.515l1.044-.013a.278.278 0 0 1 .267.363l-1.494 4.598z" stroke="url(#paint7_linear_23838_33694)" stroke-width=".116"/></g><defs><filter id="filter0_d_23838_33694" x="5.223" y="12.54" width="23.663" height="9.255" filterUnits="userSpaceOnUse" color-interpolation-filters="sRGB"><feFlood flood-opacity="0" result="BackgroundImageFix"/><feColorMatrix in="SourceAlpha" values="0 0 0 0 0 0 0 0 0 0 0 0 0 0 0 0 0 0 127 0" result="hardAlpha"/><feOffset dx=".464" dy=".464"/><feGaussianBlur stdDeviation=".464"/><feComposite in2="hardAlpha" operator="out"/><feColorMatrix values="0 0 0 0 0 0 0 0 0 0 0 0 0 0 0 0 0 0 0.25 0"/><feBlend in2="BackgroundImageFix" result="effect1_dropShadow_23838_33694"/><feBlend in="SourceGraphic" in2="effect1_dropShadow_23838_33694" result="shape"/></filter><filter id="filter1_b_23838_33694" x="4.409" y="11.53" width="23.434" height="9.025" filterUnits="userSpaceOnUse" color-interpolation-filters="sRGB"><feFlood flood-opacity="0" result="BackgroundImageFix"/><feGaussianBlur in="BackgroundImageFix" stdDeviation=".348"/><feComposite in2="SourceAlpha" operator="in" result="effect1_backgroundBlur_23838_33694"/><feBlend in="SourceGraphic" in2="effect1_backgroundBlur_23838_33694" result="shape"/></filter><linearGradient id="paint0_linear_23838_33694" x1="39.328" y1="-4.478" x2="-6.756" y2="38.114" gradientUnits="userSpaceOnUse"><stop stop-color="#171717"/><stop offset=".5" stop-color="#4572EC"/><stop offset="1" stop-color="#171717"/></linearGradient><linearGradient id="paint1_linear_23838_33694" x1="28.694" y1="10.296" x2="9.092" y2="28.886" gradientUnits="userSpaceOnUse"><stop stop-color="#fff"/><stop offset="1" stop-color="#fff" stop-opacity="0"/></linearGradient><linearGradient id="paint2_linear_23838_33694" x1="28.694" y1="10.296" x2="9.092" y2="28.886" gradientUnits="userSpaceOnUse"><stop stop-color="#fff"/><stop offset="1" stop-color="#fff" stop-opacity="0"/></linearGradient><linearGradient id="paint3_linear_23838_33694" x1="28.694" y1="10.296" x2="9.092" y2="28.886" gradientUnits="userSpaceOnUse"><stop stop-color="#fff"/><stop offset="1" stop-color="#fff" stop-opacity="0"/></linearGradient><linearGradient id="paint4_linear_23838_33694" x1="30.92" y1="14.149" x2="9.997" y2="34.006" gradientUnits="userSpaceOnUse"><stop stop-color="#4572EC"/><stop offset=".32" stop-color="#EDF2FF" stop-opacity=".446"/><stop offset=".437" stop-color="#fff"/><stop offset=".577" stop-color="#EDF2FF" stop-opacity=".446"/><stop offset=".865" stop-color="#4572EC"/></linearGradient><linearGradient id="paint5_linear_23838_33694" x1="30.92" y1="14.149" x2="9.997" y2="34.006" gradientUnits="userSpaceOnUse"><stop stop-color="#4572EC"/><stop offset=".32" stop-color="#EDF2FF" stop-opacity=".446"/><stop offset=".437" stop-color="#fff"/><stop offset=".577" stop-color="#EDF2FF" stop-opacity=".446"/><stop offset=".865" stop-color="#4572EC"/></linearGradient><linearGradient id="paint6_linear_23838_33694" x1="30.92" y1="14.149" x2="9.997" y2="34.006" gradientUnits="userSpaceOnUse"><stop stop-color="#4572EC"/><stop offset=".32" stop-color="#EDF2FF" stop-opacity=".446"/><stop offset=".437" stop-color="#fff"/><stop offset=".577" stop-color="#EDF2FF" stop-opacity=".446"/><stop offset=".865" stop-color="#4572EC"/></linearGradient><linearGradient id="paint7_linear_23838_33694" x1="28.481" y1="10.754" x2="3.651" y2="23.337" gradientUnits="userSpaceOnUse"><stop stop-color="#fff"/><stop stop-color="#fff" stop-opacity="0"/><stop offset=".177" stop-color="#fff"/><stop offset=".37" stop-color="#fff" stop-opacity=".42"/><stop offset=".615" stop-color="#fff"/><stop offset=".737" stop-color="#fff" stop-opacity=".34"/><stop offset=".902" stop-color="#fff"/></linearGradient></defs></svg>