<svg xmlns="http://www.w3.org/2000/svg" width="60" height="60" viewBox="0 0 60 60" fill="none"><path d="M31.702 15.502l-.55-.054V20.686l.43.061c4.485.65 7.718 4.498 7.718 9.218a9.521 9.521 0 0 1-.64 3.388l-.149.393.363.215 3.64 2.147.48.283.23-.508a14.39 14.39 0 0 0 1.276-5.918c0-7.516-5.46-13.734-12.798-14.463zm-3.03 5.245l.428-.062v-5.237l-.55.054c-7.338.727-13.05 6.92-13.05 14.463 0 8.022 6.48 14.535 14.486 14.535 4.8 0 9.05-2.342 11.687-5.945l.327-.446-.476-.28-3.64-2.147-.374-.221-.27.34A9.222 9.222 0 0 1 30 39.288c-5.14 0-9.3-4.168-9.3-9.324 0-4.701 3.467-8.565 7.972-9.218z" fill="currentColor"/></svg>