<svg xmlns="http://www.w3.org/2000/svg" width="24" height="24" viewBox="0 0 24 24" fill="none"><path fill-rule="evenodd" clip-rule="evenodd" d="M14.292 2.69v4.411c0 .731-.593 1.324-1.324 1.324h-3.09V2.691h4.414zm.883 0h-.883v-.002h.883v.003zm0 0h3.09c.974 0 1.764.791 1.764 1.766v15.006c0 .975-.79 1.766-1.765 1.766H5.906c-.975 0-1.765-.79-1.765-1.766V4.456c0-.975.79-1.765 1.765-1.765h3.089v5.734H4.141v.883h8.827A2.207 2.207 0 0 0 15.175 7.1v-4.41zm-6.18 0v-.002h.883v.003h-.883zm2.207 12.793h3.09v5.738h.883v-5.738h4.854v-.882h-8.827a2.207 2.207 0 0 0-2.207 2.206v4.414h.883v-4.414c0-.73.593-1.324 1.324-1.324z" fill="currentColor"/></svg>