<svg xmlns="http://www.w3.org/2000/svg" width="42" height="42" viewBox="0 0 42 42" fill="none"><path d="M21 42c11.598 0 21-9.402 21-21S32.598 0 21 0 0 9.402 0 21s9.402 21 21 21z" fill="url(#paint0_linear_7227_3850)"/><path d="M27.06 25.541l5.942-3.43c.314-.182.509-.52.509-.884v-6.86c0-.363-.196-.702-.51-.883l-5.94-3.431a1.023 1.023 0 0 0-1.02 0l-5.942 3.43c-.314.182-.509.521-.509.884v12.26l-4.166 2.406-4.167-2.405v-4.811l4.167-2.406 2.748 1.587V17.77l-2.239-1.292a1.023 1.023 0 0 0-1.02 0l-5.94 3.43c-.315.182-.51.52-.51.884v6.86c0 .363.195.702.51.883l5.94 3.431c.314.181.705.181 1.02 0l5.941-3.43c.315-.181.51-.52.51-.883v-12.26l.075-.043 4.091-2.363 4.166 2.405v4.812l-4.166 2.405-2.744-1.585v3.228l2.235 1.29c.314.181.705.181 1.02 0z" fill="#fff"/><defs><linearGradient id="paint0_linear_7227_3850" x1="-7.675" y1="3.452" x2="35.683" y2="29.985" gradientUnits="userSpaceOnUse"><stop stop-color="#A229C5"/><stop offset="1" stop-color="#7B3FE4"/></linearGradient></defs></svg>