<svg xmlns="http://www.w3.org/2000/svg" width="42" height="42" viewBox="0 0 42 42" fill="none"><path d="M41.376 26.068c-2.802 11.244-14.19 18.109-25.454 15.305C4.68 38.563-2.175 27.175.627 15.932 3.429 4.689 14.81-2.177 26.046.627c11.27 2.77 18.125 14.191 15.33 25.441z" fill="#F6F8FC"/><path fill-rule="evenodd" clip-rule="evenodd" d="M13.278 12.182h15.724c.375 0 .722.194.909.51l4.581 7.722c.238.4.167.906-.172 1.23L21.71 33.73a1.072 1.072 0 0 1-1.474 0L7.644 21.661a.994.994 0 0 1-.157-1.256l4.897-7.738c.19-.302.529-.485.894-.485zm13.694 3.447v2.167h-4.48V19.3c3.146.16 5.507.82 5.524 1.61v1.647c-.017.79-2.377 1.45-5.523 1.61v3.688h-2.975v-3.687c-3.146-.16-5.506-.82-5.524-1.61v-1.648c.018-.79 2.378-1.45 5.524-1.61v-1.503h-4.48V15.63h11.934zm-5.967 7.406c3.358 0 6.164-.558 6.85-1.302-.582-.632-2.688-1.129-5.363-1.265v1.573a29.186 29.186 0 0 1-2.974 0v-1.573c-2.674.136-4.78.633-5.363 1.265.687.744 3.493 1.302 6.85 1.302z" fill="#009393"/></svg>