<svg xmlns="http://www.w3.org/2000/svg" width="48" height="48" viewBox="0 0 48 48" fill="none"><path d="M44.376 29.068c-2.802 11.244-14.19 18.109-25.454 15.305C7.68 41.563.825 30.175 3.627 18.932 6.429 7.689 17.81.823 29.046 3.627c11.27 2.77 18.125 14.191 15.33 25.441z" fill="#ECEFF0"/><path d="M24.244 29.094c-.081.028-.128-.043-.183-.076a6146.45 6146.45 0 0 1-8.15-4.818.573.573 0 0 0-.082-.034v-.036l.048-.027c.069-.018.136-.04.202-.066l6.409-2.916c.57-.26 1.142-.516 1.713-.774h.04v.232c.003 2.839.004 5.677.003 8.515z" fill="#343535"/><path d="M24.248 20.35h-.04c0-.083.008-.164.008-.25v-9.566a.682.682 0 0 1 .016-.245h.017c.335.495.627 1.018.936 1.53l7.326 12.156c.023.04.042.081.063.126a1.42 1.42 0 0 1-.203-.06 1451.255 1451.255 0 0 0-3.428-1.567l-3.351-1.519c-.446-.205-.895-.405-1.344-.606z" fill="#2F3030"/><path d="M24.235 10.285a.682.682 0 0 0-.017.245v9.566c0 .082-.005.163-.008.249-.571.258-1.142.514-1.713.774l-6.409 2.916a1.85 1.85 0 0 1-.202.065c.186-.385.426-.734.646-1.103 2.543-4.227 5.087-8.453 7.634-12.678a.703.703 0 0 1 .055-.067l.014.033z" fill="#828384"/><path d="M24.248 20.35c.449.2.898.4 1.346.602l3.351 1.518c.697.317 1.392.635 2.087.953.447.205.897.413 1.34.615.067.025.135.045.204.06.082.101-.04.105-.076.128-.696.416-1.395.826-2.093 1.239l-6.005 3.553c-.05.03-.105.051-.158.076v-8.513l.004-.232z" fill="#131313"/><path d="M24.215 30.706l5.243-3.09 3-1.773.091-.05c.009.082-.047.125-.082.172l-6.853 9.659c-.433.61-.864 1.223-1.3 1.829-.023.031-.058.18-.129.023.056-.048.031-.111.031-.164v-6.606z" fill="#2F3030"/><path d="M24.215 30.706v6.603c0 .056.024.12-.031.163-.117-.07-.167-.196-.245-.3-2.649-3.73-5.296-7.463-7.942-11.195-.034-.047-.065-.098-.1-.15.07-.04.106.014.146.038 2.679 1.582 5.357 3.165 8.035 4.75.05.03.093.062.137.091z" fill="#828384"/><path d="M24.235 10.285l-.02-.03c.037-.023.032.01.037.027l-.017.003z" fill="#393939"/></svg>