<svg xmlns="http://www.w3.org/2000/svg" width="48" height="48" viewBox="0 0 48 48" fill="none"><mask id="a" style="mask-type:luminance" maskUnits="userSpaceOnUse" x="3" y="3" width="42" height="42"><path d="M45 24c0-11.598-9.402-21-21-21S3 12.402 3 24s9.402 21 21 21 21-9.402 21-21z" fill="#fff"/></mask><g mask="url(#a)"><path d="M45 24.001c0-11.598-9.402-21-21-21s-21 9.402-21 21 9.402 21 21 21 21-9.402 21-21z" fill="url(#paint0_radial_7227_1751)"/><path d="M38.28 17.445c-.088.514-.191.764-.312 1.052-.13.313-.278.668-.411 1.372-.053.282-.08.49-.103.671l-.002.012v.01c-.038.292-.063.489-.181.839a4.23 4.23 0 0 1-.645 1.276c-.313.415-.837 1.11-1.536 1.194-.061.004-.188.01-.24-.016-1.983-1.013-3.687-1.761-4.277-1.929-.686-.194-.599-1.69-.52-3.01.034-.59.067-1.148.04-1.625-.097-1.667-.392-3.49-1.843-4.38-.866-.53-1.984-.685-3.052-.688.198-.094.419-.222.66-.362l.007-.004c.628-.364 1.409-.816 2.184-.895.254-.025.503-.055.749-.082 1.563-.177 2.914-.33 4.338.159.646.221 1.97.96 2.312 1.646.241.485.647.862 1.458 1.616.422.392.7.62.903.788l.01.007c.285.235.341.284.427.458.262.535.166 1.104.033 1.891zM31.064 24.294a.153.153 0 0 1 .075.23c-.212.321-.455.762-.746 1.301-.136.254-.265.494-.374.681-.384.66-.415 1.216-.44 1.662-.026.466-.05.68-.329.866-.23.154-.465.206-2.098.454-.285.044-.412.1-.523.148l-.095.04c-.094.035-.186-.046-.18-.146.012-.235.02-.53.021-.9v-.07c.009-.32-.004-.58-.016-.79-.021-.416-.024-.592.087-.773.136-.22.243-.287.418-.398.244-.153.58-.364 1.075-1.045.263-.361.322-.557.358-.726.016-.07.022-.096.224-.25.215-.163.868-.658 1.704-.517.232.039.526.125.84.233zM24.566 31.824a.168.168 0 0 1-.137.07c-.17.008-.29-.034-.37-.13-.168-.205-.146-.617-.106-.858l.69-.184c.054.366.08.898-.077 1.102zM24.622 29.331c-.011.101-.024.215-.024.333l.003.132c.001.113.006.292-.01.374-.215.078-.4.078-.642.074-.003-.07.001-.174.004-.245l.005-.16v-.17c-.001-.132-.003-.35.03-.414.065-.01.131-.024.203-.04.142-.031.329-.07.447-.053a2.131 2.131 0 0 1-.016.17zM23.344 31.611c-.033.354-.142.792-.474.858-.15.031-.222-.014-.267-.056-.225-.208-.26-.836-.23-1.285.15.003.346-.031.578-.076.141-.028.282-.06.394-.085a3.85 3.85 0 0 1 0 .644zM23.188 30.34l-.75.263c.038-.29.09-.7.107-.972.013-.191.065-.25.08-.263.005-.004.015-.013.043-.013h.013l.016.003.473-.026c.02.223.02.711.018 1.008zM21.977 30.107c-.042.113-.092.433-.123.657l-.939-.028c.053-.29.126-.587.207-.822.081-.235.17-.41.25-.46a.41.41 0 0 1 .428.04c.207.176.264.377.177.613zM21.627 32.98c-.073.1-.154.15-.254.16-.102.012-.181-.011-.245-.07-.294-.273-.27-1.164-.26-1.592.39-.089.81-.164 1.009-.176.03.359.038 1.285-.25 1.678zM20.402 30.71c-.046.123-.09.238-.124.34-.109.034-.442.005-.783-.07l.234-1.477c.385-.102.831-.135.94-.021.142.151-.144.907-.267 1.228zM19.977 33.205c-.182.224-.455.329-.835.325-.264-.005-.358-.105-.405-.18-.211-.334-.005-1.124.203-1.628l1.27.076c.014.089.024.197.03.314.014.359-.032.805-.263 1.093z" fill="#fff"/><path d="M30.482 22.487c-1.144-.324-1.046-1.997-.95-3.615.033-.572.065-1.113.039-1.555-.088-1.514-.343-3.163-1.56-3.909-1.31-.8-3.452-.618-4.774-.45h-.003l-.002.001c-.484.147-.937.242-1.288.223-.78-.04-1.387-.368-1.921-.657-.417-.225-.78-.42-1.123-.42h-.056c-1.025.067-1.496.317-1.924.699-.107.095-.239.37-.668 1.609-.217.625-.257.968-.297 1.3-.037.304-.073.617-.235 1.083-.113.322-.196.6-.276.867-.212.711-.38 1.27-.882 1.937-.06.079-.133.194-.217.326-.114.18-.256.404-.442.662-.131.182-.433.864-.417 1.072.025.331.132.537.255.776.123.236.262.504.288.873l.004.06c.045.586-.039.88-1.153 1.876a11.903 11.903 0 0 0-1.561 1.703c-.03.04.009.099.059.095a.603.603 0 0 1 .225.003c.27.03.532.144.722.34a.118.118 0 0 0 .128.027c.181-.076.38-.064.572-.046.235.022.473.092.629.244.047.046.114.07.178.055a.99.99 0 0 1 .558.027c.141.053.26.136.355.24a.212.212 0 0 0 .266.035.763.763 0 0 1 .172-.083c.242-.082.51-.035.745.05.115.04.237.078.34.148.193.127.31.314.384.522.043.118.2.159.297.079.172-.144.309-.168.446-.107.07.032.12.075.152.13.058.095.174.173.28.143.375-.105.844-.05 1.184.132.12.063.238.159.324.304h.001l.01-.064a.077.077 0 0 1 .053-.063l.08-.024c.185-.059 1.13-.331 1.498.056.016.016.044.017.06 0a.508.508 0 0 1 .116-.1.832.832 0 0 1 .923.08c.055.047.145.03.186-.029a.48.48 0 0 1 .44-.21l.519-.027a7.442 7.442 0 0 0 .694-.068c.054-.008.119-.022.186-.036.252-.055.538-.117.772-.008.226.104.197.361.17.588-.01.091-.022.188-.021.279l.003.129c.003.195.008.375-.031.514v.002l.024.107.003.015c.021.099.127.154.213.101.18-.11.371-.254.429-.336a.085.085 0 0 0 .01-.02.851.851 0 0 0 .039-.16c.032-.194.068-.586.07-1.382 0-.043 0-.073.002-.087a9.07 9.07 0 0 0-.017-.742c-.021-.432-.038-.771.176-1.117.208-.337.411-.464.606-.587.226-.142.482-.303.912-.894.21-.29.237-.407.258-.501.046-.22.119-.351.444-.598.266-.2 1.073-.812 2.161-.628.357.06.936.25 1.507.476h.001a.35.35 0 0 1 .087.035c.51.204 1.006.431 1.324.613a.174.174 0 0 0 .221-.05 1.13 1.13 0 0 1 .34-.287c.046-.028.081-.05.115-.078l.034-.028c.095-.077.095-.242-.014-.298a19.605 19.605 0 0 0-3.457-1.372zm-10.905.352c-.354 1.55-2.754 3.252-3.844 3.252h-.022a.5.5 0 0 1-.123-.02l-.036-.011a1.845 1.845 0 0 1-.68-.419c-.143-.14-.255-.305-.29-.483a10.381 10.381 0 0 0-.02-.094c-.059-.264-.132-.593.1-1.131l.087-.201.026-.061.066-.16a10.033 10.033 0 0 0 .107-.277c.066-.186.074-.256.083-.328.009-.056.017-.126.04-.224a8.24 8.24 0 0 0 .135-.756c.056-.395.104-.735.317-1.048a.865.865 0 0 1 .121-.144c.016-.015.03-.03.047-.043l.049-.039a1.04 1.04 0 0 1 .166-.095 1.249 1.249 0 0 1 .194-.066c.196-.047.426-.055.691-.021.29.023.559.078.797.144.198.055.376.12.526.179l.045.018a1.9 1.9 0 0 1 .084.035l.114.05.128.057.035.016c.167.077.311.16.434.248a2.18 2.18 0 0 1 .264.23c.462.485.439 1.047.36 1.392zm1.112-5.871l-.046.28c-.108.633-.355 1.501-1.266 1.725-.877.214-1.085.26-1.709.288l-.043.001c-.456 0-1.333-.287-1.488-1.001-.1-.46.103-.793.438-1.346l.18-.298c.44-.744.615-1.282.755-1.714.136-.422.25-.77.54-1.06a1.61 1.61 0 0 1 .672-.402c.203-.065.422-.098.641-.098.425 0 .85.123 1.153.366.136.109.33.327.442.97.058.332-.04.941-.269 2.289zm6.502 1.8c-.314.54-.486.836-.757 1.058-.537.442-1.165.554-1.681.554-.371 0-.686-.058-.872-.092-.533-.097-1.527-.278-1.858-1.062a.843.843 0 0 1-.065-.378c0-.124 0-.331-.057-.825l-.004-.032a2.38 2.38 0 0 1 .009-.801l.007-.039c.187-.952.238-1.097.28-1.18a.382.382 0 0 1 .685.335c-.019.054-.072.256-.216.993l-.008.039c-.041.207-.023.365.001.565l.003.033c.062.536.062.78.062.91l.001.065c0 .005.003.013.005.019.062.147.202.259.373.344.105.053.216-.048.193-.164-.17-.839-.16-1.817.16-2.422a19.719 19.719 0 0 1 .485-.839l.002-.002.056-.093.045-.076a32.681 32.681 0 0 1 .261-.426l.036-.058c.004-.008.01-.015.013-.023l.006-.009a.342.342 0 0 1 .017-.026l.021-.035V15.1l.005-.005.001-.003c.064-.092.127-.18.188-.263.083-.113-.013-.26-.143-.207-.311.127-.524.29-.567.323a.38.38 0 0 1-.536-.06.383.383 0 0 1 .062-.537c.196-.154 1.236-.913 2.482-.557.897.256 1.368.941 1.545 1.199.143.21.58.845.566 1.732-.01.677-.292 1.164-.806 2.048z" fill="#fff"/><path d="M19.101 14.128c-.064.155-.14.346-.222.554-.191.48-.408 1.026-.513 1.223-.18.342-.32.557-.432.731-.128.2-.23.357-.307.577-.135.385-.16.815-.071 1.283-.239-.026-.63-.19-.674-.398-.033-.154.063-.323.345-.787.057-.093.118-.193.184-.305.485-.817.681-1.425.826-1.87.155-.483.229-.685.477-.855.11-.077.246-.126.387-.153zM18.627 31.259a7.2 7.2 0 0 1-.798 1.285c-.17-.459-.465-1.51-.387-2.357a1.25 1.25 0 0 1 .008-.072c.032-.261.101-.501.225-.693.081-.127.307-.204.563-.204.19 0 .395.041.572.137h.002c.095.05.224.153.237.452.02.403-.172.945-.422 1.452z" fill="#fff"/><path d="M33.112 25.207c.02.017.034.041.022.065-.08.159-.174.27-.286.401-.134.16-.289.343-.432.627-.205.403-.27.77-.305 1.71-.04 1.105.003 1.726.035 2.178.03.438.05.701-.029 1.127-.157.86-.525 1.43-.99 2.15-.583.9-1.186 1.832-2.184 2.13-.093.028-.096.028-.356.029-.227 0-.604 0-1.317.027-1.304.047-1.958.07-2.518.178-.587.114-.893.239-1.19.359-.268.108-.522.211-1.007.31-.29.06-.722.123-2.196.125-1.532.003-2.457.004-3.678-.135-1.676-.192-2.517-.287-3.075-.586-1.318-.703-1.874-1.966-2.794-4.06l-.005-.011c-.012-.026.02-.052.045-.037a.73.73 0 0 0 .262.098.779.779 0 0 0 .26 0 .208.208 0 0 0 .044-.012l.008-.004a.03.03 0 0 1 .041.015.676.676 0 0 0 .308.388c.157.081.335.088.509.086.179-.003.36-.013.538-.034.095-.01.192.036.228.124.163.397.366.684.67.726a.47.47 0 0 0 .066.005c.068 0 .174-.02.324-.123.115-.079.294-.032.377.08.076.104.167.178.245.24.313.322 1.075.476 1.715.476.35 0 .662-.045.846-.135.264-.128.264-.324.25-.404a12.711 12.711 0 0 1-.06-.423c-.001-.017.024-.023.031-.008.038.084.085.188.21.208.013.001.029.004.046.004.178 0 .456.058.503.23.025.088.06.17.106.244.107.17.325.371.757.378h.034c.496 0 .879-.162 1.137-.483.017-.02.033-.041.048-.063.093-.13.369-.136.487-.028a.7.7 0 0 0 .578.181.778.778 0 0 0 .557-.342c.094-.13.163-.292.213-.466.015-.051.085-.067.125-.03a.67.67 0 0 0 .466.18.845.845 0 0 0 .173-.019c.43-.086.645-.443.747-.846.003-.013.023-.017.032-.006.109.133.31.286.661.286h.055a.593.593 0 0 0 .455-.236c.137-.18.191-.445.204-.712a.203.203 0 0 1 .125-.177c.37-.154.818-.487.95-.714a.935.935 0 0 0 .013-.025.214.214 0 0 1 .146-.116c.287-.055.412-.109.526-.158a1.24 1.24 0 0 1 .375-.105c1.657-.253 1.98-.309 2.339-.548.536-.358.563-.85.59-1.326.022-.403.048-.86.36-1.396.114-.196.245-.44.385-.699.244-.452.585-1.086.829-1.418a.166.166 0 0 1 .2-.052c.573.244 1.06.487 1.166.572z" fill="#fff"/><path d="M17.022 30.137a11.121 11.121 0 0 0-.013 2.335c.026.281.063.573.109.87-.079.042-.313.102-.73.095-.6-.012-1.183-.162-1.358-.352l-.027-.024c-.146-.117-.241-.194-.255-.404-.004-.07.026-.14.09-.24.036-.055.084-.119.142-.198.1-.135.226-.304.353-.521a10.935 10.935 0 0 1 .743-1.137c.107-.146.232-.32.42-.606.14-.213.256-.38.352-.51a3.19 3.19 0 0 1 .332-.4 6.25 6.25 0 0 1-.054.365c-.032.197-.072.437-.104.727zM16.748 21.231l-.012.015c-.078.108-.167.23-.273.468-.286.635-.291.994-.296 1.283-.003.152-.004.272-.046.413-.028.093-.075.2-.128.322-.169.386-.389.891-.29 1.572-.136-.066-.345-.216-.374-.296a3.452 3.452 0 0 0-.024-.11c-.047-.212-.078-.35.057-.661.355-.819.398-1.013.426-1.236.006-.048.012-.086.026-.148.075-.323.114-.599.146-.82.048-.338.08-.56.194-.729.041-.062.158-.094.326-.094.066 0 .141.005.223.017l.019.001.026.003zM16.28 29.305a2.197 2.197 0 0 0-.125-.578l-.031-.066-.042-.069-.001-.001-.001-.002-.023-.025a.51.51 0 0 0-.066-.056l-.045-.024a.155.155 0 0 0-.025-.011l-.007-.003-.005-.003a.013.013 0 0 0-.005-.001h-.001l-.01-.005c-.114-.041-.23-.087-.35-.105h-.008c-.014 0-.041-.004-.043-.004h-.05l-.023.001h-.016c-.001.002-.003.002-.004.002h-.001c-.028.008-.056.015-.083.024-.012.006-.025.011-.036.019l-.03.018-.004.002-.002.002-.039.038a.65.65 0 0 0-.029.034v.001c-.002 0-.002.002-.003.002 0 .001 0 .002-.002.002l-.008.014a26.078 26.078 0 0 1-.477.716 264.591 264.591 0 0 0-.484.704l-.029.042.204.04c.154.028.307.055.462.076.32.044.647.064.972.052.015 0 .03 0 .045.003.079-.111.17-.244.288-.422.065-.1.127-.192.185-.277a.327.327 0 0 1-.049-.14zM15.138 30.63c-.028.247-.304.886-.736 1.495-.361.51-.58.633-.624.637-.174-.024-.346-.455-.483-.883a18.44 18.44 0 0 1-.146-.491c-.093-.326-.11-.762-.094-1.036.365.201 1.004.256 1.903.26h.003l.177.017zM14.499 28.594v.002l-.012.017a137.993 137.993 0 0 1-.706 1.03c-.043.063-.102.133-.152.209-.128-.03-.256-.06-.383-.095a3.253 3.253 0 0 1-.363-.127.257.257 0 0 0-.069-.086s0-.003.002-.004l.11-.223c.069-.136.138-.272.215-.403.138-.238.303-.479.535-.633l.037-.024a.688.688 0 0 1 .29-.11c.013-.001.091 0 .128.003h.015l.016.005c.027.009.055.014.082.024l.027.013c.023.015.048.027.07.045-.036-.027.05.061.05.055.068.095.089.174.108.302zM13.277 27.95c-.286.236-.494.548-.667.874-.098.18-.185.365-.277.548a.857.857 0 0 1-.029.055 2.815 2.815 0 0 1-.522-.171 3.484 3.484 0 0 1-.118-.06c.086-.161.188-.317.285-.468a6.68 6.68 0 0 1 .447-.62c.06-.076.125-.158.21-.207.087-.052.192-.04.292-.034.106.007.22.01.32.05a.37.37 0 0 1 .059.034zM12.823 31.784a.206.206 0 0 0-.037.04l-.026.007a5.704 5.704 0 0 1-.61.025c-.075-.002-.143-.014-.174-.062-.05-.075-.064-.205-.082-.305a4.955 4.955 0 0 1-.037-1.49c.255.092.517.163.786.207-.058.445.041 1.098.099 1.298l.081.28zM12.003 27.788a7.647 7.647 0 0 0-.616.878c-.074.124-.158.252-.22.385a.964.964 0 0 1-.256-.113 2.507 2.507 0 0 1-.191-.133l-.086-.068c-.006-.005-.011-.01-.018-.013.02-.059.058-.124.08-.168a4.216 4.216 0 0 1 .51-.838c.049-.061.096-.14.172-.163a.54.54 0 0 1 .219-.001.683.683 0 0 1 .406.234zM10.264 28.99c.003-.011.019-.013.026-.003.06.085.142.158.23.227.04.03.08.06.12.088.004.004.006.01.005.016a5.123 5.123 0 0 0-.156 1.204c0 .018-.027.021-.031.004-.114-.472-.27-1.258-.194-1.535zM11.369 29.833a5.703 5.703 0 0 0-.053 1.015 5.79 5.79 0 0 0 .053.559.34.34 0 0 0-.125-.004c.009-.003-.013-.001-.023-.001h-.002l-.02-.002c-.046-.012-.05-.017-.088-.04a.465.465 0 0 1-.134-.148c-.09-.157-.11-.348-.118-.525a4.609 4.609 0 0 1 .082-1.04l.185.078c.08.035.163.07.244.107h-.001z" fill="#fff"/><path d="M20.282 47.47c-1.538 0-2.997-.097-4.221-.193l-.338-.026-.337-.047c-.147-.02-.347-.042-.54-.063-1.178-.128-3.368-.367-5.786-1.502l-.375-.177-.35-.196c-4.647-2.605-6.386-6.524-7.322-8.632l-.2-.447C.34 35.22.04 34.349-.212 33.55l-.057-.179-.046-.173c-.675-2.397-.845-4.467-.536-6.514.31-2.055 1.07-3.925 2.393-5.882l.686-1.12c.14-.226.237-.475.29-.735.523-2.592 1.71-4.427 2.293-5.304.16-1.061.425-2.104.79-3.113l.054-.153.058-.15c.01-.026.022-.063.044-.13.262-.79.876-2.635 2.448-4.574l.591-.715.602-.543a13.944 13.944 0 0 1 5.387-3.042 15.215 15.215 0 0 1 3.433-.607l.112-.008L18.5.6a12.68 12.68 0 0 1 2.764.168c.447.076.906.023 1.325-.151a15.143 15.143 0 0 1 3.878-1.041c.11-.016.208-.028.284-.038a33.028 33.028 0 0 1 3.902-.252c2.285 0 4.253.296 6.013.905l.15.052.147.055c3.886 1.469 5.864 3.52 7.287 5.33l.067.086.196.174a13.548 13.548 0 0 1 3.226 3.63l.266.436.224.458c1.9 3.88 1.296 7.462 1.069 8.808l-.013.072a15.422 15.422 0 0 1-.777 2.91c-.13.909-.344 1.803-.64 2.672-.504 1.545-1.248 3-2.206 4.314a15.41 15.41 0 0 1-1.858 2.17c-.242.235-.4.543-.446.877-.03.205-.064.408-.102.61-.557 2.989-1.865 5.069-2.398 5.897l-1.613 2.317c-1.943 2.42-4.248 4.017-7.037 4.874l-.676.212-.73.127c-.835.148-1.681.221-2.53.22-.116 0-.234 0-.365-.004h-.037l-.144.009-.154.005h-.005c-.323.011-.643.064-.953.157-1.802.552-3.84.81-6.332.81z" stroke="url(#paint1_linear_7227_1751)" stroke-width=".37" stroke-miterlimit="10"/><path d="M20.282 45.877c-1.474 0-2.887-.094-4.076-.188l-.281-.022-.282-.039c-.175-.024-.39-.047-.597-.07-1.143-.124-3.056-.332-5.19-1.334l-.314-.147-.291-.164c-4.1-2.3-5.617-5.714-6.524-7.755-.065-.145-.144-.324-.218-.486-.423-.867-.7-1.667-.934-2.403l-.046-.149-.041-.144C.888 30.844.733 29.025 1 27.25c.268-1.776.942-3.416 2.118-5.145l.878-1.435c.156-.254.262-.535.315-.828.437-2.438 1.589-4.166 2.112-4.952l.066-.1.025-.04a1.71 1.71 0 0 0 .03-.071l.094-.3c.138-1 .381-1.982.725-2.931l.048-.128.05-.128c.016-.04.03-.085.075-.217.249-.751.768-2.31 2.125-3.983l.492-.596.5-.452a12.092 12.092 0 0 1 4.671-2.637c.985-.293 2-.47 3.026-.532l.094-.007.14-.007c.172-.008.343-.012.51-.012.735 0 1.47-.213 2.19-.065a2.727 2.727 0 0 0 1.654-.176c.97-.428 2.277-.599 3.773-.785.107-.016.2-.027.272-.036.197-.025.511-.062.892-.098a29.81 29.81 0 0 1 2.775-.141c2.073 0 3.84.262 5.4.802l.125.043.122.047c3.444 1.302 5.147 3.044 6.473 4.733l.177.223.032.029.251.224.034.034a11.632 11.632 0 0 1 2.868 3.195l.22.364.188.381c1.635 3.337 1.123 6.374.904 7.67l-.012.07a13.606 13.606 0 0 1-.757 2.754 12.96 12.96 0 0 1-.588 2.542 13.712 13.712 0 0 1-1.95 3.817 13.322 13.322 0 0 1-1.976 2.23c-.343.308-.56.733-.608 1.191-.036.338-.084.667-.145.99-.492 2.638-1.64 4.462-2.166 5.28l-1.306 1.9c-1.737 2.23-3.795 3.69-6.287 4.458l-.564.176-.61.106c-.728.129-1.466.193-2.206.191-.107 0-.217 0-.335-.003h-.104s-.023 0-.07.004l-.13.008-.39.014a3.767 3.767 0 0 0-1.01.176c-1.66.53-3.577.78-5.948.78z" stroke="url(#paint2_linear_7227_1751)" stroke-width=".37" stroke-miterlimit="10"/><path d="M20.282 44c-1.408 0-2.778-.091-3.93-.18l-.225-.018-.224-.031c-.204-.028-.432-.053-.654-.078-1.093-.118-2.743-.298-4.594-1.166l-.252-.118-.234-.131c-3.556-1.994-4.862-4.934-5.726-6.88l-.235-.529c-.375-.763-.626-1.492-.84-2.166l-.037-.118-.033-.116c-.525-1.866-.664-3.435-.438-4.937.23-1.523.828-2.942 1.88-4.467l.126-.181.136-.174.248-.322.529-.97c.173-.316.29-.66.345-1.017.337-2.175 1.384-3.746 1.868-4.47l.002-.004.082-.123.103-.165c.04-.088.094-.205.14-.328.048-.147.104-.329.164-.517a12.31 12.31 0 0 1 .655-2.713l.036-.102.04-.104c.034-.085.059-.16.108-.307.231-.695.66-1.985 1.801-3.393l.395-.477.398-.36a10.23 10.23 0 0 1 3.955-2.232 11.509 11.509 0 0 1 2.619-.458l.075-.005.114-.005a9.075 9.075 0 0 1 2.684.278c.64.161 1.316.09 1.908-.202.947-.46 2.213-.947 3.696-1.13l.258-.034a27.976 27.976 0 0 1 3.432-.224c1.861 0 3.426.228 4.787.699l.1.035.098.036c3.164 1.196 4.58 2.762 5.66 4.136.237.303.273.35.437.495l.201.179.079.08c.52.403 1.585 1.234 2.516 2.77l.177.29.15.305c1.37 2.795.943 5.319.738 6.533l-.011.067c-.146.889-.394 1.76-.739 2.592l-.01.077a11.23 11.23 0 0 1-.525 2.341c-.387 1.19-.96 2.31-1.696 3.321a11.18 11.18 0 0 1-2.2 2.345 1.795 1.795 0 0 0-.676 1.32c-.023.5-.08 1-.173 1.494-.425 2.287-1.424 3.873-1.934 4.665l-1.013 1.497c-1.526 2.038-3.336 3.357-5.523 4.028l-.45.14-.487.085c-.622.11-1.254.165-1.886.164-.098 0-.198 0-.306-.003h-.132c-.019 0-.075 0-.188.007l-.104.007-.1.003-.521.02a3.798 3.798 0 0 0-1.075.193c-1.52.512-3.313.753-5.569.753z" stroke="url(#paint3_linear_7227_1751)" stroke-width=".37" stroke-miterlimit="10"/><path d="M20.282 42.123c-1.346 0-2.669-.09-3.785-.176l-.169-.013-.168-.023c-.23-.032-.473-.059-.708-.084-1.028-.112-2.433-.265-4-1l-.188-.09-.176-.097c-3.01-1.69-4.119-4.182-4.928-6.004l-.257-.575c-.344-.691-.564-1.356-.746-1.924l-.028-.089-.024-.086c-.88-3.13-.55-5.325 1.18-7.83l.094-.135.102-.13c.115-.148.222-.289.328-.423.16-.21.322-.423.497-.642.11-.136.198-.289.262-.451l.198-.507c.085-.216.137-.442.157-.673.172-2.007 1.149-3.47 1.632-4.196l.003-.004c.035-.053.089-.133.106-.162l.114-.18.034-.047a8.56 8.56 0 0 0 .282-.647c.056-.184.144-.467.23-.724 0-.01 0-.02.004-.032a10.5 10.5 0 0 1 .578-2.462l.027-.077.03-.078c.053-.133.09-.245.141-.4.207-.62.552-1.659 1.478-2.8l.296-.359.297-.268c2.186-1.984 4.632-2.155 5.45-2.21l.056-.004.087-.004a7.32 7.32 0 0 1 3.156.57 1.16 1.16 0 0 0 .99-.047h.005c.832-.482 2.354-1.356 4.296-1.59.093-.014.18-.024.243-.033a26.15 26.15 0 0 1 3.197-.207c1.649 0 3.014.195 4.173.596l.075.026.073.028c2.712 1.024 3.88 2.31 4.846 3.539.26.328.375.48.666.737l.15.134.122.125.094.074c.46.356 1.314 1.018 2.072 2.266l.133.218.112.228c1.103 2.253.758 4.296.573 5.395l-.01.065a9.983 9.983 0 0 1-.678 2.321l-.026.064-.013.063a3.43 3.43 0 0 0-.032.213l-.012.086a9.35 9.35 0 0 1-.441 1.978 10.08 10.08 0 0 1-1.442 2.824c-.62.88-1.314 1.596-2.093 2.163a2.735 2.735 0 0 0-1.122 2.17 9.29 9.29 0 0 1-.155 1.575c-.36 1.938-1.186 3.25-1.7 4.05l-.737 1.103c-1.318 1.841-2.873 3.017-4.744 3.59l-.1.031c-.158.05-.32.09-.484.118l-.119.02a8.826 8.826 0 0 1-1.563.136c-.09 0-.18 0-.277-.002H27.834c-.037 0-.134 0-.308.01l-.078.005-.076.003c-.25.01-.563.02-.841.032a3.76 3.76 0 0 0-1.117.22c-1.348.48-2.996.709-5.132.709z" stroke="url(#paint4_linear_7227_1751)" stroke-width=".37" stroke-miterlimit="10"/><path d="M20.282 40.245c-1.282 0-2.56-.086-3.64-.17l-.112-.008-.113-.016a25.215 25.215 0 0 0-.764-.09c-.944-.103-2.12-.231-3.405-.834l-.125-.06-.117-.065c-2.467-1.383-3.389-3.46-4.13-5.128-.091-.205-.188-.417-.282-.624-.29-.58-.487-1.173-.648-1.681l-.02-.06-.016-.057c-.726-2.582-.486-4.22.918-6.254l.063-.09.068-.087c.122-.157.234-.303.342-.445.366-.48.719-.943 1.246-1.506a.732.732 0 0 0 .195-.452l.04-.607-.015-.2.007-.206c.055-1.665.892-2.918 1.34-3.592.051-.078.105-.158.137-.209l.075-.12.07-.094c.084-.136.303-.602.47-1.049.057-.188.168-.546.265-.83a1.3 1.3 0 0 0 .055-.307 8.684 8.684 0 0 1 .482-2.057l.019-.052.02-.052c.07-.178.118-.322.174-.49.176-.533.443-1.335 1.154-2.211l.198-.24.196-.177c1.531-1.39 3.2-1.654 4.326-1.73l.038-.003h.058c.082-.003.163-.005.243-.005.961 0 2.112.461 2.716.74a1.212 1.212 0 0 0 .925.033 8.946 8.946 0 0 0 1.097-.482c.768-.446 2.043-1.183 3.626-1.367l.23-.032c.16-.02.41-.046.722-.079.54-.052 1.366-.113 2.24-.113 1.436 0 2.6.161 3.56.493l.049.017.047.019c2.265.855 3.166 1.838 4.033 2.942.281.356.48.61.894.98l.1.09.094.094c.084.083.175.16.272.229.388.3 1.04.805 1.618 1.756l.088.146.075.152c.837 1.71.568 3.303.407 4.255l-.01.065a8.125 8.125 0 0 1-.559 1.91v.006a1.858 1.858 0 0 0-.15.498c-.022.12-.036.216-.05.323l-.01.088a7.59 7.59 0 0 1-.359 1.613 8.157 8.157 0 0 1-1.187 2.328c-.765 1.092-1.65 1.86-2.715 2.347a1.54 1.54 0 0 0-.9 1.337 3.022 3.022 0 0 0-.004.265c.052.821.112 1.752-.071 2.71-.294 1.585-.965 2.65-1.47 3.433 0 0-2.314 3.221-4.42 3.865l-.227.07-.244.043c-.41.073-.825.109-1.242.108-.079 0-.16 0-.246-.003h-.193c-.082 0-.217 0-.426.015l-.052.003h-.05c-.806.03-1.568.056-1.78.098a1.3 1.3 0 0 0-.328.096c-1.192.523-2.756.767-4.912.767z" stroke="url(#paint5_linear_7227_1751)" stroke-width=".37" stroke-miterlimit="10"/><path d="M20.282 38.369c-1.218 0-2.45-.084-3.494-.165l-.056-.004-.056-.008a28.37 28.37 0 0 0-.82-.098c-.89-.096-1.809-.196-2.81-.666l-.063-.03-.059-.033c-1.924-1.079-2.639-2.691-3.332-4.252-.099-.222-.2-.45-.306-.678-.234-.464-.4-.962-.55-1.433l-.01-.029-.008-.03c-.577-2.054-.43-3.104.657-4.677l.032-.047.034-.044c.127-.163.243-.315.355-.462.523-.685.975-1.278 1.988-2.213l.002-.003a.53.53 0 0 0 .134-.563l-.182-.52a3.774 3.774 0 0 1-.077-.499v-.005l-.011-.141.003-.103c.037-1.13.632-2.022 1.025-2.612.062-.094.12-.18.166-.253l.038-.06.042-.057c.209-.282.548-1.061.726-1.544.047-.149.167-.549.268-.838.07-.218.117-.443.137-.671.059-.565.189-1.12.386-1.654l.01-.026.01-.026c.086-.223.147-.406.206-.583.158-.473.336-1.009.83-1.62l.1-.12.097-.087c1.088-.989 2.28-1.188 3.2-1.249h.05c.052 0 .103-.003.155-.003.895 0 1.583.367 2.038.61l.106.056.016.009c.125.067.235.126.337.177.282.142.607.175.913.094.624-.168 1.596-.537 2.25-.896l.014-.008c.688-.4 1.724-1 2.939-1.133a18.412 18.412 0 0 1 .881-.103c.5-.047 1.262-.105 2.061-.105 1.225 0 2.188.128 2.947.39l.025.009.025.009c1.817.687 2.48 1.405 3.218 2.347.3.382.584.744 1.123 1.223l.05.047.047.047c.145.146.302.282.469.404.323.25.765.593 1.163 1.247l.044.073.038.076c.57 1.167.38 2.294.242 3.117l-.011.064a6.21 6.21 0 0 1-.443 1.508c-.123.277-.21.569-.26.868-.032.173-.052.31-.068.435l-.011.089a5.787 5.787 0 0 1-.275 1.25 6.28 6.28 0 0 1-.932 1.83c-.69.99-1.455 1.601-2.47 1.924a2.22 2.22 0 0 0-1.187.899l-.08.124-.09.102c-.258.293-.185 1.432-.14 2.111.046.746.097 1.517-.043 2.244-.229 1.24-.76 2.079-1.236 2.816 0 0-1.768 2.55-3.363 3.034l-.116.037-.122.02a5.09 5.09 0 0 1-.92.08h-.439c-.109 0-.282 0-.545.019h-.051c-1.07.039-1.715.062-2.072.131-.24.043-.474.113-.698.209-.956.423-2.29.622-4.191.622z" stroke="url(#paint6_linear_7227_1751)" stroke-width=".37" stroke-miterlimit="10"/></g><defs><radialGradient id="paint0_radial_7227_1751" cx="0" cy="0" r="1" gradientUnits="userSpaceOnUse" gradientTransform="rotate(90 -1.1 25.1) scale(23.593)"><stop offset=".167" stop-color="#073183"/><stop offset="1" stop-color="#0054F9"/></radialGradient><linearGradient id="paint1_linear_7227_1751" x1="-1" y1="-.714" x2="47.127" y2="49.798" gradientUnits="userSpaceOnUse"><stop offset=".206" stop-color="#89D0FF"/><stop offset=".398" stop-color="#EBBF9A"/><stop offset=".602" stop-color="#A280EB"/><stop offset=".841" stop-color="#A281FF"/></linearGradient><linearGradient id="paint2_linear_7227_1751" x1="-1" y1="-.714" x2="47.127" y2="49.798" gradientUnits="userSpaceOnUse"><stop offset=".206" stop-color="#89D0FF"/><stop offset=".398" stop-color="#EBBF9A"/><stop offset=".602" stop-color="#A280EB"/><stop offset=".841" stop-color="#A281FF"/></linearGradient><linearGradient id="paint3_linear_7227_1751" x1="-1" y1="-.714" x2="47.127" y2="49.798" gradientUnits="userSpaceOnUse"><stop offset=".206" stop-color="#89D0FF"/><stop offset=".398" stop-color="#EBBF9A"/><stop offset=".602" stop-color="#A280EB"/><stop offset=".841" stop-color="#A281FF"/></linearGradient><linearGradient id="paint4_linear_7227_1751" x1="-1" y1="-.714" x2="47.127" y2="49.798" gradientUnits="userSpaceOnUse"><stop offset=".206" stop-color="#89D0FF"/><stop offset=".398" stop-color="#EBBF9A"/><stop offset=".602" stop-color="#A280EB"/><stop offset=".841" stop-color="#A281FF"/></linearGradient><linearGradient id="paint5_linear_7227_1751" x1="-1" y1="-.714" x2="47.127" y2="49.798" gradientUnits="userSpaceOnUse"><stop offset=".206" stop-color="#89D0FF"/><stop offset=".398" stop-color="#EBBF9A"/><stop offset=".602" stop-color="#A280EB"/><stop offset=".841" stop-color="#A281FF"/></linearGradient><linearGradient id="paint6_linear_7227_1751" x1="-1" y1="-.714" x2="47.127" y2="49.798" gradientUnits="userSpaceOnUse"><stop offset=".206" stop-color="#89D0FF"/><stop offset=".398" stop-color="#EBBF9A"/><stop offset=".602" stop-color="#A280EB"/><stop offset=".841" stop-color="#A281FF"/></linearGradient></defs></svg>