<svg xmlns="http://www.w3.org/2000/svg" width="48" height="48" viewBox="0 0 48 48" fill="none"><path d="M44.376 29.068c-2.802 11.244-14.19 18.109-25.454 15.305C7.68 41.563.825 30.175 3.627 18.932 6.429 7.689 17.81.823 29.046 3.627c11.27 2.77 18.125 14.191 15.33 25.441z" fill="#F7931A"/><path d="M34.102 21.198c.383-2.844-1.778-4.33-4.74-5.333l.92-3.848-2.343-.565-.892 3.764a59.918 59.918 0 0 0-1.869-.418l.893-3.764-2.37-.565-.921 3.848c-.502-.118-1.011-.209-1.513-.328l-3.228-.773-.592 2.489s1.75.383 1.687.418c.948.237 1.13.857 1.094 1.331L19.19 21.84c.063.027.147.027.238.09-.091-.028-.147-.028-.238-.056l-1.422 6.136c-.118.292-.418.71-1.066.564.027.028-1.722-.418-1.722-.418l-1.109 2.698 3.054.711c.564.146 1.13.265 1.659.418l-.92 3.884 2.342.564.92-3.848c.656.174 1.276.328 1.869.474l-.92 3.82 2.342.565.92-3.883c4.002.711 6.993.383 8.206-3.263.976-2.907-.09-4.566-2.224-5.66 1.562-.356 2.691-1.367 2.984-3.438zm-5.27 7.55c-.684 2.908-5.599 1.395-7.175 1.011l1.214-5.159c1.603.39 6.671 1.102 5.96 4.148zm.648-7.55c-.62 2.636-4.713 1.367-6.045 1.039l1.13-4.678c1.303.32 5.57.885 4.915 3.64z" fill="#fff"/></svg>