<svg width="20" height="20" viewBox="0 0 20 20" fill="none" xmlns="http://www.w3.org/2000/svg"><path d="M10 5.391c2.3 0 4.167 1.867 4.167 4.167 0 .425-.083.833-.2 1.217l2.55 2.55a9.834 9.834 0 0 0 2.65-3.775c-1.442-3.65-5-6.242-9.167-6.242a9.875 9.875 0 0 0-3.033.475l1.808 1.808c.392-.116.8-.2 1.225-.2zM2.258 2.608a.83.83 0 0 0 0 1.175L3.9 5.425A9.91 9.91 0 0 0 .833 9.558c1.442 3.658 5 6.25 9.167 6.25 1.267 0 2.475-.25 3.592-.683l2.266 2.266a.83.83 0 1 0 1.175-1.175L3.443 2.608a.84.84 0 0 0-1.183 0zM10 13.725a4.168 4.168 0 0 1-4.167-4.167c0-.642.15-1.25.409-1.783L7.55 9.083c-.025.15-.05.308-.05.475 0 1.383 1.117 2.5 2.5 2.5.167 0 .317-.025.475-.058l1.309 1.308a4.01 4.01 0 0 1-1.784.417zm2.475-4.442a2.474 2.474 0 0 0-2.2-2.2l2.2 2.2z" fill="currentColor"/></svg>