<svg width="16" height="16" viewBox="0 0 16 16" fill="none" xmlns="http://www.w3.org/2000/svg"><g clip-path="url(#clip0_5679_1933)"><path d="M7.989.002a8.137 8.137 0 0 0-5.673 2.435A7.866 7.866 0 0 0 .001 8.139 7.852 7.852 0 0 0 7.867 16h.143A8.073 8.073 0 0 0 16 7.862 7.844 7.844 0 0 0 7.989.002zM7 11.029a.983.983 0 0 1 .966-1.02h.018a1.018 1.018 0 0 1 1.016.98.983.983 0 0 1-.966 1.02h-.018A1.02 1.02 0 0 1 7 11.029zm.334-2.695v-4a.667.667 0 0 1 1.333 0v4a.667.667 0 1 1-1.333 0z" fill="#EF4444"/></g><defs><clipPath id="clip0_5679_1933"><path fill="#fff" d="M0 0h16v16H0z"/></clipPath></defs></svg>