<svg width="142" height="142" viewBox="0 0 142 142" fill="none" xmlns="http://www.w3.org/2000/svg"><g clip-path="url(#clip0_14574_16099)"><path fill="url(#paint0_linear_14574_16099)" d="M0 0h142v142H0z"/><g filter="url(#filter0_b_14574_16099)"><rect x="20" y="20" width="102" height="102" rx="7" fill="url(#paint1_linear_14574_16099)"/><rect x="19.827" y="19.827" width="102.346" height="102.346" rx="7.173" stroke="url(#paint2_linear_14574_16099)" stroke-width=".346"/></g><g filter="url(#filter1_d_14574_16099)" shape-rendering="crispEdges"><path d="M39.78 83.034a1 1 0 0 1-.965-1.31l6.275-19.311a1 1 0 0 1 .938-.691l4.084-.054a1 1 0 0 1 .94.624l4.291 10.583c.242.596-.43 1.147-.968.793-.539-.356-.293-1.194.352-1.202l.071-.001a.677.677 0 0 0 .635-.468l3.172-9.761a1 1 0 0 1 .938-.691l4.474-.059a1 1 0 0 1 .965 1.31l-6.275 19.311a1 1 0 0 1-.938.691l-4.018.053a1 1 0 0 1-.942-.63l-4.296-10.757c-.239-.598.436-1.146.972-.79.538.356.292 1.194-.354 1.203h-.073a.68.68 0 0 0-.637.47l-3.23 9.937a1 1 0 0 1-.937.691l-4.475.059z" fill="url(#paint3_linear_14574_16099)"/><path d="M62.988 82.73a1 1 0 0 1-.965-1.31l6.275-19.311a1 1 0 0 1 .938-.691l13.64-.179a1 1 0 0 1 .964 1.31l-.96 2.955a1 1 0 0 1-.938.69l-7.732.102a1 1 0 0 0-.938.691l-.682 2.099a1 1 0 0 0 .964 1.309l5.505-.072a1 1 0 0 1 .964 1.309l-.874 2.69a1 1 0 0 1-.938.69l-6.862.09a1 1 0 0 0-.939.691L68.4 81.98a1 1 0 0 1-.938.691l-4.474.059z" fill="url(#paint4_linear_14574_16099)"/><path d="M86.118 82.427a1 1 0 0 1-.964-1.309l4.452-13.702a1 1 0 0 0-.964-1.309l-3.112.041a1 1 0 0 1-.965-1.309l.96-2.956a1 1 0 0 1 .939-.69l16.281-.214a1 1 0 0 1 .964 1.31l-.961 2.955a.999.999 0 0 1-.937.69l-4.47.06a1 1 0 0 0-.938.69L91.53 81.677a1 1 0 0 1-.938.691l-4.475.059z" fill="url(#paint5_linear_14574_16099)"/></g><g filter="url(#filter2_b_14574_16099)"><path d="M38.395 81.073a1 1 0 0 1-.964-1.31l6.275-19.311a1 1 0 0 1 .938-.691l4.084-.054a1 1 0 0 1 .94.624l4.292 10.583c.242.596-.431 1.147-.969.793-.538-.356-.293-1.194.353-1.202l.07-.001a.677.677 0 0 0 .635-.468l3.172-9.761a1 1 0 0 1 .938-.691l4.475-.059a1 1 0 0 1 .964 1.31l-6.275 19.311a1 1 0 0 1-.938.691l-4.018.053a1 1 0 0 1-.942-.63L47.13 69.504c-.239-.598.436-1.146.972-.79.539.356.292 1.194-.354 1.203h-.073a.68.68 0 0 0-.637.47l-3.229 9.937a1 1 0 0 1-.938.691l-4.475.059z" fill="url(#paint6_linear_14574_16099)"/><path d="M61.604 80.769a1 1 0 0 1-.964-1.31l6.275-19.311a1 1 0 0 1 .938-.691l13.64-.179a1 1 0 0 1 .964 1.31l-.96 2.955a1 1 0 0 1-.939.691l-7.732.101a1 1 0 0 0-.938.691l-.682 2.099a1 1 0 0 0 .964 1.309l5.505-.072a1 1 0 0 1 .964 1.309l-.874 2.69a1 1 0 0 1-.938.69l-6.862.09a1 1 0 0 0-.938.691l-2.01 6.187a1 1 0 0 1-.939.691l-4.474.059z" fill="url(#paint7_linear_14574_16099)"/><path d="M84.734 80.466a1 1 0 0 1-.964-1.309l4.452-13.702a1 1 0 0 0-.964-1.309l-3.112.041a1 1 0 0 1-.964-1.309l.96-2.956a1 1 0 0 1 .938-.69l16.281-.214a1 1 0 0 1 .964 1.31l-.96 2.955c-.133.407-.51.685-.938.69l-4.47.06a1 1 0 0 0-.938.69l-4.872 14.994a1 1 0 0 1-.938.69l-4.475.06z" fill="url(#paint8_linear_14574_16099)"/><path d="M47.201 70.44a.505.505 0 0 1 .064-.13l4 10.015c.18.45.619.744 1.104.738l4.018-.053a1.173 1.173 0 0 0 1.1-.81l6.275-19.312a1.173 1.173 0 0 0-1.13-1.536l-4.475.059a1.173 1.173 0 0 0-1.1.81l-3.172 9.762a.503.503 0 0 1-.064.13l-3.993-9.847a1.173 1.173 0 0 0-1.102-.732l-4.084.054a1.173 1.173 0 0 0-1.1.81L37.267 79.71a1.173 1.173 0 0 0 1.13 1.536l4.475-.059a1.173 1.173 0 0 0 1.1-.81l3.23-9.938zm13.274 8.966a1.173 1.173 0 0 0 1.131 1.536l4.475-.059a1.173 1.173 0 0 0 1.1-.81l2.01-6.187a.827.827 0 0 1 .776-.572l6.862-.09a1.173 1.173 0 0 0 1.1-.81l.874-2.69a1.173 1.173 0 0 0-1.13-1.535l-5.505.072a.827.827 0 0 1-.797-1.083l.681-2.099a.827.827 0 0 1 .776-.57l7.733-.102a1.173 1.173 0 0 0 1.1-.81l.96-2.956a1.173 1.173 0 0 0-1.13-1.535l-13.64.178a1.173 1.173 0 0 0-1.1.81l-6.276 19.312zm23.13-.302a1.173 1.173 0 0 0 1.132 1.535l4.474-.059a1.173 1.173 0 0 0 1.1-.81l4.872-14.993a.827.827 0 0 1 .776-.572l4.47-.058a1.173 1.173 0 0 0 1.1-.81l.961-2.956a1.173 1.173 0 0 0-1.131-1.536l-16.281.214a1.173 1.173 0 0 0-1.1.81l-.96 2.956a1.173 1.173 0 0 0 1.13 1.535l3.112-.04a.827.827 0 0 1 .798 1.082l-4.452 13.702z" stroke="url(#paint9_linear_14574_16099)" stroke-width=".346"/></g></g><defs><filter id="filter0_b_14574_16099" x="17.579" y="17.579" width="106.841" height="106.841" filterUnits="userSpaceOnUse" color-interpolation-filters="sRGB"><feFlood flood-opacity="0" result="BackgroundImageFix"/><feGaussianBlur in="BackgroundImageFix" stdDeviation="1.038"/><feComposite in2="SourceAlpha" operator="in" result="effect1_backgroundBlur_14574_16099"/><feBlend in="SourceGraphic" in2="effect1_backgroundBlur_14574_16099" result="shape"/></filter><filter id="filter1_d_14574_16099" x="37.382" y="59.595" width="70.527" height="27.588" filterUnits="userSpaceOnUse" color-interpolation-filters="sRGB"><feFlood flood-opacity="0" result="BackgroundImageFix"/><feColorMatrix in="SourceAlpha" values="0 0 0 0 0 0 0 0 0 0 0 0 0 0 0 0 0 0 127 0" result="hardAlpha"/><feOffset dx="1.383" dy="1.383"/><feGaussianBlur stdDeviation="1.383"/><feComposite in2="hardAlpha" operator="out"/><feColorMatrix values="0 0 0 0 0 0 0 0 0 0 0 0 0 0 0 0 0 0 0.25 0"/><feBlend in2="BackgroundImageFix" result="effect1_dropShadow_14574_16099"/><feBlend in="SourceGraphic" in2="effect1_dropShadow_14574_16099" result="shape"/></filter><filter id="filter2_b_14574_16099" x="34.96" y="56.597" width="69.836" height="26.896" filterUnits="userSpaceOnUse" color-interpolation-filters="sRGB"><feFlood flood-opacity="0" result="BackgroundImageFix"/><feGaussianBlur in="BackgroundImageFix" stdDeviation="1.038"/><feComposite in2="SourceAlpha" operator="in" result="effect1_backgroundBlur_14574_16099"/><feBlend in="SourceGraphic" in2="effect1_backgroundBlur_14574_16099" result="shape"/></filter><linearGradient id="paint0_linear_14574_16099" x1="172.5" y1="-21.5" x2="-32" y2="167.5" gradientUnits="userSpaceOnUse"><stop stop-color="#171717"/><stop offset=".5" stop-color="#4572EC"/><stop offset="1" stop-color="#171717"/></linearGradient><linearGradient id="paint1_linear_14574_16099" x1="140.772" y1="59.191" x2="37.144" y2="155.214" gradientUnits="userSpaceOnUse"><stop stop-color="#C1DAFB" stop-opacity="0"/><stop offset=".32" stop-color="#EDF2FF" stop-opacity=".34"/><stop offset=".437" stop-color="#fff" stop-opacity=".55"/><stop offset=".577" stop-color="#EDF2FF" stop-opacity=".32"/><stop offset="1" stop-color="#ABC2FF" stop-opacity="0"/></linearGradient><linearGradient id="paint2_linear_14574_16099" x1="134.5" y1="10" x2="5.5" y2="139.5" gradientUnits="userSpaceOnUse"><stop stop-color="#fff"/><stop offset=".253" stop-color="#fff" stop-opacity=".14"/><stop offset=".478" stop-color="#fff"/><stop offset=".746" stop-color="#fff" stop-opacity="0"/><stop offset="1" stop-color="#fff"/></linearGradient><linearGradient id="paint3_linear_14574_16099" x1="107.333" y1="52.915" x2="48.915" y2="108.316" gradientUnits="userSpaceOnUse"><stop stop-color="#fff"/><stop offset="1" stop-color="#fff" stop-opacity="0"/></linearGradient><linearGradient id="paint4_linear_14574_16099" x1="107.333" y1="52.915" x2="48.915" y2="108.316" gradientUnits="userSpaceOnUse"><stop stop-color="#fff"/><stop offset="1" stop-color="#fff" stop-opacity="0"/></linearGradient><linearGradient id="paint5_linear_14574_16099" x1="107.333" y1="52.915" x2="48.915" y2="108.316" gradientUnits="userSpaceOnUse"><stop stop-color="#fff"/><stop offset="1" stop-color="#fff" stop-opacity="0"/></linearGradient><linearGradient id="paint6_linear_14574_16099" x1="113.967" y1="64.404" x2="51.613" y2="123.581" gradientUnits="userSpaceOnUse"><stop stop-color="#4572EC"/><stop offset=".32" stop-color="#EDF2FF" stop-opacity=".446"/><stop offset=".437" stop-color="#fff"/><stop offset=".577" stop-color="#EDF2FF" stop-opacity=".446"/><stop offset=".865" stop-color="#4572EC"/></linearGradient><linearGradient id="paint7_linear_14574_16099" x1="113.967" y1="64.404" x2="51.613" y2="123.581" gradientUnits="userSpaceOnUse"><stop stop-color="#4572EC"/><stop offset=".32" stop-color="#EDF2FF" stop-opacity=".446"/><stop offset=".437" stop-color="#fff"/><stop offset=".577" stop-color="#EDF2FF" stop-opacity=".446"/><stop offset=".865" stop-color="#4572EC"/></linearGradient><linearGradient id="paint8_linear_14574_16099" x1="113.967" y1="64.404" x2="51.613" y2="123.581" gradientUnits="userSpaceOnUse"><stop stop-color="#4572EC"/><stop offset=".32" stop-color="#EDF2FF" stop-opacity=".446"/><stop offset=".437" stop-color="#fff"/><stop offset=".577" stop-color="#EDF2FF" stop-opacity=".446"/><stop offset=".865" stop-color="#4572EC"/></linearGradient><linearGradient id="paint9_linear_14574_16099" x1="106.699" y1="54.286" x2="32.699" y2="91.786" gradientUnits="userSpaceOnUse"><stop stop-color="#fff"/><stop stop-color="#fff" stop-opacity="0"/><stop offset=".177" stop-color="#fff"/><stop offset=".37" stop-color="#fff" stop-opacity=".42"/><stop offset=".615" stop-color="#fff"/><stop offset=".737" stop-color="#fff" stop-opacity=".34"/><stop offset=".902" stop-color="#fff"/></linearGradient><clipPath id="clip0_14574_16099"><path fill="#fff" d="M0 0h142v142H0z"/></clipPath></defs></svg>