<svg xmlns="http://www.w3.org/2000/svg" width="160" height="160" viewBox="0 0 160 160" fill="none">
  <path d="M99.9907 153.11L157.35 125.271L153.569 124.497L99.9907 153.11Z" fill="black"/>
  <mask id="mask0_28856_61196" style="mask-type:luminance" maskUnits="userSpaceOnUse" x="152" y="122" width="2" height="4">
    <path d="M153.981 122.943L153.99 124.553C153.99 125.002 153.616 125.459 152.827 125.867L152.818 124.257C153.607 123.849 153.983 123.395 153.981 122.943Z" fill="white"/>
  </mask>
  <g mask="url(#mask0_28856_61196)">
    <path d="M153.98 122.943L153.989 124.553C153.989 125.002 153.616 125.459 152.826 125.867L152.817 124.257C153.607 123.849 153.982 123.392 153.98 122.943Z" fill="#0025B6" stroke="white" stroke-width="0.0903086" stroke-miterlimit="10"/>
  </g>
  <path d="M153.981 122.943L153.99 124.553C153.99 125.002 153.617 125.459 152.827 125.867L152.818 124.257C153.608 123.849 153.983 123.395 153.981 122.943Z" stroke="white" stroke-width="0.0903086" stroke-miterlimit="10"/>
  <mask id="mask1_28856_61196" style="mask-type:luminance" maskUnits="userSpaceOnUse" x="0" y="131" width="4" height="5">
    <path d="M0.0598909 133.118L0.0507812 131.508C0.0558422 132.29 1.20872 133.049 3.32519 133.497L3.3343 135.107C1.21479 134.665 0.0649518 133.901 0.0598909 133.118Z" fill="white"/>
  </mask>
  <g mask="url(#mask1_28856_61196)">
    <path d="M3.3251 133.496L3.33421 135.106C2.64013 134.972 1.9644 134.756 1.32098 134.464L1.31592 132.854C1.95923 133.147 2.63497 133.363 3.32915 133.497" fill="#0031F3"/>
    <path d="M3.3251 133.496L3.33421 135.106C2.64013 134.972 1.9644 134.756 1.32098 134.464L1.31592 132.854C1.95923 133.147 2.63497 133.363 3.32915 133.497" stroke="white" stroke-width="0.0903086" stroke-miterlimit="10"/>
    <path d="M1.31601 132.854L1.32512 134.464C0.497154 134.069 0.0629274 133.598 0.0598909 133.118L0.0507812 131.508C0.0507812 131.987 0.488045 132.458 1.31196 132.854" fill="#0025B6"/>
    <path d="M1.31601 132.854L1.32512 134.464C0.497154 134.069 0.0629274 133.598 0.0598909 133.118L0.0507812 131.508C0.0507812 131.987 0.488044 132.458 1.31196 132.854" stroke="white" stroke-width="0.0903086" stroke-miterlimit="10"/>
  </g>
  <path d="M0.0594026 133.119L0.050293 131.509C0.0553539 132.291 1.20823 133.05 3.32471 133.498L3.33382 135.108C1.2143 134.666 0.0644635 133.902 0.0594026 133.119Z" stroke="white" stroke-width="0.0903086" stroke-miterlimit="10"/>
  <path d="M152.818 124.259L152.827 125.871L100.72 152.829L100.71 151.217L152.818 124.259Z" fill="#0026BD" stroke="white" stroke-width="0.0903086" stroke-miterlimit="10"/>
  <path d="M90.7571 151.971L90.7662 153.583L3.33483 135.108L3.32471 133.497L90.7571 151.971Z" fill="#0031F3" stroke="white" stroke-width="0.0903086" stroke-miterlimit="10"/>
  <path d="M150.707 120.956C154.038 121.661 154.983 123.139 152.818 124.26L100.712 151.218C98.5447 152.337 94.0881 152.678 90.757 151.973L3.32455 133.497C-0.0065493 132.793 -0.951929 131.314 1.21313 130.194L53.3203 103.236C55.4864 102.115 59.942 101.778 63.2741 102.481L150.707 120.956Z" fill="#0031F3" stroke="white" stroke-width="0.0903086" stroke-miterlimit="10"/>
  <mask id="mask2_28856_61196" style="mask-type:luminance" maskUnits="userSpaceOnUse" x="0" y="102" width="154" height="51">
    <path d="M150.709 120.958C154.04 121.662 154.985 123.141 152.82 124.262L100.714 151.22C98.5466 152.339 94.09 152.679 90.7589 151.975L3.3265 133.499C-0.00459617 132.795 -0.949975 131.316 1.21508 130.196L53.3223 103.238C55.4884 102.117 59.944 101.78 63.2761 102.483L150.709 120.958Z" fill="white"/>
  </mask>
  <g mask="url(#mask2_28856_61196)">
    <path d="M55.6281 137.39L54.3264 137.115L49.9092 138.558L49.8799 138.552L51.803 136.582L50.5368 136.315L45.9546 137.723L45.9253 137.717L48.0276 135.785L46.7117 135.508L44.3149 138.023L45.6763 138.311L50.1127 136.981L50.142 136.987L48.3707 138.873L49.7402 139.163L55.6281 137.388M57.8043 137.848L56.4803 137.57L52.3405 139.715L53.6563 139.993L57.8002 137.85M82.9398 143.162L81.624 142.883L77.4801 145.03L78.7959 145.31L82.9388 143.166M83.6473 144.544C83.8638 144.457 84.0882 144.389 84.3174 144.343C84.654 144.274 84.997 144.24 85.3407 144.243C85.6716 144.242 86.0017 144.276 86.3256 144.343C86.5686 144.383 86.802 144.468 87.0139 144.593C87.1637 144.693 87.2062 144.807 87.1444 144.935C87.0736 145.06 86.9683 145.163 86.8408 145.231L83.6453 144.555M87.0149 143.982C85.8275 143.737 84.6025 143.732 83.4135 143.97C82.8946 144.068 82.3918 144.238 81.9195 144.473C81.4833 144.698 81.2231 144.921 81.1371 145.137C81.0511 145.353 81.1574 145.556 81.4296 145.741C81.7019 145.926 82.1604 146.084 82.7819 146.216C83.1635 146.297 83.5499 146.353 83.9388 146.385C84.3037 146.416 84.6701 146.425 85.036 146.413C85.3625 146.403 85.688 146.373 86.0108 146.323C86.2708 146.285 86.5271 146.225 86.777 146.144L86.8317 146.124L85.5836 145.861L85.5361 145.873C85.3498 145.92 85.1593 145.95 84.9672 145.962C84.7361 145.978 84.504 145.978 84.2729 145.962C84.0176 145.945 83.7639 145.909 83.5137 145.855C83.244 145.812 82.9844 145.72 82.7475 145.585C82.5916 145.478 82.5376 145.361 82.5855 145.233C82.6335 145.105 82.7816 144.978 83.0299 144.853L87.5422 145.806L87.8297 145.657C88.2437 145.443 88.4916 145.231 88.5686 145.019C88.6455 144.808 88.5595 144.611 88.2973 144.432C88.0351 144.253 87.6161 144.098 87.0189 143.972M65.9513 138.786L64.6071 138.502L63.5292 139.06L62.6182 138.866L61.9411 139.217L62.852 139.41L60.4815 140.636C60.0665 140.852 59.9197 141.039 60.0402 141.201C60.1606 141.363 60.5463 141.509 61.1748 141.642C61.3095 141.67 61.438 141.694 61.5625 141.714C61.687 141.734 61.7933 141.751 61.8773 141.764L62.5352 141.423L62.3591 141.395C62.3004 141.385 62.2376 141.372 62.1678 141.358C61.8904 141.298 61.7163 141.235 61.6526 141.166C61.5888 141.096 61.6637 141.005 61.8732 140.896L64.2013 139.695L65.3946 139.946L66.0718 139.596L64.8784 139.343L65.9564 138.786M77.5844 140.905L76.2685 140.627L70.5861 143.567L71.902 143.845L74.3008 142.603C74.5409 142.484 74.7964 142.398 75.06 142.348C75.3577 142.29 75.6604 142.26 75.9638 142.26C76.2742 142.262 76.5836 142.296 76.887 142.361C77.3485 142.458 77.61 142.583 77.6714 142.736C77.7328 142.889 77.5931 143.055 77.2524 143.232L74.8535 144.473L76.1693 144.752L78.7271 143.42C79.0605 143.249 79.2568 143.078 79.3162 142.908C79.38 142.74 79.3091 142.584 79.1057 142.442C78.9022 142.301 78.5844 142.18 78.1279 142.084C77.6594 141.984 77.1819 141.932 76.7027 141.928C76.2623 141.923 75.8226 141.967 75.392 142.059L75.3626 142.053L77.5894 140.904M93.7479 144.326L92.4321 144.048L86.7497 146.988L88.0655 147.266L93.7479 144.326ZM92.7965 147.789C92.4523 147.717 92.2114 147.625 92.0738 147.514C91.9371 147.402 91.9047 147.277 91.9796 147.138C92.0545 147 92.2478 146.854 92.5394 146.703C92.841 146.549 93.1605 146.433 93.4908 146.357C93.8422 146.276 94.2011 146.232 94.5617 146.227C94.919 146.22 95.2759 146.253 95.6255 146.327C95.9565 146.398 96.1883 146.489 96.3209 146.604C96.382 146.644 96.4262 146.704 96.4449 146.774C96.4636 146.844 96.4555 146.919 96.4221 146.983C96.3563 147.122 96.1802 147.267 95.8947 147.414H95.8897C95.5842 147.568 95.26 147.683 94.9251 147.755C94.5674 147.835 94.2025 147.879 93.836 147.886C93.485 147.894 93.1341 147.862 92.7904 147.791M100.816 145.823L99.5001 145.544L97.2571 146.701L97.2329 146.696C97.2828 146.528 97.2015 146.371 96.9889 146.226C96.7764 146.08 96.4481 145.96 96.0041 145.866C95.4577 145.751 94.9003 145.698 94.3421 145.706C93.7814 145.711 93.2227 145.773 92.675 145.893C92.1649 146.002 91.6715 146.178 91.2073 146.415H91.2023C90.762 146.643 90.4937 146.863 90.3844 147.076C90.2751 147.289 90.3419 147.478 90.5666 147.658C90.7913 147.837 91.1739 147.978 91.7134 148.092C92.1763 148.19 92.6482 148.24 93.1214 148.24C93.583 148.241 94.0436 148.198 94.4969 148.111H94.5212L93.8188 148.474L95.1397 148.753L100.822 145.813M58.7608 136.868C58.5374 136.823 58.3088 136.81 58.0816 136.828C57.8829 136.834 57.6873 136.879 57.5067 136.962C57.3731 137.031 57.3316 137.107 57.3842 137.188C57.4368 137.27 57.5715 137.331 57.78 137.375C58.0042 137.421 58.234 137.435 58.4622 137.417C58.6589 137.409 58.8524 137.365 59.032 137.285C59.1717 137.212 59.2132 137.136 59.1586 137.055C59.1039 136.975 58.9764 136.913 58.7608 136.868ZM83.9034 142.181C83.6791 142.136 83.4494 142.122 83.2212 142.14C83.0225 142.146 82.8271 142.192 82.6463 142.274C82.5113 142.342 82.4708 142.417 82.5248 142.501C82.5785 142.581 82.7131 142.644 82.9226 142.688C83.1466 142.734 83.376 142.747 83.6038 142.728C83.8006 142.722 83.9943 142.677 84.1737 142.596C84.3133 142.525 84.3559 142.449 84.3002 142.368C84.2445 142.288 84.118 142.226 83.9034 142.181ZM63.0312 137.773C62.4696 137.643 61.8923 137.592 61.3165 137.623C60.8472 137.65 60.3887 137.774 59.9703 137.987L59.53 138.214L58.6525 138.029L57.9743 138.379L58.8529 138.566L55.3862 140.359L56.702 140.637L60.1677 138.844L61.44 139.112L62.1182 138.761L60.8327 138.49L61.2578 138.27C61.4508 138.172 61.6621 138.115 61.8783 138.103C62.1422 138.088 62.407 138.11 62.6648 138.168C62.7447 138.185 62.8257 138.203 62.9026 138.222C62.9796 138.242 63.0474 138.258 63.1051 138.273L63.7346 137.947C63.6608 137.924 63.5565 137.895 63.4259 137.864C63.2954 137.833 63.1709 137.802 63.0383 137.774M44.4566 133.839C43.8474 133.71 43.2286 133.63 42.6063 133.6C42.0402 133.569 41.4723 133.589 40.9099 133.661C40.4723 133.708 40.0457 133.827 39.6477 134.014H39.6427C39.2226 134.231 39.093 134.452 39.2509 134.677C39.4088 134.901 39.8582 135.132 40.5961 135.374L41.419 135.643C41.9184 135.808 42.2254 135.952 42.3401 136.075C42.4596 136.199 42.4049 136.319 42.1772 136.437C41.958 136.541 41.7223 136.604 41.4808 136.626C41.163 136.663 40.8423 136.669 40.5233 136.644C40.1488 136.618 39.7766 136.565 39.4098 136.486C39.0923 136.425 38.7812 136.334 38.4807 136.215C38.2509 136.115 38.1072 136.014 38.0454 135.913C37.9837 135.813 38.0333 135.706 38.1659 135.611L38.2054 135.581L36.8794 135.301L36.8247 135.334C36.5282 135.514 36.4016 135.697 36.4492 135.882C36.4968 136.067 36.6992 136.243 37.0565 136.413C37.5479 136.622 38.0607 136.778 38.5859 136.876C39.2395 137.017 39.9031 137.108 40.5708 137.147C41.1504 137.183 41.7321 137.163 42.3077 137.086C42.7623 137.033 43.2047 136.905 43.6165 136.706C44.0558 136.479 44.1934 136.256 44.0335 136.04C43.8736 135.824 43.413 135.585 42.6326 135.33L41.8158 135.06C41.3475 134.905 41.0503 134.766 40.9241 134.642C40.8006 134.518 40.8441 134.402 41.0567 134.291C41.2623 134.193 41.4836 134.132 41.7105 134.111C42.0113 134.077 42.3146 134.071 42.6164 134.093C42.9678 134.115 43.317 134.163 43.661 134.237C43.9391 134.289 44.2106 134.372 44.4708 134.482C44.6671 134.572 44.7845 134.667 44.819 134.766C44.8534 134.866 44.8078 134.967 44.6651 135.068L44.6266 135.097L45.9526 135.377L46.0093 135.344C46.2978 135.172 46.4273 134.995 46.3939 134.814C46.3605 134.634 46.1854 134.456 45.8534 134.289C45.4063 134.084 44.935 133.935 44.4505 133.847M71.9181 139.65C71.3089 139.521 70.6901 139.441 70.0679 139.411C69.5017 139.38 68.9338 139.4 68.3715 139.472C67.9338 139.518 67.5071 139.637 67.1093 139.824H67.1042C66.6841 140.041 66.5536 140.262 66.7095 140.486C66.8653 140.711 67.3168 140.942 68.0597 141.185L68.8806 141.452C69.3796 141.617 69.6903 141.762 69.8007 141.885C69.911 142.008 69.8665 142.13 69.6387 142.247C69.4194 142.35 69.1837 142.414 68.9423 142.436C68.6241 142.472 68.3031 142.478 67.9838 142.454C67.6093 142.428 67.2372 142.375 66.8704 142.296C66.5532 142.234 66.2424 142.144 65.9422 142.025C65.7124 141.924 65.5687 141.824 65.507 141.723C65.4452 141.622 65.4938 141.516 65.6274 141.421L65.6659 141.391L64.3379 141.106L64.2843 141.138C63.9877 141.319 63.8602 141.502 63.9077 141.687C63.9553 141.872 64.1588 142.048 64.515 142.218C65.0067 142.427 65.5199 142.582 66.0455 142.681C66.6987 142.822 67.362 142.913 68.0293 142.952C68.6089 142.988 69.1906 142.967 69.7662 142.891C70.2208 142.838 70.6632 142.71 71.075 142.511C71.5143 142.283 71.6519 142.061 71.492 141.845C71.3321 141.628 70.8726 141.39 70.0922 141.134L69.2733 140.864C68.8057 140.71 68.5071 140.571 68.3826 140.447C68.2581 140.323 68.3016 140.206 68.5142 140.096C68.7204 139.998 68.9425 139.937 69.1701 139.916C69.4708 139.882 69.7741 139.876 70.076 139.898C70.4276 139.92 70.7772 139.968 71.1216 140.042C71.3996 140.094 71.6711 140.177 71.9313 140.287C72.1277 140.377 72.2441 140.471 72.2785 140.571C72.3129 140.671 72.2673 140.772 72.1246 140.873L72.0872 140.902L73.4131 141.182L73.4698 141.148C73.7583 140.976 73.8868 140.799 73.8545 140.619C73.8221 140.439 73.6449 140.261 73.3139 140.094C72.8668 139.889 72.3955 139.74 71.9111 139.651" fill="white"/>
    <path d="M37.4836 127.684L24.6147 124.967C24.2947 124.902 23.9703 124.86 23.644 124.843C23.2946 124.825 22.9443 124.829 22.5954 124.856C22.2716 124.88 21.9501 124.929 21.6338 125.002C21.3814 125.058 21.1367 125.144 20.9051 125.259L18.6074 126.447L29.6402 128.778L31.0421 131.019L37.4836 127.687" fill="white"/>
    <path d="M38.6902 127.938L28.79 133.06L34.5403 134.275L40.668 131.105L38.6902 127.938Z" fill="white"/>
    <path d="M23.5717 128.072L17.8357 126.859L9.40218 131.223C9.01351 131.424 8.87686 131.666 9.02059 131.896C9.16432 132.127 9.57729 132.327 10.1704 132.453L13.6726 133.193L23.5717 128.072Z" fill="white"/>
    <path d="M33.7551 134.685L18.6493 131.493L14.8799 133.444L27.7488 136.161H27.7619C28.0783 136.225 28.399 136.266 28.7215 136.283C29.0713 136.302 29.4219 136.298 29.7711 136.271C30.0953 136.247 30.4171 136.198 30.7337 136.125C30.9865 136.069 31.2313 135.983 31.4625 135.867L33.7581 134.68" fill="white"/>
  </g>
  <path d="M150.707 120.956C154.038 121.661 154.984 123.139 152.818 124.26L100.712 151.218C98.5452 152.337 94.0885 152.678 90.7574 151.973L3.32503 133.497C-0.00606101 132.793 -0.95144 131.314 1.21362 130.194L53.3208 103.236C55.4869 102.115 59.9425 101.778 63.2746 102.481L150.707 120.956Z" stroke="white" stroke-width="0.0903086" stroke-miterlimit="10"/>
  <mask id="mask3_28856_61196" style="mask-type:luminance" maskUnits="userSpaceOnUse" x="90" y="151" width="11" height="3">
    <path d="M100.714 151.217L100.724 152.827C98.5576 153.947 94.102 154.285 90.7699 153.58L90.7607 151.97C94.0898 152.677 98.5465 152.337 100.714 151.217Z" fill="white"/>
  </mask>
  <g mask="url(#mask3_28856_61196)">
    <path d="M100.713 151.218L100.723 152.828C100.435 152.974 100.137 153.1 99.8304 153.203L99.8213 151.593C100.127 151.489 100.425 151.363 100.713 151.217" fill="#0025B6"/>
    <path d="M100.713 151.218L100.723 152.828C100.435 152.974 100.137 153.1 99.8304 153.203L99.8213 151.593C100.127 151.489 100.425 151.363 100.713 151.217" stroke="white" stroke-width="0.0903086" stroke-miterlimit="10"/>
    <path d="M99.8195 151.594L99.8286 153.204C98.9975 153.479 98.1411 153.671 97.2718 153.777L97.2627 152.167C98.1311 152.061 98.9868 151.869 99.8175 151.596" fill="#0031F3"/>
    <path d="M99.8195 151.594L99.8286 153.204C98.9975 153.479 98.1411 153.671 97.2718 153.777L97.2627 152.167C98.1311 152.061 98.9868 151.869 99.8175 151.596" stroke="white" stroke-width="0.0903086" stroke-miterlimit="10"/>
    <path d="M97.2647 152.165L97.2738 153.775C95.2627 154.04 93.2231 154.006 91.222 153.674L91.2129 152.064C93.214 152.396 95.2536 152.43 97.2647 152.165Z" fill="#6C88F8" stroke="white" stroke-width="0.0903086" stroke-miterlimit="10"/>
    <path d="M91.2128 152.06L91.2219 153.67C91.069 153.643 90.9182 153.613 90.7674 153.582L90.7583 151.972C90.9071 152.004 91.062 152.033 91.2128 152.06Z" fill="#0031F3" stroke="white" stroke-width="0.0903086" stroke-miterlimit="10"/>
  </g>
  <path d="M100.713 151.218L100.723 152.828C98.5566 153.948 94.101 154.286 90.7689 153.581L90.7598 151.971C94.0888 152.678 98.5455 152.338 100.713 151.218Z" stroke="white" stroke-width="0.0903086" stroke-miterlimit="10"/>
  <path d="M148.04 124.715C148.04 127.159 141.501 129.143 135.576 129.143C129.65 129.143 127.209 127.16 127.209 124.715C127.209 122.27 132.013 120.288 137.938 120.288C143.863 120.288 148.04 122.27 148.04 124.715Z" fill="black"/>
  <mask id="mask4_28856_61196" style="mask-type:luminance" maskUnits="userSpaceOnUse" x="125" y="123" width="21" height="6">
    <path d="M145.316 123.166L145.38 124.08C145.435 124.87 144.932 125.706 143.815 126.485C140.88 128.538 134.807 129.423 130.261 128.462C127.442 127.865 125.868 126.7 125.779 125.412L125.713 124.503C125.802 125.792 127.375 126.957 130.195 127.553C134.744 128.514 140.812 127.629 143.749 125.578C144.868 124.793 145.371 123.957 145.316 123.166Z" fill="white"/>
  </mask>
  <g mask="url(#mask4_28856_61196)">
    <path d="M145.317 123.166L145.38 124.08C145.435 124.87 144.932 125.706 143.816 126.485C141.74 127.936 138.098 128.8 134.535 128.848L134.472 127.934C138.035 127.89 141.676 127.024 143.753 125.573C144.866 124.793 145.372 123.957 145.317 123.166Z" fill="#4AB8BF" stroke="white" stroke-width="0.0677314" stroke-miterlimit="10"/>
    <path d="M134.472 127.934L134.535 128.848C133.815 128.857 133.094 128.831 132.377 128.769L132.314 127.856C133.022 127.918 133.745 127.943 134.472 127.934Z" fill="#63F5FF" stroke="white" stroke-width="0.0677314" stroke-miterlimit="10"/>
    <path d="M132.314 127.857L132.377 128.769C131.731 128.715 131.089 128.625 130.453 128.501L130.391 127.588C131.026 127.712 131.668 127.802 132.314 127.857Z" fill="#B7FAFF" stroke="white" stroke-width="0.0677314" stroke-miterlimit="10"/>
    <path d="M130.395 127.588L130.458 128.501C130.392 128.489 130.327 128.474 130.262 128.461C129.767 128.359 129.279 128.227 128.8 128.066L128.736 127.152C129.216 127.313 129.704 127.445 130.199 127.548L130.395 127.588Z" fill="#DAFDFF" stroke="white" stroke-width="0.0677314" stroke-miterlimit="10"/>
    <path d="M128.736 127.152L128.8 128.066C127.353 127.575 126.4 126.899 125.996 126.142L125.933 125.229C126.338 125.985 127.29 126.661 128.736 127.152Z" fill="#B7FAFF" stroke="white" stroke-width="0.0677314" stroke-miterlimit="10"/>
    <path d="M125.933 125.228L125.996 126.141C125.872 125.916 125.798 125.667 125.779 125.411L125.713 124.502C125.733 124.758 125.807 125.008 125.93 125.233" fill="#63F5FF"/>
    <path d="M125.933 125.228L125.996 126.141C125.872 125.916 125.798 125.667 125.779 125.411L125.713 124.502C125.733 124.758 125.807 125.008 125.93 125.233" stroke="white" stroke-width="0.0677314" stroke-miterlimit="10"/>
  </g>
  <path d="M145.317 123.166L145.381 124.08C145.435 124.87 144.932 125.706 143.816 126.485C140.88 128.538 134.807 129.423 130.262 128.462C127.443 127.865 125.869 126.7 125.78 125.412L125.714 124.503C125.803 125.792 127.376 126.957 130.196 127.553C134.745 128.514 140.813 127.629 143.75 125.578C144.868 124.793 145.371 123.957 145.317 123.166Z" stroke="white" stroke-width="0.0677314" stroke-miterlimit="10"/>
  <path d="M140.835 120.117C145.382 121.079 146.689 123.521 143.753 125.573C140.816 127.626 134.744 128.509 130.199 127.548C125.653 126.588 124.344 124.145 127.281 122.093C130.219 120.04 136.286 119.156 140.835 120.117Z" fill="#5EEAF3" stroke="white" stroke-width="0.0677314" stroke-miterlimit="10"/>
  <mask id="mask5_28856_61196" style="mask-type:luminance" maskUnits="userSpaceOnUse" x="125" y="119" width="21" height="9">
    <path d="M140.835 120.118C145.383 121.08 146.69 123.522 143.753 125.574C140.817 127.627 134.745 128.51 130.199 127.549C125.653 126.589 124.345 124.146 127.282 122.094C130.219 120.041 136.286 119.157 140.835 120.118Z" fill="white"/>
  </mask>
  <g mask="url(#mask5_28856_61196)">
    <path d="M136.575 123.215L130.222 124.137L131.59 126.675L137.943 125.753L137.486 124.906L133.263 125.519L132.808 124.675L137.032 124.062L136.575 123.215Z" fill="black"/>
    <path d="M139.923 120.895L131.456 122.124L129.828 123.275L138.229 122.056L140.059 125.448L141.746 124.277L139.923 120.895Z" fill="black"/>
  </g>
  <path d="M140.835 120.117C145.383 121.079 146.69 123.521 143.753 125.573C140.817 127.626 134.745 128.509 130.199 127.548C125.653 126.588 124.345 124.145 127.282 122.093C130.219 120.04 136.286 119.156 140.835 120.117Z" stroke="white" stroke-width="0.0677314" stroke-miterlimit="10"/>
  <mask id="mask6_28856_61196" style="mask-type:luminance" maskUnits="userSpaceOnUse" x="55" y="106" width="11" height="3">
    <path d="M65.0147 106.175L65.046 106.631C65.0713 107.002 64.8355 107.395 64.3102 107.762C62.9296 108.727 60.0782 109.142 57.9405 108.69C56.6145 108.411 55.8746 107.863 55.8331 107.257L55.8018 106.801C55.8433 107.404 56.5832 107.954 57.9081 108.234C60.0458 108.686 62.8982 108.27 64.2788 107.306C64.8041 106.939 65.04 106.546 65.0147 106.175Z" fill="white"/>
  </mask>
  <g mask="url(#mask6_28856_61196)">
    <path d="M65.0142 106.175L65.0456 106.631C65.0709 107.002 64.835 107.395 64.3097 107.762C63.334 108.444 61.6224 108.851 59.9482 108.868L59.9209 108.416C61.5951 108.395 63.3067 107.988 64.2824 107.309C64.8077 106.942 65.0436 106.549 65.0183 106.178" fill="#BFBFBF"/>
    <path d="M65.0142 106.175L65.0456 106.631C65.0709 107.002 64.835 107.395 64.3097 107.762C63.334 108.444 61.6224 108.851 59.9482 108.868L59.9209 108.416C61.5951 108.395 63.3067 107.988 64.2824 107.309C64.8077 106.942 65.0436 106.549 65.0183 106.178" stroke="black" stroke-width="0.0677314" stroke-miterlimit="10"/>
    <path d="M59.9204 108.416L59.9518 108.873C59.6096 108.873 59.2696 108.865 58.9396 108.837L58.9082 108.38C59.2402 108.409 59.5803 108.42 59.9204 108.416Z" fill="white" stroke="black" stroke-width="0.0677314" stroke-miterlimit="10"/>
    <path d="M58.9029 108.38L58.9342 108.837C58.6315 108.81 58.3305 108.768 58.0324 108.71L58 108.253C58.2984 108.311 58.5998 108.354 58.9029 108.38Z" fill="white" stroke="black" stroke-width="0.0677314" stroke-miterlimit="10"/>
    <path d="M57.9981 108.252L58.0305 108.709L57.9384 108.69C57.7057 108.642 57.4762 108.58 57.2511 108.505L57.2188 108.048C57.444 108.123 57.6735 108.185 57.906 108.234L57.9981 108.252Z" fill="white" stroke="black" stroke-width="0.0677314" stroke-miterlimit="10"/>
    <path d="M57.2206 108.049L57.253 108.506C56.5728 108.274 56.1244 107.957 55.9371 107.6L55.9058 107.145C56.095 107.5 56.5434 107.818 57.2216 108.05" fill="white"/>
    <path d="M57.2206 108.049L57.253 108.506C56.5728 108.274 56.1244 107.957 55.9371 107.6L55.9058 107.145C56.095 107.5 56.5434 107.818 57.2216 108.05" stroke="black" stroke-width="0.0677314" stroke-miterlimit="10"/>
    <path d="M55.9029 107.147L55.934 107.603C55.8765 107.497 55.8422 107.38 55.8334 107.26L55.8022 106.803C55.811 106.923 55.8453 107.041 55.9029 107.147Z" fill="white" stroke="black" stroke-width="0.0677314" stroke-miterlimit="10"/>
  </g>
  <path d="M65.0147 106.175L65.046 106.631C65.0713 107.002 64.8355 107.395 64.3102 107.762C62.9296 108.727 60.0782 109.142 57.9405 108.69C56.6145 108.411 55.8746 107.863 55.8331 107.257L55.8018 106.801C55.8433 107.404 56.5832 107.954 57.9081 108.234C60.0458 108.686 62.8982 108.27 64.2788 107.306C64.8041 106.939 65.04 106.546 65.0147 106.175Z" stroke="black" stroke-width="0.0677314" stroke-miterlimit="10"/>
  <path d="M60.5376 108.393C63.0812 108.22 65.0844 107.227 65.0118 106.177C64.9392 105.126 62.8183 104.415 60.2747 104.589C57.731 104.762 55.7278 105.755 55.8004 106.806C55.873 107.856 57.9939 108.567 60.5376 108.393Z" fill="#F3F3F3" stroke="black" stroke-width="0.0677314" stroke-miterlimit="10"/>
  <path d="M102.028 137.903L124.713 128.171L121.721 127.377L102.028 137.903Z" fill="black"/>
  <mask id="mask7_28856_61196" style="mask-type:luminance" maskUnits="userSpaceOnUse" x="29" y="119" width="3" height="6">
    <path d="M29.7166 123L29.584 119.235C29.6042 119.826 30.3937 120.382 31.8584 120.712L31.991 124.477C30.5253 124.147 29.7378 123.595 29.7166 123Z" fill="white"/>
  </mask>
  <g mask="url(#mask7_28856_61196)">
    <path d="M31.8579 120.713L31.9905 124.477C31.655 124.403 31.3255 124.305 31.0047 124.183L30.8721 120.42C31.1932 120.542 31.523 120.64 31.8589 120.713" fill="#9B9B9B"/>
    <path d="M31.8579 120.713L31.9905 124.477C31.655 124.403 31.3255 124.305 31.0047 124.183L30.8721 120.42C31.1932 120.542 31.523 120.64 31.8589 120.713" stroke="white" stroke-width="0.0903086" stroke-miterlimit="10"/>
    <path d="M30.8726 120.421L31.0062 124.184C30.495 123.983 30.1307 123.75 29.9232 123.496L29.7896 119.731C29.9981 119.986 30.3614 120.222 30.8726 120.421Z" fill="#3F3F3F" stroke="white" stroke-width="0.0903086" stroke-miterlimit="10"/>
    <path d="M29.7883 119.73L29.9219 123.495C29.8017 123.356 29.7306 123.182 29.7195 123L29.5869 119.235C29.5977 119.418 29.6689 119.592 29.7894 119.73" fill="#2F2F2F"/>
    <path d="M29.7883 119.73L29.9219 123.495C29.8017 123.356 29.7306 123.182 29.7195 123L29.5869 119.235C29.5977 119.418 29.6689 119.592 29.7894 119.73" stroke="white" stroke-width="0.0903086" stroke-miterlimit="10"/>
  </g>
  <path d="M29.7156 123.001L29.583 119.237C29.6033 119.828 30.3928 120.384 31.8574 120.714L31.99 124.479C30.5243 124.149 29.7369 123.597 29.7156 123.001Z" stroke="white" stroke-width="0.0903086" stroke-miterlimit="10"/>
  <mask id="mask8_28856_61196" style="mask-type:luminance" maskUnits="userSpaceOnUse" x="120" y="123" width="2" height="6">
    <path d="M121.701 123.479L121.833 127.244C121.849 127.646 121.504 128.067 120.776 128.441L120.642 124.677C121.371 124.305 121.715 123.883 121.701 123.479Z" fill="white"/>
  </mask>
  <g mask="url(#mask8_28856_61196)">
    <path d="M121.701 123.479L121.833 127.244C121.849 127.646 121.504 128.067 120.776 128.441L120.642 124.677C121.371 124.303 121.715 123.883 121.701 123.479Z" fill="#2F2F2F" stroke="white" stroke-width="0.0903086" stroke-miterlimit="10"/>
  </g>
  <path d="M121.701 123.479L121.833 127.243C121.849 127.645 121.504 128.066 120.776 128.44L120.642 124.676C121.371 124.304 121.715 123.882 121.701 123.479Z" stroke="white" stroke-width="0.0903086" stroke-miterlimit="10"/>
  <path d="M120.642 124.675L120.775 128.439L102.326 137.903L102.192 134.139L120.642 124.675Z" fill="#323232" stroke="white" stroke-width="0.0903086" stroke-miterlimit="10"/>
  <mask id="mask9_28856_61196" style="mask-type:luminance" maskUnits="userSpaceOnUse" x="102" y="124" width="19" height="14">
    <path d="M120.643 124.675L120.776 128.439L102.327 137.903L102.193 134.139L120.643 124.675Z" fill="white"/>
  </mask>
  <g mask="url(#mask9_28856_61196)">
    <path d="M110.761 132.372L112.258 131.605C112.502 131.479 112.691 131.062 112.677 130.677C112.664 130.292 112.453 130.073 112.209 130.204L110.712 130.972C110.467 131.098 110.279 131.514 110.293 131.9C110.307 132.285 110.516 132.503 110.761 132.372Z" fill="#2B2B2B" stroke="white" stroke-width="0.0903086" stroke-miterlimit="10"/>
    <path d="M112.209 130.204C112.453 130.078 112.664 130.29 112.678 130.677C112.692 131.063 112.503 131.482 112.259 131.604L110.762 132.372C110.517 132.498 110.307 132.286 110.293 131.899C110.28 131.513 110.467 131.094 110.712 130.972L112.209 130.204ZM110.763 132.417L112.261 131.65C112.521 131.516 112.722 131.071 112.707 130.66C112.693 130.248 112.469 130.021 112.207 130.157L110.71 130.924C110.449 131.058 110.249 131.502 110.264 131.914C110.279 132.327 110.503 132.553 110.763 132.417Z" fill="white" stroke="white" stroke-width="0.0903086" stroke-miterlimit="10"/>
  </g>
  <path d="M120.643 124.675L120.776 128.439L102.326 137.903L102.193 134.139L120.643 124.675Z" stroke="white" stroke-width="0.0903086" stroke-miterlimit="10"/>
  <path d="M94.4701 134.804L94.6037 138.567L31.99 124.479L31.8574 120.716L94.4701 134.804Z" fill="#3F3F3F" stroke="white" stroke-width="0.0903086" stroke-miterlimit="10"/>
  <path d="M49.0907 108.577C50.8883 107.655 54.3449 107.358 56.8126 107.914L119.426 122C121.894 122.556 122.439 123.753 120.641 124.675L102.191 134.139C100.394 135.061 96.9376 135.358 94.4689 134.802L31.8562 120.716C29.3875 120.16 28.844 118.963 30.6416 118.041L49.0907 108.577Z" fill="#2A2A2A" stroke="white" stroke-width="0.0903086" stroke-miterlimit="10"/>
  <mask id="mask10_28856_61196" style="mask-type:luminance" maskUnits="userSpaceOnUse" x="29" y="107" width="93" height="29">
    <path d="M49.0902 108.579C50.8878 107.657 54.3444 107.36 56.8121 107.916L119.426 122.002C121.894 122.558 122.438 123.755 120.64 124.677L102.19 134.141C100.394 135.063 96.9371 135.36 94.4684 134.804L31.8557 120.717C29.387 120.162 28.8435 118.965 30.6411 118.043L49.0902 108.579Z" fill="white"/>
  </mask>
  <g mask="url(#mask10_28856_61196)">
    <path d="M45.5825 110.984L45.2789 110.916L45.8862 110.606H45.9034C45.7212 110.7 45.6686 110.808 45.7323 110.908L49.5209 108.965C51.1404 108.136 54.257 107.868 56.4777 108.368L118.334 122.284C120.555 122.787 121.048 123.865 119.431 124.699L101.765 133.757C100.145 134.585 97.0288 134.853 94.8081 134.354L32.9495 120.436C30.7287 119.933 30.2368 118.856 31.8523 118.027L35.0346 116.395C34.7796 116.403 34.5287 116.461 34.2957 116.564H34.2785L34.8858 116.254L45.2829 110.921L45.5866 110.989M49.0655 108.574L30.6083 118.042C28.8107 118.964 29.3562 120.161 31.8229 120.718L94.4953 134.813C96.966 135.37 100.426 135.073 102.222 134.151L120.679 124.683C122.477 123.76 121.932 122.563 119.465 122.007L56.7884 107.904C54.3177 107.347 50.858 107.644 49.0614 108.567" fill="#777777"/>
    <path d="M66.2982 112.544C66.2182 112.584 66.1788 112.625 66.1778 112.668C66.1767 112.71 66.2091 112.751 66.279 112.79C66.3808 112.839 66.4887 112.875 66.5998 112.896C66.7367 112.927 66.8758 112.947 67.0159 112.955C67.1399 112.963 67.2643 112.958 67.3873 112.94C67.4875 112.927 67.5849 112.898 67.6758 112.854C67.7517 112.815 67.7902 112.773 67.7922 112.731C67.7942 112.689 67.7578 112.647 67.691 112.607C67.5922 112.556 67.4865 112.52 67.3772 112.499C67.2415 112.468 67.1033 112.449 66.9642 112.443C66.8382 112.436 66.7117 112.441 66.5867 112.459C66.4871 112.471 66.3903 112.499 66.3002 112.543M64.1271 113.64C64.0552 113.676 64.0147 113.715 64.0066 113.754C63.9985 113.794 64.0259 113.834 64.0876 113.872C64.1468 113.905 64.2101 113.93 64.2759 113.947L65.0117 113.569C64.9181 113.552 64.8234 113.542 64.7283 113.538C64.6143 113.531 64.4998 113.538 64.3872 113.557C64.2967 113.571 64.209 113.599 64.1271 113.64ZM86.1036 123.715C81.9 125.871 73.8086 126.565 68.0301 125.265C62.2515 123.965 60.9761 121.164 65.1848 119.008C69.3935 116.851 77.4758 116.155 83.2533 117.456C89.0308 118.757 90.3072 121.558 86.1036 123.715ZM51.8118 122.04L49.9737 121.627L53.4546 119.841L54.568 120.092C54.6503 120.109 54.73 120.136 54.8049 120.174C54.8564 120.197 54.8995 120.235 54.9284 120.284C54.9373 120.303 54.9409 120.325 54.9388 120.346C54.9366 120.367 54.9289 120.388 54.9162 120.405C54.8784 120.454 54.8291 120.493 54.7725 120.519L51.8068 122.04M56.6025 117.278L58.222 117.938L57.9062 118.1L56.0843 117.917H56.0782L57.2898 118.418L56.976 118.579L54.5569 118.332L54.8605 118.176L56.7159 118.397H56.723L55.4385 117.884L55.73 117.734L57.6258 117.935H57.6329L56.311 117.441L56.6147 117.287M58.8303 117.64L56.812 117.187L57.1157 117.03L59.134 117.484L58.8303 117.64ZM64.6241 114.668L62.6058 114.214L62.9094 114.058L64.9277 114.512L64.6241 114.668ZM65.9055 114.041C65.7479 114.119 65.5798 114.173 65.4065 114.203C65.2084 114.237 65.0072 114.251 64.8063 114.243C64.5919 114.236 64.3786 114.209 64.1696 114.161C64.0059 114.131 63.8483 114.074 63.703 113.994C63.6017 113.929 63.5562 113.862 63.5714 113.793C63.5866 113.723 63.6584 113.65 63.7961 113.58C63.9473 113.504 64.1095 113.452 64.2769 113.426C64.47 113.393 64.6661 113.38 64.8619 113.388C65.0664 113.395 65.2697 113.422 65.4692 113.467L65.6089 113.498L64.5704 114.031C64.69 114.057 64.8115 114.073 64.9338 114.078C65.0514 114.083 65.1691 114.075 65.285 114.055C65.3834 114.038 65.4789 114.008 65.5684 113.964C65.6149 113.943 65.6564 113.912 65.6899 113.874C65.699 113.863 65.705 113.85 65.7073 113.836C65.7096 113.821 65.7082 113.807 65.703 113.794C65.6862 113.764 65.6593 113.741 65.6271 113.729L65.616 113.723L65.9035 113.576L65.9227 113.582C65.9803 113.602 66.034 113.631 66.0816 113.669C66.1174 113.696 66.1413 113.736 66.1484 113.781C66.1492 113.804 66.1451 113.828 66.1362 113.85C66.1273 113.872 66.1139 113.892 66.0968 113.908C66.0407 113.964 65.9753 114.01 65.9035 114.044M58.553 116.539L58.223 116.464L58.4335 116.356L57.9072 116.238L58.2169 116.079L58.7433 116.197L59.0186 116.057L59.3486 116.13L59.0682 116.256L60.1998 116.51C60.2847 116.532 60.3726 116.539 60.4599 116.532C60.5307 116.524 60.5994 116.503 60.6624 116.47L60.7049 116.448L60.7363 116.428L61.0571 116.499L61.0015 116.537C60.9782 116.551 60.9508 116.567 60.9205 116.582C60.7772 116.656 60.6214 116.702 60.4609 116.719C60.2779 116.733 60.0937 116.718 59.9154 116.674L58.7605 116.415L58.5499 116.522M63.0299 115.47L60.2595 114.847L60.5632 114.692L61.6422 114.94H61.6493C61.5703 114.893 61.5359 114.839 61.548 114.79C61.5602 114.74 61.6219 114.679 61.7323 114.623C61.8509 114.565 61.9774 114.526 62.1078 114.505C62.2609 114.48 62.4162 114.47 62.5713 114.476C62.737 114.481 62.9017 114.501 63.0633 114.538L64.3103 114.819L64.0066 114.974L62.8376 114.711C62.6805 114.674 62.519 114.66 62.3578 114.668C62.2232 114.674 62.0915 114.708 61.9711 114.769C61.9013 114.804 61.8638 114.84 61.8557 114.876C61.8476 114.913 61.8719 114.948 61.9225 114.977C61.9954 115.018 62.0748 115.047 62.1574 115.062L63.3264 115.325L63.0228 115.48M66.7476 113.568L63.9793 112.944L64.283 112.789L67.0513 113.412L66.7476 113.568ZM66.696 112.361L65.6028 112.115L65.9065 111.959L68.6748 112.582L68.3712 112.738L68.029 112.662H68.024C68.0979 112.711 68.1252 112.762 68.1191 112.82C68.1131 112.877 68.0493 112.93 67.944 112.985C67.8014 113.054 67.6487 113.1 67.4916 113.122C67.3006 113.151 67.1074 113.16 66.9146 113.151C66.7013 113.14 66.4893 113.111 66.281 113.063C66.1138 113.032 65.9519 112.977 65.8002 112.9C65.699 112.839 65.6454 112.775 65.6524 112.709C65.6595 112.643 65.7243 112.578 65.8468 112.515C65.9655 112.456 66.0925 112.417 66.2233 112.397C66.378 112.371 66.535 112.359 66.692 112.363M56.6369 117.038C56.5762 117.066 56.5106 117.082 56.4436 117.086C56.3699 117.094 56.2955 117.09 56.2229 117.075C56.1551 117.06 56.1156 117.038 56.1045 117.009C56.0934 116.981 56.1116 116.955 56.1592 116.931C56.2198 116.902 56.2855 116.886 56.3525 116.883C56.4269 116.875 56.5021 116.879 56.5752 116.895C56.64 116.909 56.6764 116.931 56.6926 116.959C56.7088 116.987 56.6865 117.012 56.6369 117.038ZM62.4307 114.066C62.3699 114.095 62.3043 114.111 62.2373 114.115C62.1636 114.122 62.0891 114.118 62.0167 114.103C61.9489 114.087 61.9094 114.066 61.8972 114.038C61.8851 114.01 61.9043 113.984 61.9529 113.959C62.0134 113.931 62.0786 113.914 62.1452 113.91C62.22 113.903 62.2954 113.907 62.3689 113.922C62.4337 113.938 62.4701 113.959 62.4853 113.987C62.5005 114.015 62.4853 114.041 62.4307 114.066ZM57.6258 117.003L57.2958 116.93L57.4983 116.829L57.2898 116.769C57.0944 116.725 56.9861 116.674 56.9618 116.617C56.9375 116.56 56.9983 116.493 57.1471 116.416C57.1784 116.4 57.2108 116.385 57.2483 116.369L57.3363 116.333L57.64 116.402L57.5853 116.426L57.5276 116.454C57.4598 116.488 57.4325 116.519 57.4457 116.546C57.4588 116.572 57.5064 116.596 57.5965 116.616L57.7989 116.662L58.0965 116.51L58.4265 116.585L58.1349 116.734L59.8233 117.114L59.5196 117.27L57.8313 116.89L57.6289 116.99M55.3525 119.163C55.4216 119.132 55.4834 119.087 55.5336 119.031C55.5479 119.016 55.5558 118.996 55.5558 118.976C55.5558 118.955 55.5479 118.935 55.5336 118.92C55.487 118.877 55.4278 118.85 55.3646 118.842C55.249 118.816 55.1298 118.811 55.0124 118.827C54.86 118.848 54.7104 118.886 54.566 118.939L54.2826 119.04C54.0512 119.123 53.8106 119.178 53.566 119.204C53.3504 119.226 53.1327 119.213 52.9212 119.167C52.8037 119.15 52.6933 119.101 52.6024 119.025C52.5747 119.001 52.557 118.968 52.5529 118.932C52.5487 118.895 52.5585 118.859 52.5801 118.83C52.651 118.734 52.7464 118.659 52.8564 118.612C53.0047 118.538 53.1618 118.481 53.324 118.445C53.4974 118.405 53.6744 118.382 53.8524 118.376C54.0244 118.37 54.1965 118.383 54.3656 118.415L54.399 118.421L54.0953 118.577H54.067C53.9703 118.562 53.8722 118.557 53.7745 118.563C53.6778 118.568 53.5818 118.583 53.488 118.606C53.3978 118.63 53.3105 118.664 53.2279 118.707C53.1637 118.734 53.1071 118.776 53.0629 118.83C53.0508 118.844 53.0442 118.861 53.0442 118.88C53.0442 118.898 53.0508 118.916 53.0629 118.93C53.1094 118.97 53.1663 118.995 53.2269 119.004C53.3397 119.027 53.4559 119.031 53.57 119.015C53.7171 118.994 53.8616 118.958 54.0012 118.907L54.2856 118.806C54.5211 118.721 54.7661 118.663 55.0154 118.635C55.2318 118.614 55.4502 118.628 55.6622 118.677C55.7883 118.696 55.9074 118.746 56.0084 118.824C56.0375 118.848 56.0559 118.883 56.0596 118.92C56.0634 118.958 56.0523 118.995 56.0286 119.025C55.9454 119.126 55.8388 119.206 55.7179 119.258C55.5621 119.337 55.3977 119.399 55.228 119.44C55.0522 119.484 54.8725 119.51 54.6915 119.517C54.5135 119.525 54.3352 119.513 54.1601 119.48H54.1287L54.4324 119.323H54.4597C54.5586 119.337 54.6587 119.34 54.7583 119.333C54.863 119.324 54.9666 119.307 55.068 119.279C55.167 119.252 55.263 119.215 55.3545 119.169M61.6837 115.922C61.753 115.891 61.8148 115.846 61.8648 115.79C61.8793 115.775 61.8873 115.756 61.8873 115.735C61.8873 115.715 61.8793 115.695 61.8648 115.68C61.8182 115.637 61.759 115.61 61.6958 115.602C61.5802 115.576 61.4609 115.571 61.3436 115.588C61.1911 115.609 61.0414 115.646 60.8972 115.699L60.6148 115.8C60.3841 115.88 60.1445 115.932 59.9012 115.954C59.686 115.976 59.4687 115.963 59.2575 115.917C59.1397 115.9 59.0289 115.851 58.9376 115.775C58.9101 115.751 58.8926 115.718 58.8885 115.682C58.8844 115.645 58.8939 115.609 58.9153 115.58C58.9863 115.484 59.0817 115.41 59.1917 115.363C59.3399 115.288 59.497 115.232 59.6593 115.195C59.8326 115.155 60.0097 115.132 60.1877 115.127C60.36 115.12 60.5325 115.133 60.7018 115.165L60.7342 115.171L60.4306 115.328H60.4022C60.3059 115.313 60.2081 115.308 60.1107 115.314C60.0137 115.319 59.9174 115.334 59.8233 115.358C59.7328 115.381 59.6455 115.415 59.5631 115.459C59.4992 115.486 59.4427 115.528 59.3982 115.582C59.3859 115.596 59.3792 115.613 59.3792 115.632C59.3792 115.65 59.3859 115.668 59.3982 115.682C59.4438 115.722 59.5006 115.748 59.5611 115.756C59.6739 115.78 59.7901 115.784 59.9042 115.767C60.0514 115.746 60.1959 115.71 60.3354 115.659L60.6199 115.558C60.8553 115.473 61.1004 115.416 61.3496 115.388C61.5663 115.367 61.7851 115.381 61.9974 115.429C62.1235 115.448 62.2426 115.498 62.3436 115.576C62.3729 115.6 62.3915 115.634 62.3953 115.672C62.3991 115.71 62.3878 115.747 62.3639 115.777C62.2811 115.878 62.1748 115.958 62.0541 116.009C61.8977 116.088 61.7326 116.15 61.5622 116.191C61.3868 116.235 61.2074 116.261 61.0268 116.269C60.8488 116.277 60.6705 116.264 60.4954 116.232L60.464 116.226L60.7676 116.069H60.796C60.8945 116.083 60.9943 116.087 61.0936 116.079C61.1982 116.07 61.3019 116.052 61.4033 116.025C61.5023 115.998 61.5983 115.961 61.6897 115.915M50.7288 122.595C50.5482 122.675 50.3545 122.723 50.1569 122.735C49.9376 122.755 49.7166 122.742 49.501 122.697L45.3916 121.773L46.7125 121.096L51.5355 122.18L50.7258 122.595M44.9968 121.689L43.8783 121.438C43.7957 121.422 43.7156 121.394 43.6405 121.356C43.5892 121.333 43.5467 121.295 43.519 121.247C43.5097 121.227 43.5058 121.206 43.5077 121.185C43.5097 121.163 43.5175 121.143 43.5302 121.126C43.5679 121.077 43.6173 121.038 43.6739 121.012L46.6386 119.491L49.7763 120.195L47.5384 120.383L44.9958 121.691M51.74 120.436L46.9159 119.35L50.079 119.084L53.0649 119.756L51.74 120.436ZM49.5972 108.983L45.8369 110.912C45.9243 111.006 46.0395 111.07 46.1659 111.095L46.5161 111.173C47.5485 111.406 47.7773 111.908 47.0222 112.292L39.2871 116.261C38.536 116.646 37.0856 116.77 36.0542 116.538L35.7039 116.459C35.4985 116.423 35.2895 116.412 35.0815 116.427L31.9346 118.046C30.3495 118.859 30.8303 119.915 33.0085 120.406L94.8681 134.323C97.0463 134.813 100.097 134.551 101.682 133.738L119.35 124.676C120.935 123.863 120.453 122.806 118.275 122.316L56.4163 108.398C54.237 107.908 51.1863 108.17 49.6012 108.983" fill="white"/>
    <path d="M45.7365 110.915C45.7452 110.928 45.7554 110.939 45.7669 110.949L45.7365 110.915ZM49.5191 108.964L45.7305 110.907L45.8266 110.894L45.8378 110.907L49.597 108.982C51.1821 108.169 54.2328 107.908 56.4121 108.398L118.271 122.315C120.449 122.805 120.931 123.862 119.346 124.675L101.678 133.738C100.093 134.551 97.0421 134.812 94.8639 134.322L33.0083 120.406C30.8301 119.915 30.3493 118.858 31.9344 118.045L35.0904 116.426H35.0408L35.0347 116.392L31.8524 118.024C30.2329 118.853 30.7289 119.936 32.9496 120.433L94.8082 134.354C97.0289 134.857 100.15 134.585 101.765 133.757L119.432 124.694C121.051 123.865 120.555 122.782 118.334 122.279L56.4799 108.368C54.2591 107.864 51.1386 108.135 49.5231 108.964" fill="black"/>
    <path d="M40.6118 114.729C40.3999 114.815 40.1672 114.835 39.9437 114.787C39.7312 114.74 39.6826 114.636 39.8425 114.555L42.626 113.128C42.8381 113.043 43.0706 113.023 43.2941 113.07C43.5076 113.119 43.5542 113.222 43.3953 113.302L40.6118 114.729ZM45.28 110.917L34.8828 116.25L35.5245 116.395C35.6076 116.4 35.6902 116.411 35.7715 116.429L36.1227 116.507C37.1096 116.73 38.4963 116.608 39.2139 116.243L46.9491 112.274C47.6667 111.906 47.447 111.426 46.4612 111.204L46.11 111.125C46.0459 111.111 45.9838 111.09 45.9247 111.062L45.5826 110.984L45.2789 110.917" fill="#777777"/>
    <path d="M45.8842 110.605L45.2769 110.915L45.5805 110.983L45.9226 111.06C45.865 111.032 45.8124 110.995 45.7668 110.951C45.7553 110.94 45.7451 110.929 45.7364 110.916C45.6726 110.816 45.7253 110.715 45.9074 110.615H45.8902" fill="#777777"/>
    <path d="M34.8832 116.249L34.2759 116.559H34.2931C34.5261 116.456 34.777 116.398 35.032 116.39H35.0512H35.1352C35.264 116.383 35.3931 116.383 35.5219 116.39L34.8802 116.245" fill="#777777"/>
    <path d="M35.0352 116.393L35.0412 116.427H35.0908C35.2989 116.413 35.5079 116.424 35.7133 116.46L36.0635 116.538C37.0949 116.771 38.5454 116.647 39.2964 116.261L47.0316 112.293C47.7816 111.909 47.5528 111.407 46.5255 111.174L46.1752 111.096C46.0488 111.071 45.9336 111.007 45.8463 110.912L45.8352 110.899L45.739 110.912L45.7694 110.947C45.815 110.991 45.8676 111.028 45.9252 111.056C45.9843 111.085 46.0465 111.106 46.1105 111.12L46.4617 111.198C47.4476 111.421 47.6672 111.903 46.9496 112.269L39.2145 116.237C38.4968 116.606 37.1101 116.724 36.1233 116.502L35.772 116.423C35.6907 116.406 35.6081 116.394 35.5251 116.389C35.3963 116.382 35.2672 116.382 35.1384 116.389H35.0544H35.0352" fill="black"/>
    <path d="M42.7042 113.146L39.9207 114.574C39.7982 114.637 39.8357 114.719 40.0037 114.756C40.1798 114.794 40.363 114.778 40.5301 114.711L43.3146 113.283C43.436 113.221 43.3986 113.138 43.2306 113.101C43.0545 113.063 42.8711 113.079 42.7042 113.146Z" fill="#4C4C4C"/>
    <path d="M40.5302 114.711C40.3631 114.778 40.1799 114.793 40.0038 114.756C39.8358 114.719 39.8014 114.636 39.9208 114.574L42.7043 113.146C42.8712 113.079 43.0546 113.063 43.2307 113.101C43.3987 113.138 43.4331 113.221 43.3147 113.283L40.5302 114.711ZM42.6223 113.127L39.8388 114.555C39.683 114.635 39.7315 114.739 39.9401 114.786C40.1635 114.834 40.3962 114.814 40.6081 114.729L43.3916 113.301C43.5465 113.222 43.4999 113.118 43.2904 113.07C43.0669 113.023 42.8344 113.043 42.6223 113.127Z" fill="white"/>
    <path d="M65.185 119.007C60.9804 121.163 62.2567 123.965 68.0343 125.265C73.8118 126.565 81.9012 125.868 86.1078 123.714C90.3145 121.56 89.035 118.756 83.2575 117.456C77.48 116.156 69.3906 116.852 65.185 119.007Z" fill="#63F5FF"/>
  </g>
  <mask id="mask11_28856_61196" style="mask-type:luminance" maskUnits="userSpaceOnUse" x="94" y="134" width="9" height="5">
    <path d="M102.192 134.138L102.326 137.902C100.529 138.824 97.0715 139.12 94.6038 138.565L94.4702 134.801C96.9389 135.356 100.396 135.059 102.192 134.138Z" fill="white"/>
  </mask>
  <g mask="url(#mask11_28856_61196)">
    <path d="M102.193 134.138L102.326 137.902C102.21 137.961 102.086 138.018 101.958 138.072L101.824 134.309C101.954 134.254 102.076 134.197 102.193 134.138Z" fill="#2F2F2F" stroke="white" stroke-width="0.0903086" stroke-miterlimit="10"/>
    <path d="M101.826 134.31L101.96 138.073C101.481 138.268 100.985 138.42 100.479 138.527L100.343 134.766C100.85 134.66 101.345 134.509 101.824 134.314" fill="#3F3F3F"/>
    <path d="M101.826 134.31L101.96 138.073C101.481 138.268 100.985 138.42 100.479 138.527L100.343 134.766C100.85 134.66 101.345 134.509 101.824 134.314" stroke="white" stroke-width="0.0903086" stroke-miterlimit="10"/>
    <path d="M100.343 134.766L100.476 138.53C99.9259 138.648 99.3685 138.733 98.8074 138.783L98.6748 135.019C99.2356 134.969 99.7927 134.885 100.343 134.766Z" fill="#9B9B9B" stroke="white" stroke-width="0.0903086" stroke-miterlimit="10"/>
    <path d="M98.6748 135.015L98.8074 138.779C98.2038 138.834 97.5975 138.854 96.9915 138.839L96.8579 135.076C97.4659 135.091 98.0743 135.071 98.6798 135.015" fill="#C2C2C2"/>
    <path d="M98.6748 135.015L98.8074 138.779C98.2038 138.834 97.5975 138.854 96.9915 138.839L96.8579 135.076C97.4659 135.091 98.0743 135.071 98.6798 135.015" stroke="white" stroke-width="0.0903086" stroke-miterlimit="10"/>
    <path d="M96.858 135.077L96.9916 138.841C96.1885 138.827 95.3888 138.735 94.6038 138.566L94.4702 134.802C95.2552 134.97 96.0549 135.063 96.858 135.077Z" fill="#9B9B9B" stroke="white" stroke-width="0.0903086" stroke-miterlimit="10"/>
  </g>
  <path d="M102.192 134.139L102.325 137.903C100.529 138.825 97.071 139.121 94.6033 138.566L94.4697 134.802C96.9384 135.357 100.395 135.06 102.192 134.139Z" stroke="white" stroke-width="0.0903086" stroke-miterlimit="10"/>
  <path d="M132.869 60.0479L132.856 60.0332" stroke="white" stroke-width="0.270926" stroke-miterlimit="10"/>
  <path d="M89.1235 94.0485C84.2686 94.0485 81.8703 92.4858 79.8299 90.8856C78.5007 89.8433 77.5706 88.5595 76.891 87.6229C76.462 87.0361 76.1299 86.5729 75.8742 86.4211C75.531 86.2206 75.3174 86.213 74.957 86.201C74.4152 86.1891 73.8764 86.117 73.3507 85.9861C73.3312 85.9818 73.3113 85.9801 73.2915 85.9809C72.7114 85.9809 70.0128 86.7674 69.7511 86.8442C69.6816 86.9295 69.3496 87.2903 68.3911 87.6383C67.8021 87.8506 67.1813 87.9627 66.5549 87.9701C65.9087 87.9701 65.3819 87.8285 65.0318 87.5607C64.3145 87.0131 63.7241 85.2295 63.6375 84.9591C62.8507 84.6854 62.0814 84.3646 61.3336 83.9986C59.826 83.2779 59.5205 82.6697 59.0889 81.2401C58.738 80.074 58.4153 78.6692 58.3004 78.1557C58.115 78.5566 57.595 79.4505 56.5988 79.5665C56.5362 79.5741 56.4731 79.5778 56.41 79.5776C55.703 79.5776 55.1556 79.1358 55.0895 79.0795C55.0397 79.053 54.7875 78.9021 53.974 78.2171C52.9066 77.3155 52.2879 76.3866 52.0863 75.3767C51.9001 74.4512 52.1987 73.5658 52.3205 73.2587C51.8238 73.3526 51.3195 73.4017 50.8138 73.4054C50.4744 73.4073 50.1355 73.3788 49.8013 73.3201C48.6498 73.1103 48.177 72.5908 48.1066 72.5064C47.8264 72.3371 47.5829 72.1141 47.3901 71.8505C47.332 71.7716 47.2792 71.689 47.2323 71.6031L47.2271 71.5954C47.0691 71.3093 46.976 70.9922 46.9542 70.6665C46.8684 69.387 47.7969 68.8531 48.7811 68.2893C48.8935 68.2253 49.0067 68.1605 49.1183 68.0939C50.867 67.0601 52.0254 66.1244 52.6595 65.2356C53.4317 64.148 54.27 63.858 54.4408 63.8077C54.9737 62.7184 55.4851 62.065 57.0527 61.1029C58.1365 60.4376 69.3015 58.8135 73.7651 58.8135C74.485 58.8135 75.0222 58.8536 75.362 58.9337C78.0546 59.5675 83.8953 65.3678 85.7179 67.409C87.5404 69.4502 90.3162 71.6031 98.1503 73.4447C98.6196 73.5547 99.488 73.611 100.733 73.611C102.233 73.611 104.276 73.5308 106.805 73.3722C106.914 73.3653 107.02 73.3619 107.121 73.3619C108.329 73.3619 109.049 73.8447 109.323 74.8384L110.031 77.2319C111.234 81.5931 111.241 86.1949 110.052 90.5598C109.901 91.1075 109.574 91.5914 109.122 91.9385C108.67 92.2855 108.116 92.4767 107.545 92.4832C103.748 92.5148 100.423 92.5455 97.6543 92.5754C95.6997 92.5967 93.7879 93.1025 92.2485 93.5136C91.206 93.79 90.305 94.0254 89.6606 94.0433C89.4822 94.0459 89.3003 94.0485 89.1235 94.0485ZM65.6127 80.2941C65.9233 80.5048 66.6921 81.0959 66.7024 81.8175C67.9895 81.4764 69.8833 80.9535 70.0394 80.8579C70.0503 80.8521 70.0598 80.8439 70.0672 80.834C70.0746 80.8242 70.0798 80.8128 70.0823 80.8008C70.1064 80.6891 69.9656 80.486 69.8627 80.3376C69.8309 80.2916 69.8009 80.2523 69.7769 80.2114C69.7245 80.1261 69.5195 80.0135 69.2801 79.8804C68.9551 79.7104 68.6469 79.5105 68.3594 79.2833C68.1071 79.3959 66.6003 80.0357 65.6127 80.2941ZM59.4347 74.7037C59.3245 74.741 59.2237 74.8016 59.1394 74.8814C59.0551 74.9613 58.9893 75.0584 58.9465 75.166L58.8469 75.4117C59.2175 75.1118 59.6503 74.8974 60.1143 74.7839C61.0513 74.5638 65.0601 73.6579 65.7775 73.4967L65.1159 72.7853L59.4347 74.7037Z" fill="#0825FC"/>
  <path d="M73.7652 58.8793C74.4516 58.8793 74.9982 58.916 75.3474 58.9979C78.0426 59.6316 83.9374 65.5129 85.6699 67.4535C87.4023 69.394 90.046 71.6075 98.1357 73.5096C98.6454 73.6299 99.5747 73.6802 100.733 73.6802C102.458 73.6802 104.691 73.5745 106.808 73.4414C106.915 73.4346 107.019 73.4312 107.121 73.4312C108.174 73.4312 108.97 73.8031 109.261 74.8599L109.969 77.2551C111.17 81.6047 111.177 86.1947 109.99 90.548C109.844 91.0831 109.526 91.5561 109.085 91.895C108.644 92.2338 108.103 92.4198 107.545 92.4245C104.511 92.4493 100.903 92.4817 97.6535 92.5166C94.3637 92.5525 91.2412 93.9445 89.6624 93.9812C89.4794 93.9858 89.2997 93.9877 89.1235 93.9872C84.3442 93.9872 81.9656 92.4825 79.8694 90.838C77.6951 89.132 76.589 86.7727 75.9069 86.3692C75.2247 85.9657 75.0085 86.3129 73.3662 85.9265C73.3416 85.9215 73.3166 85.9192 73.2915 85.9197C72.6686 85.9197 69.7126 86.7914 69.7126 86.7914C69.7126 86.7914 69.4397 87.1915 68.3689 87.5813C67.7872 87.7916 67.1738 87.9023 66.5549 87.9088C65.9757 87.9088 65.4394 87.7928 65.0713 87.513C64.3188 86.9347 63.6916 84.9106 63.6916 84.9106C63.6916 84.9106 62.8215 84.6402 61.3645 83.9433C59.9075 83.2464 59.5952 82.6877 59.1533 81.224C58.7114 79.7603 58.3219 77.9443 58.3219 77.9443C58.3219 77.9443 57.8516 79.3594 56.5937 79.5061C56.5336 79.5128 56.4732 79.5163 56.4127 79.5163C55.6902 79.5163 55.1256 79.0284 55.1256 79.0284C55.1256 79.0284 54.9248 78.9372 54.0178 78.1712C53.1109 77.4052 52.3738 76.4806 52.1498 75.3666C51.9259 74.2526 52.4261 73.177 52.4261 73.177C51.8955 73.2853 51.3556 73.3425 50.8138 73.3476C50.4782 73.3494 50.143 73.3209 49.8125 73.2623C48.5941 73.0405 48.1496 72.4613 48.1496 72.4613C47.8724 72.2969 47.6319 72.078 47.4425 71.8182C47.3862 71.7412 47.3346 71.6609 47.2881 71.5776C47.2861 71.5732 47.2838 71.5689 47.2812 71.5648C47.1282 71.288 47.0385 70.981 47.0187 70.6658C46.9243 69.2806 48.0818 68.7892 49.1509 68.1538C50.2201 67.5183 51.8658 66.4632 52.7119 65.2767C53.5579 64.0902 54.4855 63.8667 54.4855 63.8667C55.0072 62.7953 55.498 62.1368 57.0863 61.1619C58.1048 60.5366 69.1454 58.8819 73.7652 58.8819M58.69 75.6353C59.0922 75.2509 59.589 74.9785 60.1306 74.8454C61.1672 74.6023 65.8985 73.5335 65.8985 73.5335L65.1331 72.713L59.4159 74.645C59.2969 74.6853 59.1881 74.7508 59.097 74.8369C59.0059 74.9231 58.9346 75.0278 58.8882 75.144L58.69 75.6378M66.6356 81.9038C66.6356 81.9038 69.8481 81.0509 70.0738 80.9144C70.2995 80.7779 69.9614 80.3864 69.8327 80.18C69.704 79.9735 68.9395 79.6989 68.374 79.2144C68.374 79.2144 66.5223 80.0196 65.4566 80.2695C65.4566 80.2695 66.7042 81.0056 66.639 81.9038M73.7686 58.7539C71.6904 58.7539 68.0608 59.0951 64.0605 59.6606C60.9715 60.0991 57.5977 60.6996 57.0245 61.0527C55.4559 62.0157 54.936 62.6734 54.4005 63.7592C54.174 63.8317 53.3631 64.1507 52.6132 65.2033C51.9842 66.0844 50.8327 67.0142 49.0952 68.0437C48.9836 68.1094 48.8703 68.1742 48.7588 68.2382C47.8004 68.7875 46.8102 69.3548 46.9003 70.6752C46.922 71.0072 47.0169 71.3304 47.1783 71.622V71.6271V71.6356C47.2269 71.7244 47.2813 71.8099 47.3413 71.8915C47.5374 72.1592 47.7843 72.3861 48.0681 72.5594C48.1659 72.6729 48.6584 73.1804 49.7919 73.3868C50.1301 73.4459 50.473 73.4744 50.8164 73.4721C51.288 73.4693 51.7585 73.4265 52.2228 73.3442C52.0855 73.7246 51.8547 74.5383 52.0263 75.3913C52.2296 76.4021 52.8723 77.3702 53.9372 78.2684C54.718 78.9278 54.9849 79.0958 55.0527 79.1351C55.1385 79.2093 55.6979 79.6468 56.4101 79.6468C56.4755 79.6466 56.5408 79.6429 56.6057 79.6358C57.523 79.5291 58.0404 78.8092 58.2781 78.3563C58.418 78.9696 58.7071 80.2132 59.028 81.2632C59.4648 82.7133 59.7745 83.33 61.3062 84.0619C62.0463 84.4246 62.8076 84.7427 63.586 85.0147C63.7027 85.3721 64.2845 87.0763 64.9924 87.6171C65.3545 87.8935 65.8942 88.0436 66.5549 88.0436C67.1887 88.0365 67.8167 87.9232 68.4126 87.7084C69.3299 87.3749 69.6885 87.026 69.7855 86.91C70.8152 86.6072 72.817 86.057 73.2889 86.057C73.3038 86.0552 73.3188 86.0552 73.3336 86.057C73.8635 86.1888 74.4066 86.2614 74.9527 86.2737C75.314 86.2865 75.5139 86.2933 75.8382 86.4852C76.0828 86.6294 76.4157 87.0883 76.8362 87.6691C77.5175 88.6074 78.451 89.8963 79.787 90.9446C81.8369 92.5516 84.2489 94.1211 89.121 94.1211C89.2986 94.1211 89.4814 94.1211 89.6633 94.1151C90.3154 94.0998 91.2189 93.8592 92.2666 93.5829C93.7982 93.1768 95.7057 92.6719 97.6526 92.6506C100.42 92.6207 103.745 92.59 107.543 92.5584C108.129 92.5517 108.696 92.3559 109.159 92.0004C109.622 91.6449 109.957 91.1491 110.112 90.588C111.304 86.2122 111.296 81.599 110.09 77.2269L109.382 74.8301C109.1 73.8065 108.359 73.3092 107.119 73.3092C107.016 73.3092 106.909 73.3092 106.798 73.3194C104.271 73.4781 102.23 73.5583 100.73 73.5583C99.4906 73.5583 98.6265 73.5028 98.1632 73.3936C94.5061 72.5338 91.6986 71.552 89.5826 70.3928C87.6477 69.3334 86.5683 68.274 85.7677 67.3776C83.9409 65.3304 78.0855 59.5199 75.3775 58.8827C75.0342 58.8017 74.4911 58.7607 73.766 58.7607L73.7686 58.7539ZM58.9971 75.225L59.0109 75.1909C59.0504 75.0917 59.1111 75.0023 59.1887 74.9287C59.2663 74.855 59.359 74.799 59.4605 74.7644L65.0988 72.8588L65.6565 73.4559C64.7127 73.6691 61.0024 74.5085 60.1049 74.7192C59.7072 74.8155 59.3313 74.9857 58.9971 75.2207V75.225ZM65.7638 80.3224C66.7205 80.0537 68.0282 79.5027 68.3543 79.3637C68.6367 79.5808 68.9376 79.7732 69.2535 79.9386C69.4654 80.0554 69.6825 80.1774 69.7272 80.2465C69.7512 80.2857 69.7812 80.3318 69.813 80.3753C69.8928 80.4904 70.0412 80.7045 70.0232 80.789C70.0232 80.7933 70.0232 80.7975 70.0095 80.8052C69.8533 80.8973 68.0025 81.4083 66.766 81.7375C66.7094 81.1003 66.1104 80.5757 65.7638 80.3224Z" fill="white"/>
  <path d="M89.1235 94.0485C84.2686 94.0485 81.8703 92.4858 79.8299 90.8856C78.5007 89.8433 77.5706 88.5595 76.891 87.6229C76.462 87.0361 76.1299 86.5729 75.8742 86.4211C75.531 86.2206 75.3174 86.213 74.957 86.201C74.4152 86.1891 73.8764 86.117 73.3507 85.9861C73.3312 85.9818 73.3113 85.9801 73.2915 85.9809C72.7114 85.9809 70.0128 86.7674 69.7511 86.8442C69.6816 86.9295 69.3496 87.2903 68.3911 87.6383C67.8021 87.8506 67.1813 87.9627 66.5549 87.9701C65.9087 87.9701 65.3819 87.8285 65.0318 87.5607C64.3145 87.0131 63.7241 85.2295 63.6375 84.9591C62.8507 84.6854 62.0814 84.3646 61.3336 83.9986C59.826 83.2779 59.5205 82.6697 59.0889 81.2401C58.738 80.074 58.4153 78.6692 58.3004 78.1557C58.115 78.5566 57.595 79.4505 56.5988 79.5665C56.5362 79.5741 56.4731 79.5778 56.41 79.5776C55.703 79.5776 55.1556 79.1358 55.0895 79.0795C55.0397 79.053 54.7875 78.9021 53.974 78.2171C52.9066 77.3155 52.2879 76.3866 52.0863 75.3767C51.9001 74.4512 52.1987 73.5658 52.3205 73.2587C51.8238 73.3526 51.3195 73.4017 50.8138 73.4054C50.4744 73.4073 50.1355 73.3788 49.8013 73.3201C48.6498 73.1103 48.177 72.5908 48.1066 72.5064C47.8264 72.3371 47.5829 72.1141 47.3901 71.8505C47.332 71.7716 47.2792 71.689 47.2323 71.6031L47.2271 71.5954C47.0691 71.3093 46.976 70.9922 46.9542 70.6665C46.8684 69.387 47.7969 68.8531 48.7811 68.2893C48.8935 68.2253 49.0067 68.1605 49.1183 68.0939C50.867 67.0601 52.0254 66.1244 52.6595 65.2356C53.4317 64.148 54.27 63.858 54.4408 63.8077C54.9737 62.7184 55.4851 62.065 57.0527 61.1029C58.1365 60.4376 69.3015 58.8135 73.7651 58.8135C74.485 58.8135 75.0222 58.8536 75.362 58.9337C78.0546 59.5675 83.8953 65.3678 85.7179 67.409C87.5404 69.4502 90.3162 71.6031 98.1503 73.4447C98.6196 73.5547 99.488 73.611 100.733 73.611C102.233 73.611 104.276 73.5308 106.805 73.3722C106.914 73.3653 107.02 73.3619 107.121 73.3619C108.329 73.3619 109.049 73.8447 109.323 74.8384L110.031 77.2319C111.234 81.5931 111.241 86.1949 110.052 90.5598C109.901 91.1075 109.574 91.5914 109.122 91.9385C108.67 92.2855 108.116 92.4767 107.545 92.4832C103.748 92.5148 100.423 92.5455 97.6543 92.5754C95.6997 92.5967 93.7879 93.1025 92.2485 93.5136C91.206 93.79 90.305 94.0254 89.6606 94.0433C89.4822 94.0459 89.3003 94.0485 89.1235 94.0485ZM65.6127 80.2941C65.9233 80.5048 66.6921 81.0959 66.7024 81.8175C67.9895 81.4764 69.8833 80.9535 70.0394 80.8579C70.0503 80.8521 70.0598 80.8439 70.0672 80.834C70.0746 80.8242 70.0798 80.8128 70.0823 80.8008C70.1064 80.6891 69.9656 80.486 69.8627 80.3376C69.8309 80.2916 69.8009 80.2523 69.7769 80.2114C69.7245 80.1261 69.5195 80.0135 69.2801 79.8804C68.9551 79.7104 68.6469 79.5105 68.3594 79.2833C68.1071 79.3959 66.6003 80.0357 65.6127 80.2941ZM59.4347 74.7037C59.3245 74.741 59.2237 74.8016 59.1394 74.8814C59.0551 74.9613 58.9893 75.0584 58.9465 75.166L58.8469 75.4117C59.2175 75.1118 59.6503 74.8974 60.1143 74.7839C61.0513 74.5638 65.0601 73.6579 65.7775 73.4967L65.1159 72.7853L59.4347 74.7037Z" fill="#0825FC"/>
  <path d="M73.7652 58.8793C74.4516 58.8793 74.9982 58.916 75.3474 58.9979C78.0426 59.6316 83.9374 65.5129 85.6699 67.4535C87.4023 69.394 90.046 71.6075 98.1357 73.5096C98.6454 73.6299 99.5747 73.6802 100.733 73.6802C102.458 73.6802 104.691 73.5745 106.808 73.4414C106.915 73.4346 107.019 73.4312 107.121 73.4312C108.174 73.4312 108.97 73.8031 109.261 74.8599L109.969 77.2551C111.17 81.6047 111.177 86.1947 109.99 90.548C109.844 91.0831 109.526 91.5561 109.085 91.895C108.644 92.2338 108.103 92.4198 107.545 92.4245C104.511 92.4493 100.903 92.4817 97.6535 92.5166C94.3637 92.5525 91.2412 93.9445 89.6624 93.9812C89.4794 93.9858 89.2997 93.9877 89.1235 93.9872C84.3442 93.9872 81.9656 92.4825 79.8694 90.838C77.6951 89.132 76.589 86.7727 75.9069 86.3692C75.2247 85.9657 75.0085 86.3129 73.3662 85.9265C73.3416 85.9215 73.3166 85.9192 73.2915 85.9197C72.6686 85.9197 69.7126 86.7914 69.7126 86.7914C69.7126 86.7914 69.4397 87.1915 68.3689 87.5813C67.7872 87.7916 67.1738 87.9023 66.5549 87.9088C65.9757 87.9088 65.4394 87.7928 65.0713 87.513C64.3188 86.9347 63.6916 84.9106 63.6916 84.9106C63.6916 84.9106 62.8215 84.6402 61.3645 83.9433C59.9075 83.2464 59.5952 82.6877 59.1533 81.224C58.7114 79.7603 58.3219 77.9443 58.3219 77.9443C58.3219 77.9443 57.8516 79.3594 56.5937 79.5061C56.5336 79.5128 56.4732 79.5163 56.4127 79.5163C55.6902 79.5163 55.1256 79.0284 55.1256 79.0284C55.1256 79.0284 54.9248 78.9372 54.0178 78.1712C53.1109 77.4052 52.3738 76.4806 52.1498 75.3666C51.9259 74.2526 52.4261 73.177 52.4261 73.177C51.8955 73.2853 51.3556 73.3425 50.8138 73.3476C50.4782 73.3494 50.143 73.3209 49.8125 73.2623C48.5941 73.0405 48.1496 72.4613 48.1496 72.4613C47.8724 72.2969 47.6319 72.078 47.4425 71.8182C47.3862 71.7412 47.3346 71.6609 47.2881 71.5776C47.2861 71.5732 47.2838 71.5689 47.2812 71.5648C47.1282 71.288 47.0385 70.981 47.0187 70.6658C46.9243 69.2806 48.0818 68.7892 49.1509 68.1538C50.2201 67.5183 51.8658 66.4632 52.7119 65.2767C53.5579 64.0902 54.4855 63.8667 54.4855 63.8667C55.0072 62.7953 55.498 62.1368 57.0863 61.1619C58.1048 60.5366 69.1454 58.8819 73.7652 58.8819M58.69 75.6353C59.0922 75.2509 59.589 74.9785 60.1306 74.8454C61.1672 74.6023 65.8985 73.5335 65.8985 73.5335L65.1331 72.713L59.4159 74.645C59.2969 74.6853 59.1881 74.7508 59.097 74.8369C59.0059 74.9231 58.9346 75.0278 58.8882 75.144L58.69 75.6378M66.6356 81.9038C66.6356 81.9038 69.8481 81.0509 70.0738 80.9144C70.2995 80.7779 69.9614 80.3864 69.8327 80.18C69.704 79.9735 68.9395 79.6989 68.374 79.2144C68.374 79.2144 66.5223 80.0196 65.4566 80.2695C65.4566 80.2695 66.7042 81.0056 66.639 81.9038M73.7686 58.7539C71.6904 58.7539 68.0608 59.0951 64.0605 59.6606C60.9715 60.0991 57.5977 60.6996 57.0245 61.0527C55.4559 62.0157 54.936 62.6734 54.4005 63.7592C54.174 63.8317 53.3631 64.1507 52.6132 65.2033C51.9842 66.0844 50.8327 67.0142 49.0952 68.0437C48.9836 68.1094 48.8703 68.1742 48.7588 68.2382C47.8004 68.7875 46.8102 69.3548 46.9003 70.6752C46.922 71.0072 47.0169 71.3304 47.1783 71.622V71.6271V71.6356C47.2269 71.7244 47.2813 71.8099 47.3413 71.8915C47.5374 72.1592 47.7843 72.3861 48.0681 72.5594C48.1659 72.6729 48.6584 73.1804 49.7919 73.3868C50.1301 73.4459 50.473 73.4744 50.8164 73.4721C51.288 73.4693 51.7585 73.4265 52.2228 73.3442C52.0855 73.7246 51.8547 74.5383 52.0263 75.3913C52.2296 76.4021 52.8723 77.3702 53.9372 78.2684C54.718 78.9278 54.9849 79.0958 55.0527 79.1351C55.1385 79.2093 55.6979 79.6468 56.4101 79.6468C56.4755 79.6466 56.5408 79.6429 56.6057 79.6358C57.523 79.5291 58.0404 78.8092 58.2781 78.3563C58.418 78.9696 58.7071 80.2132 59.028 81.2632C59.4648 82.7133 59.7745 83.33 61.3062 84.0619C62.0463 84.4246 62.8076 84.7427 63.586 85.0147C63.7027 85.3721 64.2845 87.0763 64.9924 87.6171C65.3545 87.8935 65.8942 88.0436 66.5549 88.0436C67.1887 88.0365 67.8167 87.9232 68.4126 87.7084C69.3299 87.3749 69.6885 87.026 69.7855 86.91C70.8152 86.6072 72.817 86.057 73.2889 86.057C73.3038 86.0552 73.3188 86.0552 73.3336 86.057C73.8635 86.1888 74.4066 86.2614 74.9527 86.2737C75.314 86.2865 75.5139 86.2933 75.8382 86.4852C76.0828 86.6294 76.4157 87.0883 76.8362 87.6691C77.5175 88.6074 78.451 89.8963 79.787 90.9446C81.8369 92.5516 84.2489 94.1211 89.121 94.1211C89.2986 94.1211 89.4814 94.1211 89.6633 94.1151C90.3154 94.0998 91.2189 93.8592 92.2666 93.5829C93.7982 93.1768 95.7057 92.6719 97.6526 92.6506C100.42 92.6207 103.745 92.59 107.543 92.5584C108.129 92.5517 108.696 92.3559 109.159 92.0004C109.622 91.6449 109.957 91.1491 110.112 90.588C111.304 86.2122 111.296 81.599 110.09 77.2269L109.382 74.8301C109.1 73.8065 108.359 73.3092 107.119 73.3092C107.016 73.3092 106.909 73.3092 106.798 73.3194C104.271 73.4781 102.23 73.5583 100.73 73.5583C99.4906 73.5583 98.6265 73.5028 98.1632 73.3936C94.5061 72.5338 91.6986 71.552 89.5826 70.3928C87.6477 69.3334 86.5683 68.274 85.7677 67.3776C83.9409 65.3304 78.0855 59.5199 75.3775 58.8827C75.0342 58.8017 74.4911 58.7607 73.766 58.7607L73.7686 58.7539ZM58.9971 75.225L59.0109 75.1909C59.0504 75.0917 59.1111 75.0023 59.1887 74.9287C59.2663 74.855 59.359 74.799 59.4605 74.7644L65.0988 72.8588L65.6565 73.4559C64.7127 73.6691 61.0024 74.5085 60.1049 74.7192C59.7072 74.8155 59.3313 74.9857 58.9971 75.2207V75.225ZM65.7638 80.3224C66.7205 80.0537 68.0282 79.5027 68.3543 79.3637C68.6367 79.5808 68.9376 79.7732 69.2535 79.9386C69.4654 80.0554 69.6825 80.1774 69.7272 80.2465C69.7512 80.2857 69.7812 80.3318 69.813 80.3753C69.8928 80.4904 70.0412 80.7045 70.0232 80.789C70.0232 80.7933 70.0232 80.7975 70.0095 80.8052C69.8533 80.8973 68.0025 81.4083 66.766 81.7375C66.7094 81.1003 66.1104 80.5757 65.7638 80.3224Z" fill="white"/>
  <path d="M90.7938 80.5623C90.8667 82.8764 91.8483 74.2647 105.76 73.5038C102.535 73.6872 99.28 73.7811 98.1353 73.5115C90.0481 71.6102 87.4027 69.3959 85.6694 67.4553C85.3091 67.051 84.7659 66.4753 84.1104 65.8125C85.5527 67.7522 87.9476 70.55 89.0073 73.4373C90.381 77.1819 90.7474 79.1122 90.7938 80.5623Z" fill="#2C2B2B"/>
  <path d="M58.2672 70.9796C57.8725 70.913 57.6246 70.8695 57.5327 70.9727C55.8647 72.8416 52.3089 73.1717 52.4453 73.1453C52.4453 73.1453 51.9451 74.2209 52.169 75.3349C52.393 76.4489 53.1292 77.3735 54.037 78.1395C54.9448 78.9055 55.1448 78.9925 55.1448 78.9925C55.1448 78.9925 55.8029 79.564 56.6103 79.4701C57.8682 79.3234 58.3385 77.9092 58.3385 77.9092C58.3385 77.9092 58.7289 79.7252 59.1708 81.188C59.6127 82.6509 59.9233 83.2113 61.3811 83.9082C62.839 84.6051 63.7082 84.8755 63.7082 84.8755C63.7082 84.8755 64.338 86.9022 65.0905 87.4771C65.843 88.052 67.3215 87.9343 68.388 87.5453C69.4546 87.1564 69.7318 86.7563 69.7318 86.7563C69.7318 86.7563 72.9846 85.7967 73.3854 85.8905C75.0277 86.2769 75.2439 85.9298 75.9261 86.3332C76.6082 86.7367 77.7151 89.0969 79.8886 90.802C80.1203 90.9837 80.3545 91.1628 80.5956 91.3385C80.406 91.1816 80.3004 87.1879 80.8187 85.9264C81.0118 85.4564 81.0547 85.4103 80.503 85.1706C79.6277 84.7893 78.9207 84.6955 78.1004 84.2136C75.5159 82.6987 72.4158 79.2705 65.916 73.501C65.6929 73.3022 65.3514 72.8706 65.1609 72.6881C63.8086 71.3958 60.9186 71.1382 59.7071 71.1237C59.2233 71.1131 58.7412 71.0635 58.2655 70.9753M60.1481 74.8137C59.6067 74.9472 59.1099 75.2196 58.7074 75.6036L58.9056 75.1097C58.9523 74.9937 59.0236 74.8892 59.1146 74.8032C59.2057 74.7172 59.3144 74.6518 59.4333 74.6115L65.1497 72.6821L65.9151 73.5052C65.9151 73.5052 61.1864 74.574 60.1498 74.8171L60.1481 74.8137ZM70.0913 80.8801C69.8656 81.0183 66.653 81.8696 66.653 81.8696C66.7183 80.9714 65.4706 80.2353 65.4706 80.2353C66.5381 79.9853 68.388 79.1801 68.388 79.1801C68.9552 79.6646 69.7206 79.9384 69.8467 80.1457C69.9729 80.353 70.3187 80.7445 70.093 80.8835L70.0913 80.8801Z" fill="#232323"/>
  <path d="M66.7379 79.8587C67.5702 79.5542 68.3536 79.2147 68.3536 79.2147C67.1772 77.3211 67.0579 74.966 65.8833 73.5449L64.3979 73.881C65.1736 73.7061 67.6689 75.5332 66.7379 79.8587Z" fill="#0F0F0F"/>
  <path d="M65.1298 72.6676C64.1139 71.697 62.1729 71.3498 60.8584 71.2432C62.8268 71.4931 63.575 72.5226 63.7621 73.1138L65.1195 72.6583" fill="#0F0F0F"/>
  <path d="M70.1693 80.4961C70.2551 80.6479 70.2019 80.8654 70.0835 80.9396C69.9856 81.0002 69.3112 81.1955 68.5947 81.3985C70.3769 81.6792 71.7284 85.0391 71.4349 86.2759C72.2732 86.055 73.1459 85.8494 73.3398 85.8955C71.4443 84.4522 70.5142 80.804 70.1693 80.4961Z" fill="#0F0F0F"/>
  <path d="M70.4701 84.733C70.2461 82.3941 68.0263 81.7407 66.9254 81.954C66.8602 81.9668 66.9134 85.5365 64.105 85.7514C64.3624 86.3579 64.7271 87.0829 65.1346 87.3909C65.888 87.9658 67.3656 87.8481 68.4322 87.4591C69.4987 87.0702 69.7768 86.6692 69.7768 86.6692C69.7768 86.6692 70.5739 85.8188 70.4701 84.733Z" fill="#0825FC"/>
  <path d="M65.1243 82.802C65.0617 81.4048 64.2851 80.139 62.2704 79.2007C61.1678 78.6889 62.1168 76.6998 61.5891 76.0268C61.203 75.5337 60.5311 75.1516 59.9022 75.1738L59.7246 75.1797C59.3964 75.1875 59.0806 75.3057 58.8288 75.515C58.7764 75.5593 58.7301 75.6003 58.6897 75.6395C58.6897 75.6395 58.386 75.9201 58.2908 76.7543C58.2428 77.1517 58.2523 77.5538 58.3191 77.9485C58.3191 77.9485 58.7095 79.7654 59.1505 81.2282C59.5916 82.6911 59.9039 83.2515 61.3617 83.9475C62.8196 84.6436 63.6914 84.9114 63.6914 84.9114C63.6914 84.9114 65.2359 85.3524 65.1243 82.802Z" fill="#0825FC"/>
  <path d="M57.2651 75.9563C56.9021 74.9327 55.2761 73.6643 54.0525 73.6038C52.2969 73.5185 52.1108 75.1707 52.1494 75.3635C52.3733 76.4775 53.1095 77.4021 54.0174 78.1681C54.9252 78.9341 55.1251 79.027 55.1251 79.027C55.4582 79.297 55.863 79.465 56.2903 79.5107C56.8472 79.4535 57.84 77.577 57.2651 75.9563Z" fill="#0825FC"/>
  <path d="M64.5001 63.2557C65.1437 63.242 65.7546 63.2275 66.3612 63.2087C68.9783 63.1234 71.6675 64.0617 73.2489 64.008C73.635 63.996 70.0663 62.0086 67.8646 61.6538C67.0408 61.5207 63.8317 61.7715 63.0388 61.4704C62.3935 61.2357 61.8567 60.7745 61.5295 60.1738C59.2274 60.5534 57.464 60.9279 57.0856 61.1599C55.4974 62.1348 55.0066 62.7933 54.4849 63.8647C54.4849 63.8647 55.8526 63.4612 56.7004 63.4382" fill="#2C2B2B"/>
  <path d="M56.7007 63.435C60.1681 63.3267 62.4917 63.2977 64.5004 63.2559L56.7007 63.435Z" fill="#2C2B2B"/>
  <path d="M79.2221 43.987L48.332 83.0357C48.0422 83.4019 47.6944 83.7187 47.3023 83.974L45.4275 85.3814C45.3425 85.4362 45.2424 85.4633 45.1412 85.4589C45.04 85.4544 44.9427 85.4187 44.8629 85.3567L43.0404 83.9313C42.9607 83.8691 42.9027 83.7836 42.8746 83.6869C42.8464 83.5902 42.8495 83.4871 42.8833 83.3922L43.8169 81.2487C43.974 80.8083 44.2024 80.3962 44.493 80.0289L75.3402 41.0332C76.1742 39.9789 77.7179 39.7409 78.7879 40.5572C79.0448 40.7527 79.2601 40.997 79.4213 41.2759C79.5824 41.5548 79.6862 41.8627 79.7266 42.1818C79.767 42.501 79.7432 42.8249 79.6566 43.1348C79.57 43.4447 79.4223 43.7344 79.2221 43.987Z" fill="#3F3A39"/>
  <path d="M43.6315 84.4005L43.0394 83.9373C42.9597 83.8751 42.9016 83.7897 42.8733 83.693C42.845 83.5963 42.8479 83.4932 42.8815 83.3982L43.8159 81.2547C43.9731 80.8142 44.2015 80.4022 44.4921 80.0349L75.3401 41.0332C76.1742 39.9789 77.7169 39.7409 78.7878 40.5572C78.8956 40.6403 78.9969 40.7316 79.0907 40.8301C78.0456 40.2518 76.6933 40.5333 75.9322 41.4955L45.0833 80.4981C44.7925 80.8656 44.5641 81.2779 44.4071 81.7187L43.4736 83.8622C43.4401 83.9571 43.4374 84.06 43.4657 84.1565C43.494 84.253 43.552 84.3383 43.6315 84.4005Z" fill="#888888"/>
  <path d="M78.7534 43.621L47.8633 82.6731C47.5738 83.0395 47.226 83.3564 46.8337 83.6114L44.9588 85.0196C44.8737 85.0743 44.7736 85.1013 44.6724 85.0967C44.5712 85.0921 44.4739 85.0562 44.3942 84.994L43.6177 84.3867C43.6973 84.449 43.7945 84.4851 43.8957 84.4898C43.9969 84.4945 44.0971 84.4678 44.1823 84.4132L46.0563 83.004C46.4484 82.7489 46.7962 82.432 47.0859 82.0658L77.976 43.0137C78.31 42.5937 78.4946 42.0755 78.5009 41.5401C78.5073 41.0048 78.3351 40.4824 78.0112 40.0547C78.1624 40.1187 78.3063 40.1988 78.4402 40.2935C78.9108 40.703 79.2053 41.2764 79.263 41.8954C79.3206 42.5144 79.137 43.1318 78.75 43.6202L78.7534 43.621Z" fill="#0825FC"/>
  <path d="M43.152 84.1097L44.6682 85.2945C44.7113 85.3281 44.7457 85.3714 44.7685 85.4208C44.7913 85.4703 44.8019 85.5244 44.7993 85.5787C44.7968 85.6331 44.7813 85.686 44.754 85.7332C44.7267 85.7803 44.6885 85.8203 44.6425 85.8498L42.1421 87.7264C42.0527 87.7942 41.9433 87.8306 41.8308 87.8299C41.7184 87.8291 41.6094 87.7912 41.521 87.7222C41.4326 87.6531 41.3698 87.5568 41.3424 87.4484C41.315 87.34 41.3247 87.2257 41.3698 87.1233L42.6132 84.2658C42.631 84.2141 42.6611 84.1673 42.7009 84.1296C42.7407 84.0918 42.789 84.0641 42.8419 84.0488C42.8947 84.0335 42.9504 84.031 43.0044 84.0416C43.0584 84.0522 43.109 84.0756 43.152 84.1097Z" fill="#3F3A39"/>
  <path d="M41.9254 87.8213C41.835 87.8368 41.7421 87.8277 41.6565 87.795C41.5708 87.7623 41.4957 87.7072 41.439 87.6355C41.3823 87.5639 41.3461 87.4783 41.3343 87.3879C41.3225 87.2974 41.3355 87.2055 41.372 87.1218L42.6153 84.2652C42.6333 84.2139 42.6633 84.1676 42.7029 84.1301C42.7425 84.0927 42.7905 84.0652 42.843 84.0499C42.8955 84.0346 42.9508 84.032 43.0045 84.0423C43.0582 84.0526 43.1086 84.0755 43.1516 84.1091L43.7522 84.5765C43.7094 84.5427 43.659 84.5196 43.6053 84.5091C43.5516 84.4986 43.4962 84.501 43.4436 84.5161C43.3911 84.5312 43.3429 84.5586 43.3031 84.596C43.2634 84.6333 43.2332 84.6796 43.2151 84.7309L41.9726 87.5893C41.9383 87.6617 41.9221 87.7413 41.9254 87.8213Z" fill="#888888"/>
  <path d="M79.158 43.921L48.2679 82.9731C47.9781 83.3393 47.6304 83.6562 47.2382 83.9114L45.3634 85.3188C45.2785 85.3739 45.1784 85.4011 45.0771 85.3967C44.9758 85.3922 44.8785 85.3563 44.7988 85.294L43.5683 84.3319L42.9763 83.8696C42.9615 83.858 42.9474 83.8454 42.9342 83.832C42.8819 83.7809 42.8423 83.7184 42.8184 83.6495C42.7819 83.546 42.7819 83.4332 42.8184 83.3296L43.752 81.1869C43.9086 80.7462 44.1367 80.3339 44.4272 79.9663L75.2753 40.9663C75.3365 40.8887 75.4024 40.8149 75.4726 40.7454C75.4898 40.7274 75.507 40.7112 75.525 40.6942C75.5952 40.6275 75.6694 40.5651 75.7472 40.5074C75.7781 40.4843 75.809 40.4622 75.8407 40.4408C75.8725 40.4195 75.8965 40.4033 75.9265 40.3854C75.9566 40.3675 76.0124 40.3368 76.0492 40.3146C76.464 40.0826 76.9378 39.9758 77.4127 40.0074C77.8876 40.0389 78.3429 40.2073 78.723 40.492C78.7556 40.517 78.7873 40.5426 78.8182 40.5688C78.8491 40.5949 78.8731 40.6163 78.8903 40.6328C78.9074 40.6473 78.9237 40.6626 78.94 40.6788C78.9563 40.695 78.9735 40.7112 78.9898 40.7283C79.0061 40.7454 79.0044 40.7428 79.0113 40.7496L79.0233 40.7633C79.4209 41.1868 79.6529 41.7378 79.6775 42.3167C79.702 42.8955 79.5175 43.464 79.1571 43.9193L79.158 43.921Z" stroke="white" stroke-width="0.229672" stroke-miterlimit="10"/>
  <path d="M78.7241 40.4906C78.7567 40.5153 78.7885 40.5417 78.8194 40.5682C78.7885 40.5415 78.7567 40.5159 78.7241 40.4914C78.3438 40.2062 77.888 40.0374 77.4126 40.0059C76.9372 39.9744 76.4629 40.0815 76.0479 40.314C76.4628 40.0813 76.9371 39.974 77.4125 40.0053C77.8879 40.0367 78.3438 40.2053 78.7241 40.4906Z" stroke="white" stroke-width="0.229672" stroke-miterlimit="10"/>
  <path d="M44.5787 85.7827L42.0783 87.6592C42.0147 87.7081 41.9403 87.7411 41.8613 87.7556L41.8175 87.7616C41.7444 87.767 41.671 87.7569 41.6022 87.7319C41.5334 87.7069 41.4708 87.6676 41.4185 87.6166C41.3946 87.5944 41.373 87.5698 41.3541 87.5432C41.3041 87.4734 41.2735 87.3917 41.2654 87.3063C41.2572 87.221 41.2719 87.135 41.3078 87.057L42.5511 84.1995C42.5692 84.1484 42.5993 84.1023 42.6389 84.0651C42.6785 84.0278 42.7264 84.0005 42.7788 83.9853C42.8311 83.9702 42.8863 83.9676 42.9398 83.9778C42.9933 83.9881 43.0436 84.0109 43.0866 84.0443L43.6872 84.5109L44.607 85.2291C44.6496 85.2629 44.6835 85.3063 44.7059 85.3557C44.7283 85.405 44.7385 85.459 44.7357 85.5131C44.733 85.5672 44.7173 85.6199 44.69 85.6667C44.6627 85.7136 44.6245 85.7534 44.5787 85.7827Z" stroke="white" stroke-width="0.229672" stroke-miterlimit="10"/>
  <path d="M56.8783 63.439L64.8994 63.2471L59.709 71.1269C59.709 71.1269 57.8213 70.9043 57.7355 70.9103C57.6497 70.9162 53.9103 73.3293 49.5977 73.2133" fill="#0825FC"/>
  <path d="M82.0893 117.752C76.0278 116.377 67.885 116.944 63.8937 119.013C59.9024 121.082 61.578 123.876 67.6354 125.251C73.6927 126.625 81.8406 126.058 85.8319 123.988C89.8232 121.918 88.1476 119.125 82.0893 117.752Z" fill="#8CF3FF"/>
  <path d="M62.1696 122.709L21 51L133.5 55L87.627 122.716L62.1696 122.709Z" fill="url(#paint0_linear_28856_61196)"/>
  <defs>
    <linearGradient id="paint0_linear_28856_61196" x1="77" y1="49.5" x2="76.033" y2="122.716" gradientUnits="userSpaceOnUse">
      <stop stop-color="#93C2E3" stop-opacity="0"/>
      <stop offset="0.295022" stop-color="#C8E9FF" stop-opacity="0"/>
      <stop offset="1" stop-color="#8CF3FF"/>
    </linearGradient>
  </defs>
</svg>