<svg width="240" height="240" viewBox="0 0 240 240" fill="none" xmlns="http://www.w3.org/2000/svg"><rect x="146.957" y="165.082" width="10.237" height="3.08" rx="1.54" transform="rotate(-30.675 146.957 165.082)" fill="#000" stroke="#fff" stroke-width=".311"/><path d="M193.702 151.637c-6.839 3.757-11.434 3.396-15.556 2.705-2.685-.45-4.995-1.551-6.679-2.353-1.052-.501-1.884-.896-2.358-.914-.626-.021-.94.128-1.45.395a11.73 11.73 0 0 1-2.428.945.505.505 0 0 0-.079.043c-.808.444-3.96 3.611-4.299 3.951-.034.195-.236.961-1.301 2.181a8.94 8.94 0 0 1-2.332 1.895c-.913.502-1.769.71-2.475.6-1.432-.222-3.631-2.264-3.993-2.609a32.8 32.8 0 0 1-3.981.419c-2.693.145-3.598-.483-5.324-2.183-1.361-1.34-2.861-3.022-3.46-3.703.047.751-.02 2.342-1.314 3.26a3.055 3.055 0 0 1-.26.163c-.996.547-2.11.347-2.261.317-.1.001-.592-.019-2.239-.361-2.211-.454-3.815-1.292-4.884-2.574-.96-1.141-1.242-2.587-1.319-3.151-.618.507-1.279.958-1.976 1.348a9.161 9.161 0 0 1-1.496.662c-1.776.587-2.849.227-3.03.157a3.975 3.975 0 0 1-1.943-.607l-.019-.013a3.604 3.604 0 0 1-1.105-1.104c-1.128-1.759-.189-3.308.719-4.805.108-.178.217-.357.322-.537 1.655-2.816 2.555-5.034 2.755-6.779.241-2.122 1.175-3.185 1.395-3.407-.103-1.952.115-3.28 1.573-5.854 1.008-1.784 15.461-12.722 21.744-16.174 1.015-.557 1.804-.915 2.347-1.065 4.287-1.19 17.029 2.52 21.185 4.006 4.156 1.486 9.728 2.386 22.18-1.057.743-.205 2.007-.796 3.757-1.758 2.111-1.159 4.922-2.853 8.357-5.031a8.45 8.45 0 0 1 .439-.261c1.709-.939 3.109-.81 4.276.395l2.859 2.845a41.033 41.033 0 0 1 10.412 18.884 4.254 4.254 0 0 1-2.042 4.69 7230.198 7230.198 0 0 0-13.846 7.777c-2.732 1.539-5.028 3.733-6.875 5.499-1.252 1.199-2.336 2.233-3.236 2.749-.259.135-.51.276-.76.414zm-43.749-1.359c.632.067 2.095.324 2.67 1.298 1.545-1.48 3.78-3.661 3.923-3.915a.101.101 0 0 0 .018-.046.115.115 0 0 0-.004-.049c-.051-.167-.417-.354-.656-.471-.083-.042-.158-.079-.22-.114-.133-.075-.526-.079-.944-.082a9.824 9.824 0 0 1-1.747-.126c-.295.377-1.866 2.379-3.04 3.505zm-13.078-3.112a1.267 1.267 0 0 0-.323 1.013l.042.334a5.173 5.173 0 0 1 1.265-1.794c1.134-1.023 5.972-5.321 6.931-6.172l-1.427-.478-6.488 7.097z" fill="#0031F3"/><path d="M144.702 113.647c.966-.53 1.762-.9 2.318-1.053 4.286-1.189 17.161 2.592 21.108 4.002 3.947 1.411 9.396 2.503 22.256-1.053.812-.224 2.155-.873 3.786-1.769 2.427-1.333 5.488-3.209 8.364-5.035a8.45 8.45 0 0 1 .439-.261c1.482-.814 2.889-.901 4.123.371l2.86 2.847a40.874 40.874 0 0 1 10.379 18.824 4.106 4.106 0 0 1-1.98 4.548 7557.758 7557.758 0 0 0-13.847 7.777c-4.602 2.594-7.913 6.981-10.106 8.252-.258.141-.505.289-.754.425-6.724 3.694-11.243 3.401-15.472 2.691-4.386-.736-7.786-3.223-9.056-3.27-1.269-.047-1.308.614-3.922 1.337a.564.564 0 0 0-.11.048c-.876.482-4.356 4.002-4.356 4.002s-.073.778-1.277 2.158a8.79 8.79 0 0 1-2.298 1.867c-.814.447-1.662.699-2.395.585-1.508-.233-3.964-2.623-3.964-2.623-1.333.231-2.68.374-4.032.43-2.593.14-3.468-.411-5.228-2.145-1.76-1.733-3.724-4.006-3.724-4.006s.44 2.37-1.217 3.55a2.608 2.608 0 0 1-.246.155c-1.017.558-2.186.301-2.186.301s-.355.026-2.227-.358c-1.872-.384-3.63-1.126-4.813-2.531-1.183-1.406-1.316-3.318-1.316-3.318a13.468 13.468 0 0 1-2.138 1.485c-.471.262-.964.48-1.475.653-1.887.627-2.964.15-2.964.15a3.86 3.86 0 0 1-1.899-.587l-.019-.013a3.443 3.443 0 0 1-1.067-1.065c-1.211-1.891.028-3.483 1.045-5.209 1.017-1.726 2.509-4.486 2.77-6.829.262-2.343 1.399-3.37 1.399-3.37-.1-1.92.077-3.234 1.554-5.844.946-1.672 15.194-12.552 21.696-16.124m-8.181 35.405a5.13 5.13 0 0 1 1.414-2.233c1.269-1.146 7.096-6.317 7.096-6.317l-1.719-.575-6.545 7.16a1.396 1.396 0 0 0-.357 1.116l.104.854m16.058 2.739s3.857-3.688 4.066-4.059c.21-.372-.559-.665-.912-.859-.353-.195-1.633.009-2.807-.239 0 0-1.979 2.572-3.289 3.748 0 0 2.33.081 2.938 1.402m-8.012-38.362c-2.928 1.608-7.774 4.895-12.962 8.795-3.709 2.786-8.259 6.411-8.833 7.428-1.459 2.578-1.684 3.918-1.593 5.869-.284.305-1.158 1.394-1.391 3.439-.198 1.729-1.094 3.93-2.738 6.73-.097.176-.214.358-.321.535-.928 1.532-1.889 3.114-.719 4.941.294.46.685.85 1.145 1.143l.02.012c.139.088.283.168.432.239a4.206 4.206 0 0 0 1.554.388c.245.094 1.35.423 3.094-.163a9.172 9.172 0 0 0 1.518-.671 13.506 13.506 0 0 0 1.822-1.222c.115.676.441 1.958 1.313 2.995 1.082 1.284 2.743 2.167 4.958 2.617 1.583.325 2.107.361 2.252.363.2.04 1.325.222 2.339-.335.094-.052.185-.109.272-.171 1.162-.832 1.375-2.167 1.378-3.016.7.791 2.016 2.256 3.235 3.447 1.754 1.727 2.677 2.366 5.421 2.219a34.099 34.099 0 0 0 3.931-.411c.481.452 2.6 2.377 4.012 2.596.736.113 1.62-.099 2.558-.614a9.125 9.125 0 0 0 2.367-1.922c1.016-1.164 1.263-1.939 1.315-2.199.998-1.008 3.562-3.528 4.242-3.902a.35.35 0 0 1 .054-.029 11.803 11.803 0 0 0 2.456-.947c.511-.258.793-.401 1.389-.375.447.015 1.267.406 2.307.901 1.693.807 4.014 1.912 6.715 2.365 4.145.695 8.764 1.058 15.639-2.718.25-.138.506-.279.759-.429.91-.527 1.999-1.568 3.258-2.773 1.839-1.758 4.126-3.945 6.845-5.477 3.871-2.18 8.528-4.797 13.846-7.776a4.374 4.374 0 0 0 2.104-4.832 41.177 41.177 0 0 0-10.441-18.936l-2.864-2.85c-1.194-1.231-2.684-1.372-4.426-.415-.149.082-.299.164-.439.261-3.433 2.177-6.24 3.869-8.349 5.027-1.742.957-2.998 1.544-3.731 1.746-5.812 1.608-10.525 2.388-14.408 2.384-3.538.001-5.879-.671-7.708-1.316-4.166-1.488-16.945-5.203-21.263-4.009-.551.151-1.349.514-2.372 1.076l.008-.008zm-7.908 34.633a1.141 1.141 0 0 1 .297-.804l6.432-7.03 1.143.382a2254.313 2254.313 0 0 0-6.768 6.026c-.447.41-.82.894-1.101 1.432l-.003-.006zm13.561 2.13a41.73 41.73 0 0 0 2.814-3.273 9.99 9.99 0 0 0 1.693.114c.364.003.78.007.883.064.065.038.142.078.224.118.151.077.544.284.59.389-.182.283-2.324 2.374-3.79 3.78-.571-.8-1.72-1.087-2.417-1.198l.003.006z" fill="#fff"/><path d="M185.537 131.202c1.907 3.226-3.412-9.745 15.569-21.568-4.395 2.752-8.903 5.401-10.727 5.906-12.86 3.555-18.306 2.464-22.256 1.053a77.154 77.154 0 0 0-3.473-1.123c3.541 1.636 9.088 3.75 12.827 7.021 4.852 4.243 6.867 6.691 8.06 8.711z" fill="#2C2B2B"/><path d="M174.663 145.693c-1.526.137-2.594.551-4.128.504-4.817-.15-11.853-2.619-25.482-5.767-.469-.108-1.288-.458-1.695-.567-2.91-.787-7.169 1.079-8.894 1.997-1.775.948-3.089 1.05-3.182 1.463-.893 3.938-5.64 7.154-5.464 7.009 0 0 .133 1.912 1.316 3.317 1.184 1.406 2.939 2.147 4.811 2.531 1.872.384 2.229.359 2.229.359s1.368.301 2.433-.456c1.655-1.18 1.215-3.549 1.215-3.549s1.964 2.272 3.725 4.005c1.761 1.733 2.633 2.285 5.228 2.144a30.854 30.854 0 0 0 4.033-.43s2.463 2.387 3.963 2.624c1.5.236 3.486-1.072 4.692-2.451 1.206-1.38 1.277-2.159 1.277-2.159s3.831-3.874 4.467-4.051c2.613-.722 2.646-1.381 3.923-1.336 1.276.045 4.667 2.533 9.055 3.27.466.078.936.149 1.411.213-.389-.075-3.647-5.654-3.899-7.843-.094-.815-.07-.913-1.034-.827zm-36.703 1.054a5.129 5.129 0 0 0-1.413 2.233l-.106-.853a1.387 1.387 0 0 1 .358-1.115l6.545-7.16 1.712.573s-5.826 5.176-7.096 6.322zm18.714.911c-.209.372-4.067 4.061-4.067 4.061-.607-1.324-2.936-1.402-2.936-1.402 1.308-1.179 3.288-3.749 3.288-3.749 1.175.248 2.466.044 2.807.239.342.195 1.118.48.908.851z" fill="#232323"/><path d="M151.144 148.811a56.137 56.137 0 0 0 1.771-2.161c-3.13-1.778-5.131-5.022-7.889-6.125l-1.825 1.622c.957-.85 5.886-.185 7.943 6.664zM143.283 139.86c-2.185-.591-5.187.419-7.12 1.283 2.963-1.167 4.818-.288 5.541.406l1.557-1.694M156.469 147.057a.575.575 0 0 1 .221.696c-.091.162-.882.959-1.739 1.801 2.728-.98 7.245 2.737 7.793 4.717 1.009-.962 2.079-1.92 2.387-2.013-3.787-.579-7.937-5.032-8.662-5.201z" fill="#0F0F0F"/><path d="M160.197 152.83c-2.138-3.142-5.77-2.352-7.153-1.199-.081.067 2.77 5.082-1.011 7.562.83.663 1.911 1.405 2.719 1.53 1.507.233 3.486-1.071 4.692-2.453 1.207-1.381 1.278-2.157 1.278-2.157s.461-1.819-.525-3.283zM151.164 154.227c-1.176-1.932-3.254-3.126-6.82-2.9-1.951.126-2.162-3.424-3.428-3.969-.928-.401-2.172-.422-3.041.091l-.245.144a2.327 2.327 0 0 0-1 1.167c-.04.104-.073.199-.1.284 0 0-.207.633.308 1.888a6.75 6.75 0 0 0 .967 1.666s1.963 2.273 3.723 4.006c1.761 1.732 2.635 2.284 5.228 2.144a30.993 30.993 0 0 0 4.032-.43s2.522-.566.376-4.091zM134.776 150.602c-1.308-1.169-4.584-1.711-6.352-.85-2.537 1.234-1.513 3.721-1.314 3.967 1.184 1.405 2.939 2.146 4.813 2.531 1.874.385 2.227.358 2.227.358a3.555 3.555 0 0 0 2.015-.215c.743-.513.679-3.943-1.389-5.791z" fill="#0031F3"/><path d="M124.239 133.289c6.331-3.742 9.963-5.747 13.418-7.789 3.62-2.139 8.131-2.896 10.312-4.189.534-.317-6.03-.379-9.409.824-1.263.449-5.584 3.285-6.935 3.472a4.525 4.525 0 0 1-3.132-.671c-2.945 2.317-5.134 4.211-5.485 4.831-1.477 2.61-1.654 3.924-1.554 5.844-.001.001 1.613-1.63 2.785-2.322z" fill="#2C2B2B"/><mask id="a" style="mask-type:alpha" maskUnits="userSpaceOnUse" x="121" y="117" width="28" height="33"><rect x="120.613" y="124.087" width="14.541" height="30.763" rx="2.075" transform="rotate(-30.675 120.613 124.087)" fill="#1F1F1F"/></mask><g mask="url(#a)"><path d="M174.696 145.651c-1.528.137-2.597.552-4.133.504-4.821-.149-11.864-2.622-25.507-5.772-.469-.108-1.289-.459-1.697-.568-2.913-.787-7.176 1.08-8.903 1.999-1.776.949-3.091 1.051-3.185 1.464-.893 3.942-5.645 7.161-5.469 7.016 0 0 .133 1.914 1.317 3.321 1.185 1.407 2.942 2.149 4.816 2.533 1.874.385 2.231.359 2.231.359s1.37.302 2.435-.456c1.657-1.181 1.217-3.553 1.217-3.553s1.966 2.275 3.729 4.01c1.763 1.734 2.636 2.287 5.233 2.146a31.054 31.054 0 0 0 4.036-.43s2.466 2.389 3.968 2.625c1.501.237 3.489-1.072 4.696-2.453 1.207-1.381 1.278-2.161 1.278-2.161s3.835-3.877 4.472-4.054c2.615-.723 2.649-1.383 3.926-1.338 1.278.045 4.672 2.536 9.065 3.273.466.078.937.15 1.413.214-.39-.076-3.651-5.66-3.903-7.851-.095-.816-.071-.914-1.035-.828zm-18.007 1.967c-.21.372-4.072 4.065-4.072 4.065-.607-1.325-2.939-1.404-2.939-1.404 1.31-1.18 3.292-3.753 3.292-3.753 1.176.249 2.468.045 2.81.24.342.195 1.118.48.909.852z" fill="#000"/></g><path d="M138.025 125.267l-12.454 7.251-4.734-8.103 12.326-7.379 4.862 8.231zM145.182 165.617l-10.217-16.988a2.075 2.075 0 0 1 1.107-3.033l11.651-3.984 9.621 16.816a2.074 2.074 0 0 1-.743 2.815l-8.582 5.09a2.075 2.075 0 0 1-2.837-.716z" fill="#000"/><path d="M25.295 158.608H37.72m-7.181 11.513l9.233-8.321m2.128 14.252v-11.285" stroke="#000" stroke-width=".311"/><path d="M121.166 124.897l4.333 7.662M133.322 117.497l4.736 7.782" stroke="#E3E3E3" stroke-width=".311"/><path d="M131.686 142.938l13.423 22.596a2.075 2.075 0 0 0 2.841.726l8.614-5.097a2.074 2.074 0 0 0 .747-2.811l-9.861-17.347" stroke="#fff" stroke-width=".311"/><path d="M73.223 44.288L92.16 74.586a.722.722 0 0 0 1.071.175l9.847-8.105M73.223 44.288L120.3 51.08c.618.09.839.867.361 1.268l-9.297 7.801m-38.14-15.86l33.055 19.735M73.223 44.288l38.14 15.86m-5.085 3.875l5.085 7.144m-5.085-7.144l-3.2 2.633m8.285 4.51V60.149m0 11.019l-8.285-4.51" stroke="#63F5FF" stroke-width=".318"/><path d="M111.363 71.178l-8.292-4.48 3.094-2.59 5.198 7.07z" fill="#63F5FF" stroke="#63F5FF" stroke-width=".318"/><path d="M112.953 72.018c29.684 16.258 64.793 46.323 52.94 66.095-10.42 17.38-34.794 6.379-56.647-6.674" stroke="#63F5FF" stroke-width=".418" stroke-dasharray="1.44 1.44"/><path d="M136.879 81.838l-2.627 1.718 10.645 15.347 2.42-1.73c.594-.424.929-1.135.831-1.859-1.106-8.155-6.308-12.28-9.543-13.67-.567-.244-1.21-.143-1.726.194z" fill="#232323" stroke="#fff" stroke-width=".311"/><path d="M125.322 78.985L100.11 94.418l19.558 31.235 25.959-15.819c1.237-.753 2.015-2.099 1.883-3.541-1.049-11.464-9.579-23.6-18.796-27.629-1.105-.482-2.364-.309-3.392.32z" fill="#2C2B2B" stroke="#fff" stroke-width=".311"/><path d="M100.095 94.427c.652-.408 1.548-.406 2.642-.002 1.092.404 2.353 1.198 3.704 2.326 2.699 2.254 5.73 5.818 8.447 10.157 2.716 4.34 4.597 8.623 5.445 12.037.424 1.707.588 3.188.473 4.346-.114 1.161-.504 1.967-1.156 2.375-.652.408-1.548.407-2.642.003-1.091-.404-2.352-1.198-3.703-2.325-2.699-2.255-5.73-5.818-8.447-10.158-2.716-4.34-4.597-8.623-5.445-12.036-.424-1.708-.588-3.19-.473-4.347.114-1.16.504-1.968 1.155-2.376z" fill="#0F0F0F" stroke="#fff" stroke-width=".311"/><path d="M146.989 103.738c.155.845.271 1.69.348 2.531.131 1.436-.641 2.777-1.869 3.532l-24.632 15.147a2.09 2.09 0 0 1-.581.246c.931-1.077 1.017-3.248.382-6.044l26.352-15.412z" fill="#000"/><path d="M99.532 97.322c-26.867 21.111-53.153 19.77-68.13 15.317-2.19-.651-4.835 2.643-3.472 4.477l51.043 68.708c1.257 1.692 4.182.627 4.262-1.479 1.014-26.966 21.222-52.083 33.847-59.977.553-.346.933-.908.959-1.559.453-11.114-12.433-27.506-18.037-25.753-.172.054-.33.154-.472.266z" fill="#63F5FF" stroke="#000" stroke-width=".311"/><path fill-rule="evenodd" clip-rule="evenodd" d="M69.403 173.281c6.7-23.751 35.052-45.289 48.327-53.532a16.63 16.63 0 0 1 .193 3.199c-.028.652-.409 1.213-.962 1.558-12.642 7.869-32.9 32.944-33.97 59.907-.083 2.107-3.01 3.166-4.264 1.471l-9.324-12.603z" fill="#4EE0EA"/><path d="M26.768 113.354c1.493-1.099 3.676-1.165 6.385-.284 2.704.879 5.898 2.694 9.378 5.296 6.959 5.204 15.03 13.539 22.558 23.774 7.529 10.235 13.082 20.423 15.977 28.616 1.448 4.097 2.228 7.687 2.263 10.53.034 2.849-.68 4.912-2.173 6.011-1.493 1.098-3.675 1.164-6.384.283-2.704-.879-5.9-2.693-9.38-5.295-6.958-5.204-15.03-13.54-22.558-23.775-7.528-10.235-13.082-20.423-15.977-28.615-1.447-4.098-2.227-7.688-2.261-10.531-.034-2.848.678-4.912 2.172-6.01z" fill="#D9D9D9" stroke="#000" stroke-width=".311"/><path d="M29.283 117.331c1.321-.972 3.265-.904 5.597-.026 2.34.881 5.116 2.592 8.145 4.984 6.061 4.784 13.168 12.313 19.89 21.452 6.723 9.139 11.794 18.167 14.556 25.378 1.38 3.604 2.187 6.763 2.331 9.259.144 2.488-.37 4.364-1.691 5.336-1.322.972-3.266.904-5.598.026-2.34-.881-5.116-2.592-8.145-4.984-6.06-4.784-13.169-12.314-19.89-21.453-6.723-9.139-11.794-18.166-14.556-25.377-1.38-3.604-2.187-6.763-2.331-9.259-.144-2.488.37-4.364 1.692-5.336z" fill="#4A4949" stroke="#fff" stroke-width=".311"/><path d="M30.65 116.88c6.068-1.057 19.686 10.236 32.02 26.936 13.462 18.23 20.294 35.997 15.26 39.686-2.045 1.498-5.736.441-10.3-2.567 1.854.429 3.393.276 4.51-.543 5.292-3.876-.855-21.15-13.728-38.582-9.857-13.348-20.8-22.919-27.762-24.93z" fill="#333232"/><path d="M47.225 142.937l8.315-7.822c3.056 3.164 10.78 13.328 13.188 17.754l-9.962 5.988a2.075 2.075 0 0 1-2.756-.57l-9.05-12.63a2.075 2.075 0 0 1 .265-2.72z" fill="#0031F3" stroke="#fff" stroke-width=".311"/><path d="M47.104 143.195c1.004-.775 2.582-.681 4.368.186 1.777.862 3.711 2.468 5.375 4.619 1.663 2.151 2.732 4.428 3.119 6.364.39 1.947.083 3.497-.92 4.273-1.004.776-2.582.683-4.368-.183-1.777-.862-3.711-2.469-5.375-4.62-1.663-2.151-2.731-4.428-3.119-6.364-.39-1.947-.083-3.499.92-4.275z" fill="#D9D9D9" stroke="#fff" stroke-width=".311"/></svg>