<svg width="180" height="100" viewBox="0 0 180 100" fill="none" xmlns="http://www.w3.org/2000/svg"><g clip-path="url(#clip0_40682_49410)"><path d="M71.411 57.734l-44.39 20.615 8.852 19.13 44.391-20.615-8.853-19.13z" fill="#606060"/><path d="M25.521 98.955l-6.32-13.65a1.796 1.796 0 0 1 .649-2.26l7.172-4.695 8.853 19.129-8.215 2.446a1.795 1.795 0 0 1-2.139-.97z" fill="#939393"/><path d="M95.506 75.147l-2.122.24-.277.031-12.338 1.386-.511.059-8.853-19.13.378-.356 9.023-8.544.202-.192 1.554-1.471 12.944 27.977z" fill="#606060"/><path d="M95.506 75.147L82.562 47.17l.787-.363a.35.35 0 0 1 .463.171l12.652 27.348a.351.351 0 0 1-.17.464l-.788.357zM80.769 76.804l-.511.059-.681.314-8.853-19.124.68-.32.379-.356 8.986 19.427zM81.008 48.64l12.376 26.746-.277.032-12.301-26.585.202-.192zM60.043 63.015l-.237.11 8.853 19.13.236-.11-8.852-19.13zM27.305 78.22l-.237.11 8.853 19.13.236-.11-8.852-19.13z" fill="#8CF3FF"/><path d="M71.858 71.132a2.554 2.554 0 0 0-1.516-3.276 2.547 2.547 0 0 0-3.27 1.519 2.554 2.554 0 0 0 1.516 3.275 2.547 2.547 0 0 0 3.27-1.518z" fill="#C7F7FF"/><path opacity=".98" d="M198.106 59.924V0h-62.308L83.386 46.77l-.042.037L94.92 70.995V71l.005.01h.006l1.57 3.29.297-.038h.005v-.005l.075-.006.01-.005L198.107 60.26v-.336z" fill="url(#paint0_linear_40682_49410)"/><path opacity=".55" d="M132.643 0l-47.99 45.57-1.267 1.2L135.798 0h-3.155z" fill="url(#paint1_linear_40682_49410)"/><path opacity=".55" d="M198.106 60.26v2.862L97.89 74.14l-.043.005-.957.102 101.216-14.322v.336z" fill="url(#paint2_linear_40682_49410)"/><path opacity=".3" d="M198.106 62.888L97.89 74.139l-.043.006-1.042.112v.005l101.301-6.268v-5.106z" fill="url(#paint3_linear_40682_49410)"/><path opacity=".3" d="M132.643 0h-4.464L83.865 46.312l.788-.741L132.834 0h-.191z" fill="url(#paint4_linear_40682_49410)"/></g><defs><linearGradient id="paint0_linear_40682_49410" x1="201.571" y1="10" x2="87.071" y2="61.5" gradientUnits="userSpaceOnUse"><stop offset=".393" stop-color="#D8D8D8" stop-opacity="0"/><stop offset="1" stop-color="#DEDEDE"/></linearGradient><linearGradient id="paint1_linear_40682_49410" x1="136.071" y1="-1.5" x2="83.071" y2="47" gradientUnits="userSpaceOnUse"><stop stop-color="#CDCDCD" stop-opacity="0"/><stop offset="1" stop-color="#676767"/></linearGradient><linearGradient id="paint2_linear_40682_49410" x1="172.571" y1="65" x2="168.023" y2="88.422" gradientUnits="userSpaceOnUse"><stop stop-color="#CDCDCD" stop-opacity="0"/><stop offset="1" stop-color="#676767"/></linearGradient><linearGradient id="paint3_linear_40682_49410" x1="169.071" y1="69" x2="166.283" y2="85.881" gradientUnits="userSpaceOnUse"><stop stop-color="#ABABAB" stop-opacity="0"/><stop offset="1" stop-color="#454545"/></linearGradient><linearGradient id="paint4_linear_40682_49410" x1="130.571" x2="83.571" y2="46.5" gradientUnits="userSpaceOnUse"><stop stop-color="#ABABAB" stop-opacity="0"/><stop offset="1" stop-color="#454545"/></linearGradient><clipPath id="clip0_40682_49410"><path fill="#fff" d="M0 0h179.07v100H0z"/></clipPath></defs></svg>