<svg width="49" height="48" viewBox="0 0 49 48" fill="none" xmlns="http://www.w3.org/2000/svg">
<g clip-path="url(#clip0_23707_21237)">
<path d="M42.1647 15.355C46.9606 21.9846 43.9359 32.043 35.4855 38.1559C27.058 44.2522 16.8251 43.7066 12.0162 37.059C7.1823 30.3768 9.52774 19.6776 17.9133 13.6117C26.2992 7.5455 37.3309 8.67301 42.1647 15.355Z" stroke="url(#paint0_linear_23707_21237)" stroke-width="1.51741"/>
<path d="M40.7572 11.9127C47.7546 20.2048 45.9472 30.2312 36.2132 38.1309C26.1906 45.521 15.3185 43.7382 9.60389 36.4697C3.88931 29.2012 5.98521 17.119 14.86 10.6991C23.7347 4.27931 35.4925 4.6349 40.7572 11.9127Z" fill="url(#paint1_linear_23707_21237)"/>
<path d="M39.7345 11.722C42.1385 15.0451 42.5363 19.226 41.2369 23.3995C39.9358 27.5787 36.9376 31.7145 32.6214 34.8368C23.9404 41.1165 13.5264 40.6815 8.72716 34.0473C3.90341 27.3791 6.41362 16.5394 15.0525 10.2902C23.6917 4.04075 34.9109 5.05407 39.7345 11.722Z" stroke="url(#paint2_linear_23707_21237)" stroke-width="1.51741"/>
<path d="M37.7956 11.7303C41.7714 17.2262 39.5387 26.6858 31.2158 32.7065C22.8928 38.7271 13.2096 37.8874 9.23376 32.3914C5.25796 26.8954 7.49067 17.4359 15.8136 11.4152C24.1365 5.39453 33.8198 6.23429 37.7956 11.7303Z" fill="#90AEFF" stroke="url(#paint3_linear_23707_21237)" stroke-width="4.21501"/>
<path d="M35.7574 13.2099C37.4689 15.5758 37.6941 18.715 36.619 21.9103C35.544 25.1048 33.1755 28.3261 29.7557 30.7999C26.3358 33.2737 22.5351 34.5152 19.1646 34.5364C15.7933 34.5577 12.8822 33.3614 11.1707 30.9955C9.45916 28.6296 9.23394 25.4903 10.3091 22.2951C11.384 19.1005 13.7526 15.8793 17.1724 13.4054C20.5923 10.9316 24.393 9.6901 27.7635 9.66887C31.1348 9.64764 34.0459 10.8439 35.7574 13.2099Z" stroke="url(#paint4_linear_23707_21237)" stroke-width="0.674402"/>
</g>
<defs>
<linearGradient id="paint0_linear_23707_21237" x1="41.8027" y1="13.5422" x2="15.8823" y2="42.6813" gradientUnits="userSpaceOnUse">
<stop stop-color="#C1D2FF"/>
<stop offset="0.170676" stop-color="#B3C7FF"/>
<stop offset="0.309086" stop-color="#7094F6"/>
<stop offset="0.491314" stop-color="#4572EC"/>
<stop offset="0.704021" stop-color="#7094F6"/>
<stop offset="0.843399" stop-color="#B3C7FF"/>
<stop offset="1" stop-color="#A6BEFF"/>
</linearGradient>
<linearGradient id="paint1_linear_23707_21237" x1="41.3576" y1="13.7329" x2="12.7021" y2="42.6704" gradientUnits="userSpaceOnUse">
<stop stop-color="#98B4FF"/>
<stop offset="0.0550575" stop-color="#98B4FF"/>
<stop offset="0.170676" stop-color="#4572EC"/>
<stop offset="0.491314" stop-color="#0D41CE"/>
<stop offset="0.881945" stop-color="#4572EC"/>
<stop offset="0.930202" stop-color="#98B4FF"/>
<stop offset="1" stop-color="#98B4FF"/>
</linearGradient>
<linearGradient id="paint2_linear_23707_21237" x1="39.3727" y1="9.90902" x2="12.9491" y2="39.9612" gradientUnits="userSpaceOnUse">
<stop stop-color="#C1D2FF"/>
<stop offset="0.170676" stop-color="#B3C7FF"/>
<stop offset="0.309086" stop-color="#7094F6"/>
<stop offset="0.491314" stop-color="#4572EC"/>
<stop offset="0.704021" stop-color="#7094F6"/>
<stop offset="0.843399" stop-color="#B3C7FF"/>
<stop offset="1" stop-color="#A6BEFF"/>
</linearGradient>
<linearGradient id="paint3_linear_23707_21237" x1="30.9586" y1="4.9023" x2="18.1065" y2="39.2652" gradientUnits="userSpaceOnUse">
<stop stop-color="#4572EC"/>
<stop offset="0.417119" stop-color="#90ACFA"/>
<stop offset="1" stop-color="#CCDAFF"/>
</linearGradient>
<linearGradient id="paint4_linear_23707_21237" x1="17.1445" y1="12.4405" x2="30.9805" y2="30.7675" gradientUnits="userSpaceOnUse">
<stop stop-color="#2056EB"/>
<stop offset="0.474971" stop-color="#6F94F9" stop-opacity="0"/>
<stop offset="1" stop-color="#9BB6FF"/>
</linearGradient>
<clipPath id="clip0_23707_21237">
<rect width="48" height="48" fill="white" transform="translate(0.558594)"/>
</clipPath>
</defs>
</svg>
