<svg width="24" height="24" viewBox="0 0 24 24" fill="none" xmlns="http://www.w3.org/2000/svg"><path d="M12 7a8.882 8.882 0 0 1 8.018 5A8.882 8.882 0 0 1 12 17a8.882 8.882 0 0 1-8.018-5C5.482 8.936 8.555 7 12 7zm0-1.818C7.455 5.182 3.573 8.009 2 12c1.573 3.99 5.455 6.818 10 6.818 4.546 0 8.427-2.827 10-6.818-1.573-3.991-5.454-6.818-10-6.818zm0 4.545a2.274 2.274 0 1 1-.002 4.547A2.274 2.274 0 0 1 12 9.727zm0-1.818a4.097 4.097 0 0 0-4.09 4.09A4.097 4.097 0 0 0 12 16.092 4.097 4.097 0 0 0 16.09 12 4.097 4.097 0 0 0 12 7.909z" fill="currentColor"/></svg>