<svg width="24" height="24" viewBox="0 0 24 24" fill="none" xmlns="http://www.w3.org/2000/svg"><path d="M12 6.337a9.183 9.183 0 0 1 8.29 5.17 9.066 9.066 0 0 1-2.265 2.932l1.325 1.325a11.093 11.093 0 0 0 2.989-4.257c-1.626-4.127-5.64-7.05-10.34-7.05-1.193 0-2.34.188-3.42.536l1.55 1.55A9.5 9.5 0 0 1 12 6.338zm-1.006 1.071l1.946 1.946c.535.235.968.667 1.203 1.203l1.945 1.946c.075-.32.132-.658.132-1.006.01-2.33-1.89-4.22-4.22-4.22a3.99 3.99 0 0 0-1.006.131zM2.61 4.335l2.519 2.519a11.033 11.033 0 0 0-3.469 4.653c1.626 4.126 5.64 7.05 10.34 7.05 1.428 0 2.8-.273 4.06-.772L19.275 21l1.325-1.325L3.935 3 2.61 4.335zm7.05 7.05l2.452 2.453c-.037.009-.075.018-.112.018a2.35 2.35 0 0 1-2.35-2.35c0-.046.01-.075.01-.122zM6.462 8.187l1.645 1.645a4.324 4.324 0 0 0-.338 1.674 4.236 4.236 0 0 0 5.893 3.89l.921.922a9.805 9.805 0 0 1-2.584.357 9.184 9.184 0 0 1-8.29-5.17 9.308 9.308 0 0 1 2.753-3.318z" fill="currentColor"/></svg>