<svg width="20" height="20" viewBox="0 0 20 20" fill="none" xmlns="http://www.w3.org/2000/svg"><path d="M15 7.083h-.833V5.417c0-2.3-1.867-4.167-4.167-4.167a4.168 4.168 0 0 0-4.167 4.167v1.666H5c-.917 0-1.667.75-1.667 1.667v8.333c0 .917.75 1.667 1.667 1.667h10c.917 0 1.667-.75 1.667-1.667V8.75c0-.917-.75-1.667-1.667-1.667zm-5 7.5c-.916 0-1.666-.75-1.666-1.666 0-.917.75-1.667 1.666-1.667.917 0 1.667.75 1.667 1.667 0 .916-.75 1.666-1.667 1.666zm2.584-7.5H7.417V5.417A2.586 2.586 0 0 1 10 2.833a2.586 2.586 0 0 1 2.584 2.584v1.666z" fill="currentColor"/></svg>