<svg xmlns="http://www.w3.org/2000/svg" width="32" height="32" viewBox="0 0 32 32" fill="none"><path d="M8 13.333A2.675 2.675 0 0 0 5.335 16c0 1.466 1.2 2.666 2.667 2.666 1.466 0 2.666-1.2 2.666-2.666 0-1.467-1.2-2.667-2.666-2.667zm16 0A2.675 2.675 0 0 0 21.335 16c0 1.466 1.2 2.666 2.667 2.666 1.466 0 2.666-1.2 2.666-2.666 0-1.467-1.2-2.667-2.666-2.667zm-8 0A2.675 2.675 0 0 0 13.335 16c0 1.466 1.2 2.666 2.667 2.666 1.466 0 2.666-1.2 2.666-2.666 0-1.467-1.2-2.667-2.666-2.667z" fill="currentColor"/></svg>