<svg width="120" height="120" viewBox="0 0 120 120" fill="none" xmlns="http://www.w3.org/2000/svg"><path opacity=".1" d="M12 105c0 1.591 5.057 3.117 14.059 4.243C35.06 110.368 47.269 111 60 111c12.73 0 24.94-.632 33.941-1.757C102.943 108.117 108 106.591 108 105c0-1.591-5.057-3.117-14.059-4.243C84.94 99.632 72.731 99 60 99c-12.73 0-24.94.632-33.941 1.757C17.057 101.883 12 103.409 12 105z" fill="#4572EC"/><path opacity=".5" d="M9.48 93.958c0 1.02.78 1.8 1.8 1.8s1.8-.78 1.8-1.8-.78-1.8-1.8-1.8c-.96 0-1.8.84-1.8 1.8zm98.52 4.8c-1.8.48-2.22.84-2.7 2.7-.48-1.8-.84-2.22-2.7-2.7 1.8-.48 2.22-.9 2.7-2.7.48 1.8.84 2.22 2.7 2.7zm-90.6-10.14c-2.28.6-2.76 1.08-3.42 3.42-.6-2.28-1.08-2.76-3.42-3.42 2.28-.6 2.76-1.08 3.42-3.42.66 2.28 1.14 2.76 3.42 3.42zm7.5-57.48c-1.8.48-2.16.84-2.64 2.64-.48-1.8-.84-2.16-2.64-2.64 1.8-.48 2.16-.84 2.64-2.64.42 1.8.84 2.16 2.64 2.64zm-1.5-6.84c-4.68 1.2-5.64 2.22-6.9 6.9-1.2-4.68-2.22-5.64-6.9-6.9 4.68-1.2 5.64-2.22 6.9-6.9 1.2 4.62 2.22 5.64 6.9 6.9z" fill="#4572EC"/><path opacity=".2" d="M87.7 23.58v.54l4.38 4.2 17.099-8.34-15.42 9.9v4.86l2.46-2.4v-.06l.06.06 2.46 2.4L112 18.6V18l-24.3 5.58zM63.6 70.799c0 7.26 5.94 13.2 13.2 13.2H90v4.8c0 3.3-2.7 6-6 6H36c-3.3 0-6-2.7-6-6v-36c0-3.3 2.7-6 6-6h48c3.3 0 6 2.7 6 6v4.8H76.8c-7.26 0-13.2 5.94-13.2 13.2z" fill="#4572EC"/><circle opacity=".5" cx="77.537" cy="70.938" r="2.091" stroke="#4572EC" stroke-width="2.091"/><path opacity=".5" fill-rule="evenodd" clip-rule="evenodd" d="M34.228 39.113C27.444 39.983 22.2 45.781 22.2 52.8v36c0 7.62 6.18 13.8 13.8 13.8h48c7.62 0 13.8-6.18 13.8-13.8v-9h4.2c1.02 0 1.8-.78 1.8-1.8V63.6c0-1.02-.78-1.8-1.8-1.8h-4.2v-9c0-7.02-5.28-12.84-12.06-13.68l-.002-.007h-51.51zM84 99c5.64 0 10.2-4.56 10.2-10.2v-9H76.8c-4.98 0-9-4.02-9-9 0-2.4.96-4.68 2.64-6.36a8.991 8.991 0 0 1 6.36-2.64h17.4v-9c0-5.64-4.56-10.2-10.2-10.2H36c-5.64 0-10.2 4.56-10.2 10.2v36C25.8 94.44 30.36 99 36 99h48zm-7.2-22.8h23.4V65.4H76.8c-1.44 0-2.82.54-3.84 1.56s-1.56 2.4-1.56 3.84c0 3 2.4 5.4 5.4 5.4z" fill="#4572EC"/></svg>