<svg width="24" height="20" viewBox="0 0 24 20" fill="none" xmlns="http://www.w3.org/2000/svg"><path d="M24 12.07c0-2.64-2.05-4.78-4.65-4.96A7.49 7.49 0 0 0 12 1.07c-1.33 0-2.57.36-3.65.97l1.49 1.49c.67-.29 1.39-.46 2.16-.46 3.04 0 5.5 2.46 5.5 5.5v.5H19a2.996 2.996 0 0 1 1.79 5.4l1.41 1.41c1.09-.92 1.8-2.27 1.8-3.81zM4.41.93L3 2.34l2.77 2.77h-.42A5.994 5.994 0 0 0 0 11.07c0 3.31 2.69 6 6 6h11.73l2 2 1.41-1.41L4.41.93zM6 15.07c-2.21 0-4-1.79-4-4s1.79-4 4-4h1.73l8 8H6z" fill="currentColor"/></svg>