<svg width="18" height="18" viewBox="0 0 18 18" fill="none" xmlns="http://www.w3.org/2000/svg"><path d="M6.75 4.05v2.7h-2.7v-2.7h2.7zM8.1 2.7H2.7v5.4h5.4V2.7zm-1.35 8.55v2.7h-2.7v-2.7h2.7zM8.1 9.9H2.7v5.4h5.4V9.9zm5.85-5.85v2.7h-2.7v-2.7h2.7zM15.3 2.7H9.9v5.4h5.4V2.7zM9.9 9.9h1.35v1.35H9.9V9.9zm1.35 1.35h1.35v1.35h-1.35v-1.35zM12.6 9.9h1.35v1.35H12.6V9.9zm-2.7 2.7h1.35v1.35H9.9V12.6zm1.35 1.35h1.35v1.35h-1.35v-1.35zm1.35-1.35h1.35v1.35H12.6V12.6zm1.35-1.35h1.35v1.35h-1.35v-1.35zm0 2.7h1.35v1.35h-1.35v-1.35zM18 4.5h-1.8V1.8h-2.7V0H18v4.5zM18 18v-4.5h-1.8v2.7h-2.7V18H18zM0 18h4.5v-1.8H1.8v-2.7H0V18zM0 0v4.5h1.8V1.8h2.7V0H0z" fill="currentColor"/></svg>