<svg xmlns="http://www.w3.org/2000/svg" width="32" height="32" viewBox="0 0 32 32" fill="none"><path d="M4 14.667h10.667V4H4v10.667zm2.667-8H12V12H6.667V6.667zM4 28h10.667V17.333H4V28zm2.667-8H12v5.333H6.667V20zM17.333 4v10.667H28V4H17.333zm8 8H20V6.667h5.333V12zM28 25.333h-2.667V28H28v-2.667zM20 17.333h-2.667V20H20v-2.667zM22.667 20H20v2.667h2.667V20zM20 22.667h-2.667v2.666H20v-2.666zM22.667 25.333H20V28h2.667v-2.667z" fill="currentColor"/><path d="M25.333 22.667h-2.666v2.666h2.666v-2.666zM25.333 17.333h-2.666V20h2.666v-2.667zM28 20h-2.667v2.667H28V20z" fill="currentColor"/></svg>