<svg width="25" height="24" viewBox="0 0 25 24" fill="none" xmlns="http://www.w3.org/2000/svg"><circle cx="13.823" cy="8.98" r=".808" transform="rotate(30 13.823 8.98)" fill="#1E1E1E" stroke="#1E1E1E"/><path d="M10.482 8.769L8 9.068l-1.75 3.03 3.531.885m5.89-1.219l.982 2.3-1.75 3.03-2.53-2.615m-.894-7.444c2.433-3.214 5.348-3.263 5.348-3.263s1.415 2.549-.153 6.263c-1.567 3.713-3.865 4.696-3.865 4.696l-3.464-2s-.203-1.686 1.088-4.08a12.6 12.6 0 0 1 1.046-1.616zM10.485 17.32c-.055.095-.248.296-.627.576-.352.26-.784.531-1.213.78-.214.126-.425.243-.62.35-.006-.223-.01-.464-.009-.712.002-.497.02-1.006.07-1.441.053-.468.13-.736.186-.832a1.278 1.278 0 1 1 2.213 1.278z" stroke="#1E1E1E" stroke-width="1.5"/></svg>