<svg width="25" height="25" viewBox="0 0 25 25" fill="none" xmlns="http://www.w3.org/2000/svg"><path d="M12.75 15.278a2.723 2.723 0 1 0 0-5.446 2.723 2.723 0 0 0 0 5.446z" stroke="currentColor" stroke-width="1.5" stroke-miterlimit="10"/><path d="M19.373 12.528a6.39 6.39 0 0 0-.139-1.354l1.578-.917-2.047-3.561-1.589.917a6.6 6.6 0 0 0-2.356-1.365V4.425h-4.105v1.823A6.515 6.515 0 0 0 8.36 7.613l-1.535-.917-2.133 3.561 1.589.917a6.269 6.269 0 0 0 0 2.719l-1.589.917 2.133 3.55 1.535-.874a6.642 6.642 0 0 0 2.356 1.354v1.844h4.105v-1.876a6.737 6.737 0 0 0 2.356-1.322l1.589.906 2.047-3.55-1.578-.917c.097-.46.144-.928.139-1.397z" stroke="currentColor" stroke-width="1.5" stroke-miterlimit="10"/></svg>