<svg width="18" height="20" viewBox="0 0 18 20" fill="none" xmlns="http://www.w3.org/2000/svg"><path d="M15.877 10.907A7.21 7.21 0 0 0 15.94 10c0-.315-.027-.61-.065-.907l1.953-1.526a.467.467 0 0 0 .11-.593l-1.85-3.2a.462.462 0 0 0-.564-.204l-2.304.925c-.481-.37-1-.676-1.564-.907l-.351-2.452a.451.451 0 0 0-.454-.388h-3.7a.451.451 0 0 0-.454.388l-.351 2.452a7.109 7.109 0 0 0-1.564.907L2.479 3.57a.524.524 0 0 0-.167-.028.458.458 0 0 0-.397.231L.065 6.974a.456.456 0 0 0 .11.593l1.952 1.526a7.34 7.34 0 0 0-.064.907c0 .305.027.61.064.907L.175 12.433a.467.467 0 0 0-.11.592l1.85 3.202a.462.462 0 0 0 .564.203l2.304-.925c.481.37 1 .676 1.564.907l.351 2.452a.451.451 0 0 0 .453.388h3.701a.451.451 0 0 0 .454-.388l.351-2.452a7.112 7.112 0 0 0 1.564-.907l2.304.925a.524.524 0 0 0 .166.028.458.458 0 0 0 .398-.231l1.85-3.202a.467.467 0 0 0-.11-.592l-1.953-1.526zm-1.833-1.582c.037.286.047.48.047.675 0 .194-.019.398-.046.675l-.13 1.046.824.648.999.777-.648 1.12-1.175-.473-.962-.388-.833.629a5.418 5.418 0 0 1-1.156.675l-.981.398-.148 1.046-.185 1.249H8.354l-.324-2.295-.98-.397a5.251 5.251 0 0 1-1.138-.658l-.842-.647-.981.398-1.175.472-.648-1.12 1-.777.823-.648-.13-1.045A7.445 7.445 0 0 1 3.913 10c0-.185.019-.398.046-.675l.13-1.046-.824-.648-.999-.777.648-1.12 1.175.473.962.388.833-.63a5.419 5.419 0 0 1 1.156-.674l.981-.398.148-1.046.185-1.249H9.64l.324 2.295.981.398c.398.166.768.379 1.138.656l.842.648.98-.398 1.176-.472.648 1.12-.99.786-.824.648.13 1.046zM9.002 6.299A3.7 3.7 0 0 0 5.301 10a3.7 3.7 0 0 0 3.701 3.701 3.7 3.7 0 0 0 3.7-3.701 3.7 3.7 0 0 0-3.7-3.701zm0 5.551A1.856 1.856 0 0 1 7.152 10c0-1.018.832-1.85 1.85-1.85 1.018 0 1.85.832 1.85 1.85 0 1.018-.832 1.85-1.85 1.85z" fill="#999"/></svg>