<svg width="100" height="100" viewBox="0 0 100 100" fill="none" xmlns="http://www.w3.org/2000/svg">
<path d="M60.9296 74.1239L10.2509 89.8664C8.0548 90.5499 5.99315 88.4883 6.67663 86.2922L22.4192 35.6135L60.9296 74.1239Z" fill="#8CF3FF"/>
<path d="M62.4891 73.2257C66.1821 69.5327 60.4073 57.7703 49.5907 46.9537C38.7741 36.1371 27.0117 30.3623 23.3187 34.0553C19.6256 37.7484 25.4004 49.5108 36.217 60.3274C47.0336 71.144 58.796 76.9188 62.4891 73.2257Z" fill="#CCFFFF"/>
<path d="M60.7166 71.4457C59.2712 72.8911 55.9771 72.4877 51.6633 70.3364C47.1366 68.0731 41.9825 64.185 37.1757 59.367C32.3577 54.549 28.4697 49.4061 26.2063 44.8794C24.055 40.5768 23.6517 37.2715 25.0971 35.8261C26.5425 34.3807 29.8366 34.784 34.1504 36.9353C38.6771 39.1987 43.8312 43.0867 48.638 47.9047C53.4448 52.7227 57.344 57.8656 59.6074 62.3923C61.7475 66.7061 62.1508 70.0003 60.7166 71.4457Z" fill="url(#paint0_linear_40196_95399)"/>
<path d="M53.6578 76.3878L43.8537 79.4355C41.68 78.6623 39.5399 77.7211 37.4335 76.6343C32.862 74.2701 28.4697 71.1552 24.3576 67.4017C23.6966 66.7966 22.9571 66.1019 22.1839 65.3176C20.1783 63.312 17.8701 60.7573 15.5508 57.6984L17.5676 51.2109C21.2539 56.746 25.2204 60.8693 28.0104 63.4128C35.8536 70.595 44.47 74.9424 53.6578 76.3878Z" fill="#0039EA"/>
<path d="M37.2987 81.4644L29.5675 83.8622C25.1417 81.5204 20.8951 78.4839 16.9063 74.8424C16.2452 74.2374 15.5057 73.5427 14.7326 72.7584C13.8138 71.8396 12.839 70.8199 11.8306 69.6771L13.7242 63.5593C16.2452 66.6742 18.6766 69.128 20.559 70.8536C25.814 75.6716 31.4163 79.2122 37.2987 81.4644Z" fill="#0039EA"/>
<path d="M23.2935 85.8099L16.5147 87.9163C14.0833 86.2469 11.7303 84.3757 9.46696 82.2916C9.08601 81.9443 8.69384 81.5745 8.26807 81.1711L10.072 75.3447C11.1701 76.4988 12.2009 77.4848 13.1085 78.314C16.3802 81.3056 19.7752 83.8042 23.2935 85.8099Z" fill="#0039EA"/>
<path d="M30.1395 39.3341L27.7417 36.9363C31.5513 33.1267 33.7362 28.2302 34.218 22.3814C34.5877 17.9332 33.781 14.5718 33.781 14.5382L37.0752 13.7202C37.1088 13.8771 38.0052 17.5522 37.613 22.5271C37.0864 29.1714 34.4981 34.9754 30.1395 39.3341Z" fill="#8CF3FF"/>
<path d="M57.1537 65.2055L54.7559 62.8077C59.4506 58.1129 66.1062 55.7487 73.983 55.9728C79.8319 56.1409 84.2801 57.6647 84.4706 57.7208L83.3613 60.9253L83.9216 59.323L83.3725 60.9253C83.3277 60.9141 79.1484 59.4911 73.8038 59.3566C66.8121 59.1774 61.2209 61.1494 57.1537 65.2055Z" fill="#2252FF"/>
<path d="M35.853 34.9425C37.0855 32.9033 38.699 32.3655 39.8867 31.9733C40.8839 31.6484 41.489 31.4467 42.0716 30.4831C42.6543 29.5195 42.5422 28.892 42.3741 27.85C42.1612 26.6287 41.8811 24.948 43.1136 22.8975C44.3462 20.8471 45.9596 20.3205 47.1473 19.9283C48.1445 19.6034 48.7496 19.4017 49.3322 18.4381C49.9149 17.4745 49.8028 16.847 49.6348 15.805C49.4219 14.5837 49.1417 12.903 50.3743 10.8525L53.2875 12.6005C52.7048 13.5641 52.8169 14.1915 52.9849 15.2336C53.1978 16.4549 53.4779 18.1356 52.2454 20.186C51.0129 22.2253 49.3995 22.7631 48.2118 23.1552C47.2145 23.4802 46.6095 23.6819 46.0269 24.6455C45.4442 25.6091 45.5563 26.2365 45.7243 27.2786C45.9372 28.4999 46.2173 30.1806 44.9848 32.231C43.7523 34.2703 42.1388 34.8081 40.9511 35.2002C39.9539 35.5252 39.3489 35.7269 38.7662 36.6905L35.853 34.9425Z" fill="#474747" stroke="white" stroke-width="0.0560233" stroke-miterlimit="10"/>
<path d="M78.8684 47.9173C79.8028 47.9173 80.5603 47.1598 80.5603 46.2254C80.5603 45.2909 79.8028 44.5334 78.8684 44.5334C77.934 44.5334 77.1765 45.2909 77.1765 46.2254C77.1765 47.1598 77.934 47.9173 78.8684 47.9173Z" fill="#7416EF"/>
<path d="M71.3052 67.7266C72.2396 67.7266 72.9971 66.9691 72.9971 66.0347C72.9971 65.1003 72.2396 64.3428 71.3052 64.3428C70.3708 64.3428 69.6133 65.1003 69.6133 66.0347C69.6133 66.9691 70.3708 67.7266 71.3052 67.7266Z" fill="#F2112D"/>
<path d="M86.9131 53.3172C87.8475 53.3172 88.605 52.5597 88.605 51.6253C88.605 50.6908 87.8475 49.9333 86.9131 49.9333C85.9787 49.9333 85.2212 50.6908 85.2212 51.6253C85.2212 52.5597 85.9787 53.3172 86.9131 53.3172Z" fill="#2252FF"/>
<path d="M73.1089 28.2298C74.0433 28.2298 74.8008 27.4723 74.8008 26.5378C74.8008 25.6034 74.0433 24.8459 73.1089 24.8459C72.1745 24.8459 71.417 25.6034 71.417 26.5378C71.417 27.4723 72.1745 28.2298 73.1089 28.2298Z" fill="#FF4901"/>
<path d="M44.2004 17.5176C45.1349 17.5176 45.8924 16.7601 45.8924 15.8257C45.8924 14.8913 45.1349 14.1338 44.2004 14.1338C43.266 14.1338 42.5085 14.8913 42.5085 15.8257C42.5085 16.7601 43.266 17.5176 44.2004 17.5176Z" fill="#2252FF"/>
<path d="M85.2102 32.8025C86.1446 32.8025 86.9021 32.045 86.9021 31.1106C86.9021 30.1762 86.1446 29.4187 85.2102 29.4187C84.2758 29.4187 83.5183 30.1762 83.5183 31.1106C83.5183 32.045 84.2758 32.8025 85.2102 32.8025Z" fill="#2252FF"/>
<path d="M45.3779 55.9505C46.3124 55.9505 47.0698 55.193 47.0698 54.2586C47.0698 53.3241 46.3124 52.5667 45.3779 52.5667C44.4435 52.5667 43.686 53.3241 43.686 54.2586C43.686 55.193 44.4435 55.9505 45.3779 55.9505Z" fill="#FF4901"/>
<path d="M28.156 27.166C29.0904 27.166 29.8479 26.4085 29.8479 25.4741C29.8479 24.5397 29.0904 23.7822 28.156 23.7822C27.2216 23.7822 26.4641 24.5397 26.4641 25.4741C26.4641 26.4085 27.2216 27.166 28.156 27.166Z" fill="#7416EF"/>
<path d="M61.5242 10L66.7456 10.3473L72.6616 17.5295C73.3563 18.3811 73.1322 19.7144 72.1574 20.5212L57.9611 32.2188C56.9863 33.0256 55.6305 32.9919 54.9359 32.1404L47.989 23.7257C47.2943 22.8741 47.5184 21.5408 48.4932 20.7341L61.5242 10Z" fill="#8CF3FF" stroke="white" stroke-width="0.0560233" stroke-miterlimit="10"/>
<mask id="mask0_40196_95399" style="mask-type:luminance" maskUnits="userSpaceOnUse" x="47" y="10" width="27" height="23">
<path d="M61.5254 10L66.7468 10.3473L72.6628 17.5295C73.3575 18.3811 73.1334 19.7144 72.1586 20.5212L57.9623 32.2188C56.9875 33.0256 55.6318 32.9919 54.9371 32.1404L47.9902 23.7257C47.2955 22.8741 47.5196 21.5408 48.4944 20.7341L61.5254 10Z" fill="white"/>
</mask>
<g mask="url(#mask0_40196_95399)">
<path d="M60.4166 28.5556L58.0748 25.7096L54.3661 28.7685L55.8563 30.5837C56.3269 31.1551 57.2233 31.1999 57.8508 30.6733L60.4166 28.5556ZM57.6491 25.1942L56.1476 23.3791C55.7891 22.9533 55.128 22.9197 54.6462 23.3119L51.789 25.6648L53.9179 28.2531L57.6491 25.1942ZM67.8453 20.69L61.8732 13.4406C61.4026 12.8691 60.5063 12.8243 59.8788 13.3509L57.3129 15.4686L59.6547 18.3146L63.3634 15.2557L63.7892 15.7711L60.0805 18.83L61.5707 20.6451C61.9292 21.0709 62.5903 21.1045 63.0721 20.7124L65.9293 18.3594L66.3551 18.8748L63.4979 21.2278C62.7136 21.8777 61.5931 21.8216 60.9993 21.1157L56.7303 15.9392L50.1644 21.3622C49.5369 21.8777 49.4024 22.7628 49.873 23.3343L51.3633 25.1494L54.2204 22.7964C55.0048 22.1466 56.1252 22.2026 56.7191 22.9085L60.9881 28.085L67.554 22.6732C68.1926 22.1466 68.3271 21.2614 67.8453 20.69Z" fill="white"/>
<path d="M57.3017 15.4686L56.7303 15.9392M56.7303 15.9392L60.9993 21.1157C61.5931 21.8216 62.7136 21.8777 63.4979 21.2278L66.3551 18.8748L65.9293 18.3594L63.0721 20.7124C62.5903 21.1045 61.9292 21.0709 61.5707 20.6451L60.0805 18.83L63.7892 15.7711L63.3634 15.2557L59.6547 18.3146L57.3129 15.4686L59.8788 13.3509C60.5063 12.8243 61.4026 12.8691 61.8732 13.4406L67.8453 20.69C68.3271 21.2614 68.1926 22.1466 67.554 22.6732L60.9881 28.085L56.7191 22.9085C56.1252 22.2026 55.0048 22.1466 54.2204 22.7964L51.3633 25.1494L49.873 23.3343C49.4024 22.7628 49.5369 21.8777 50.1644 21.3622L56.7303 15.9392ZM60.4166 28.5556L58.0748 25.7096L54.3661 28.7685L55.8563 30.5837C56.3269 31.1551 57.2233 31.1999 57.8508 30.6733L60.4166 28.5556ZM57.6491 25.1942L56.1476 23.3791C55.7891 22.9533 55.128 22.9197 54.6462 23.3119L51.789 25.6648L53.9179 28.2531L57.6491 25.1942Z" stroke="white" stroke-width="0.0560233" stroke-miterlimit="10"/>
</g>
<path d="M61.5242 10L66.7456 10.3473L72.6616 17.5295C73.3563 18.3811 73.1322 19.7144 72.1574 20.5212L57.9611 32.2188C56.9863 33.0256 55.6305 32.9919 54.9359 32.1404L47.989 23.7257C47.2943 22.8741 47.5184 21.5408 48.4932 20.7341L61.5242 10Z" stroke="white" stroke-width="0.0560233" stroke-miterlimit="10"/>
<mask id="mask1_40196_95399" style="mask-type:luminance" maskUnits="userSpaceOnUse" x="72" y="17" width="2" height="4">
<path d="M72.6622 17.5278C73.3569 18.3794 73.1328 19.7127 72.158 20.5195C73.144 19.7127 73.3681 18.3682 72.6622 17.5278Z" fill="white"/>
</mask>
<g mask="url(#mask1_40196_95399)">
<path d="M72.6622 17.5278C73.3569 18.3794 73.1328 19.7127 72.158 20.5195C73.144 19.7127 73.3681 18.3682 72.6622 17.5278Z" fill="#8CF3FF" stroke="white" stroke-width="0.0560233" stroke-miterlimit="10"/>
</g>
<path d="M72.6609 17.5278C73.3556 18.3794 73.1315 19.7127 72.1567 20.5195C73.1427 19.7127 73.3668 18.3682 72.6609 17.5278Z" stroke="white" stroke-width="0.0560233" stroke-miterlimit="10"/>
<path d="M57.9714 32.2214L72.1674 20.5166L57.9714 32.2214Z" stroke="white" stroke-width="0.0560233" stroke-miterlimit="10"/>
<mask id="mask2_40196_95399" style="mask-type:luminance" maskUnits="userSpaceOnUse" x="54" y="32" width="4" height="1">
<path d="M57.9591 32.222C56.9843 33.0287 55.6285 32.9951 54.9338 32.1436C55.6285 32.9951 56.9955 33.0287 57.9591 32.222Z" fill="white"/>
</mask>
<g mask="url(#mask2_40196_95399)">
<path d="M57.9591 32.222C56.9843 33.0287 55.6285 32.9951 54.9338 32.1436C55.6285 32.9951 56.9955 33.0287 57.9591 32.222Z" fill="#8CF3FF" stroke="white" stroke-width="0.0560233" stroke-miterlimit="10"/>
</g>
<path d="M57.9608 32.221C56.986 33.0277 55.6302 32.9941 54.9355 32.1426C55.6302 32.9941 56.9972 33.0277 57.9608 32.221Z" stroke="white" stroke-width="0.0560233" stroke-miterlimit="10"/>
<path d="M62.5218 28.7337L54.2976 28.3303V28.3191L62.5218 28.7337Z" fill="#808080"/>
<path d="M54.2868 28.2878L62.5334 28.7024L72.0462 39.8398C73.1778 41.162 72.8529 43.2797 71.3403 44.5794L49.3119 63.4032C47.7993 64.703 45.648 64.6805 44.5163 63.3584L33.3565 50.2938C32.2248 48.9716 32.5498 46.8539 34.0624 45.5542L54.2868 28.2878ZM72.0238 39.8622L62.5222 28.736L54.298 28.3215L34.096 45.5766C32.5946 46.8652 32.2809 48.9604 33.3901 50.2714L44.55 63.336C45.6592 64.6357 47.7881 64.6581 49.3007 63.3696L71.3291 44.557C72.8305 43.2797 73.1442 41.1732 72.0238 39.8622Z" fill="#CFCFCF"/>
<path d="M54.2974 28.3213L62.5216 28.7359L72.0231 39.8621C73.1324 41.1618 72.8187 43.2683 71.3172 44.5568L49.2889 63.3694C47.7875 64.658 45.6586 64.6356 44.5381 63.3358L33.3895 50.2712C32.2802 48.9715 32.594 46.865 34.0954 45.5765L54.2974 28.3213Z" fill="#393939"/>
<mask id="mask3_40196_95399" style="mask-type:luminance" maskUnits="userSpaceOnUse" x="32" y="28" width="41" height="37">
<path d="M54.2984 28.3179L62.5226 28.7324L72.0241 39.8587C73.1334 41.1584 72.8196 43.2649 71.3182 44.5534L49.2899 63.366C47.7885 64.6546 45.6596 64.6321 44.5391 63.3324L33.3905 50.2678C32.2812 48.968 32.5949 46.8616 34.0964 45.573L54.2984 28.3179Z" fill="white"/>
</mask>
<g mask="url(#mask3_40196_95399)">
<path d="M53.0658 57.5523L49.2898 53.1376L43.5306 58.0565L45.9284 60.8688C46.6903 61.754 48.0909 61.7988 49.0769 60.9585L53.0658 57.5523ZM48.6063 52.3309L46.2085 49.5185C45.6371 48.8575 44.5839 48.8238 43.8556 49.4513L39.4185 53.2385L42.8471 57.2497L48.6063 52.3309ZM64.5505 44.9694L54.9482 33.72C54.1862 32.8348 52.7857 32.79 51.7997 33.6303L47.8108 37.0365L51.5868 41.4512L57.346 36.5323L58.0294 37.3391L52.2702 42.2579L54.668 45.0703C55.2395 45.7314 56.2927 45.765 57.021 45.1375L61.4581 41.3503L62.1415 42.1571L57.7045 45.9442C56.4832 46.9863 54.7241 46.9415 53.7717 45.8322L46.9144 37.7985L36.7182 46.5045C35.7434 47.3448 35.5641 48.7342 36.3148 49.6194L38.7126 52.4317L43.1497 48.6446C44.371 47.6025 46.1301 47.6474 47.0825 48.7566L53.9397 56.7904L64.136 48.0843C65.122 47.2552 65.3013 45.8546 64.5505 44.9694Z" fill="#8CF3FF"/>
</g>
<mask id="mask4_40196_95399" style="mask-type:luminance" maskUnits="userSpaceOnUse" x="44" y="63" width="6" height="2">
<path d="M49.3124 63.4022C47.7998 64.702 45.6485 64.6796 44.5168 63.3574C45.6485 64.6796 47.7998 64.6908 49.3124 63.4022Z" fill="white"/>
</mask>
<g mask="url(#mask4_40196_95399)">
<path d="M49.3124 63.4022C47.7998 64.702 45.6485 64.6796 44.5168 63.3574C45.6485 64.6796 47.7998 64.6908 49.3124 63.4022Z" fill="white"/>
</g>
<mask id="mask5_40196_95399" style="mask-type:luminance" maskUnits="userSpaceOnUse" x="71" y="39" width="2" height="6">
<path d="M72.057 39.8384C73.1886 41.1605 72.8637 43.2894 71.3511 44.5779C72.8637 43.2894 73.1774 41.1605 72.057 39.8384Z" fill="white"/>
</mask>
<g mask="url(#mask5_40196_95399)">
<path d="M72.057 39.8384C73.1886 41.1605 72.8637 43.2894 71.3511 44.5779C72.8637 43.2894 73.1774 41.1605 72.057 39.8384Z" fill="white"/>
</g>
<path d="M62.823 30.4265C63.7574 30.4265 64.5149 29.669 64.5149 28.7346C64.5149 27.8002 63.7574 27.0427 62.823 27.0427C61.8886 27.0427 61.1311 27.8002 61.1311 28.7346C61.1311 29.669 61.8886 30.4265 62.823 30.4265Z" fill="#2252FF"/>
<path d="M67.7755 42.5037L67.0696 39.6241C69.1536 39.1087 70.5318 39.8034 71.529 40.3076C72.3918 40.7446 72.9184 41.0135 73.938 40.767C74.9577 40.5205 75.2938 40.0387 75.8652 39.2431C76.5151 38.3243 77.4115 37.0806 79.4955 36.5652C81.5796 36.0498 82.9578 36.7445 83.955 37.2487C84.8178 37.6857 85.3444 37.9546 86.364 37.7081C87.3836 37.4616 87.7198 36.9798 88.2912 36.1843C88.9411 35.2655 89.8374 34.0218 91.9215 33.5063L92.6274 36.3859C91.6078 36.6324 91.2716 37.1142 90.7002 37.9098C90.0503 38.8286 89.154 40.0723 87.0699 40.5877C84.9858 41.1031 83.6076 40.4084 82.6104 39.9042C81.7477 39.4672 81.2211 39.1983 80.2014 39.4448C79.1818 39.6913 78.8457 40.1731 78.2742 40.9686C77.6244 41.8874 76.728 43.1311 74.6439 43.6466C72.5599 44.162 71.1817 43.4673 70.1845 42.9631C69.3217 42.5149 68.7951 42.2572 67.7755 42.5037Z" fill="#8CF3FF"/>
<defs>
<linearGradient id="paint0_linear_40196_95399" x1="37.3318" y1="59.5787" x2="48.4718" y2="47.6961" gradientUnits="userSpaceOnUse">
<stop stop-color="#2B2B2B"/>
<stop offset="1" stop-color="#111111"/>
</linearGradient>
</defs>
</svg>
