<svg width="78" height="78" viewBox="0 0 78 78" fill="none" xmlns="http://www.w3.org/2000/svg"><g filter="url(#filter0_d_18895_54497)"><path d="M52.283 35.063L39 21.781H3V10.352A7.289 7.289 0 0 1 10.29 3h41.993v32.063z" fill="url(#paint0_linear_18895_54497)"/><path d="M56.22 52.283V3l18.767 18.781v30.502H56.22z" fill="url(#paint1_linear_18895_54497)"/><path d="M21.78 25.73V75H10.353a7.289 7.289 0 0 1-7.289-7.289v-41.98h18.718z" fill="url(#paint2_linear_18895_54497)"/><path d="M67.698 74.987H25.705v-18.78H75v11.428a7.288 7.288 0 0 1-7.302 7.352z" fill="url(#paint3_linear_18895_54497)"/></g><defs><filter id="filter0_d_18895_54497" x=".414" y=".414" width="77.172" height="77.172" filterUnits="userSpaceOnUse" color-interpolation-filters="sRGB"><feFlood flood-opacity="0" result="BackgroundImageFix"/><feColorMatrix in="SourceAlpha" values="0 0 0 0 0 0 0 0 0 0 0 0 0 0 0 0 0 0 127 0" result="hardAlpha"/><feOffset/><feGaussianBlur stdDeviation="1.293"/><feComposite in2="hardAlpha" operator="out"/><feColorMatrix values="0 0 0 0 0 0 0 0 0 0 0 0 0 0 0 0 0 0 0.12 0"/><feBlend in2="BackgroundImageFix" result="effect1_dropShadow_18895_54497"/><feBlend in="SourceGraphic" in2="effect1_dropShadow_18895_54497" result="shape"/></filter><linearGradient id="paint0_linear_18895_54497" x1="2.731" y1="2.731" x2="75.269" y2="75.269" gradientUnits="userSpaceOnUse"><stop stop-color="#A6F3FF"/><stop offset="1" stop-color="#1C5BFE"/></linearGradient><linearGradient id="paint1_linear_18895_54497" x1="2.731" y1="2.731" x2="75.269" y2="75.269" gradientUnits="userSpaceOnUse"><stop stop-color="#A6F3FF"/><stop offset="1" stop-color="#1C5BFE"/></linearGradient><linearGradient id="paint2_linear_18895_54497" x1="2.731" y1="2.731" x2="75.269" y2="75.269" gradientUnits="userSpaceOnUse"><stop stop-color="#A6F3FF"/><stop offset="1" stop-color="#1C5BFE"/></linearGradient><linearGradient id="paint3_linear_18895_54497" x1="2.731" y1="2.731" x2="75.269" y2="75.269" gradientUnits="userSpaceOnUse"><stop stop-color="#A6F3FF"/><stop offset="1" stop-color="#1C5BFE"/></linearGradient></defs></svg>