<svg width="24" height="24" viewBox="0 0 24 24" fill="none" xmlns="http://www.w3.org/2000/svg"><path d="M23.318 19.722a1.515 1.515 0 0 1-.048 1.52c-.143.23-.344.421-.587.554a1.66 1.66 0 0 1-.798.204H2.115c-.28 0-.555-.07-.798-.204a1.591 1.591 0 0 1-.587-.553 1.52 1.52 0 0 1-.048-1.521L10.567 1.34c.136-.252.34-.464.592-.613a1.658 1.658 0 0 1 1.682 0c.253.149.457.361.593.612l9.884 18.382zm-11.265.194l1.533-2.079.5-.02a2.054 2.054 0 0 0-.652-1.416 2.138 2.138 0 0 0-1.459-.574h-.039a2.1 2.1 0 0 0-.79.17l.197.459-.197-.46c-.25.108-.476.263-.665.457a1.983 1.983 0 0 0-.567 1.468c.021.54.255 1.047.65 1.417.393.37.916.576 1.458.578h.031zm-1.15-13.44c-.293.287-.46.677-.46 1.087v6.179c0 .41.167.8.46 1.086.293.286.688.444 1.097.444.409 0 .803-.158 1.097-.444.293-.286.46-.676.46-1.086V7.563c0-.41-.167-.8-.46-1.086A1.572 1.572 0 0 0 12 6.034c-.409 0-.803.158-1.097.443z" fill="#EF4444" stroke="#EF4444"/></svg>