<svg xmlns="http://www.w3.org/2000/svg" width="20" height="21" viewBox="0 0 20 21" fill="none"><path d="M16.712 9.937c.467.383 1.15.35 1.575-.075a1.183 1.183 0 0 0-.083-1.75A12.939 12.939 0 0 0 7.746 5.395l2.158 2.159a10.563 10.563 0 0 1 6.808 2.383zm-1.891 1.525a7.736 7.736 0 0 0-2.1-1.083l2.458 2.458c.2-.483.083-1.058-.358-1.375zm-3.2 3.55a3.567 3.567 0 0 0-3.259 0c-.491.258-.583.933-.191 1.325l1.225 1.225a.83.83 0 0 0 1.175 0l1.225-1.225c.408-.392.325-1.067-.175-1.325zm4.775 1.392L3.429 3.437a.83.83 0 1 0-1.175 1.175l1.95 1.958a12.55 12.55 0 0 0-2.408 1.542 1.183 1.183 0 0 0-.084 1.75c.425.425 1.1.467 1.559.083a10.57 10.57 0 0 1 2.708-1.608l1.858 1.858a8.026 8.026 0 0 0-2.658 1.259c-.575.416-.608 1.258-.108 1.758l.008.008c.408.409 1.05.45 1.525.109.992-.7 2.15-1.05 3.308-1.075l5.309 5.308a.83.83 0 0 0 1.175 0 .81.81 0 0 0 0-1.158z" fill="currentColor"/></svg>